%TF.GenerationSoftware,KiCad,Pcbnew,9.0.6*%
%TF.CreationDate,2025-11-30T21:08:30+05:30*%
%TF.ProjectId,Mini_Drone,4d696e69-5f44-4726-9f6e-652e6b696361,rev?*%
%TF.SameCoordinates,Original*%
%TF.FileFunction,Copper,L2,Inr*%
%TF.FilePolarity,Positive*%
%FSLAX46Y46*%
G04 Gerber Fmt 4.6, Leading zero omitted, Abs format (unit mm)*
G04 Created by KiCad (PCBNEW 9.0.6) date 2025-11-30 21:08:30*
%MOMM*%
%LPD*%
G01*
G04 APERTURE LIST*
G04 Aperture macros list*
%AMRoundRect*
0 Rectangle with rounded corners*
0 $1 Rounding radius*
0 $2 $3 $4 $5 $6 $7 $8 $9 X,Y pos of 4 corners*
0 Add a 4 corners polygon primitive as box body*
4,1,4,$2,$3,$4,$5,$6,$7,$8,$9,$2,$3,0*
0 Add four circle primitives for the rounded corners*
1,1,$1+$1,$2,$3*
1,1,$1+$1,$4,$5*
1,1,$1+$1,$6,$7*
1,1,$1+$1,$8,$9*
0 Add four rect primitives between the rounded corners*
20,1,$1+$1,$2,$3,$4,$5,0*
20,1,$1+$1,$4,$5,$6,$7,0*
20,1,$1+$1,$6,$7,$8,$9,0*
20,1,$1+$1,$8,$9,$2,$3,0*%
G04 Aperture macros list end*
%TA.AperFunction,ComponentPad*%
%ADD10R,2.000000X2.000000*%
%TD*%
%TA.AperFunction,ComponentPad*%
%ADD11R,1.508000X1.508000*%
%TD*%
%TA.AperFunction,ComponentPad*%
%ADD12C,1.508000*%
%TD*%
%TA.AperFunction,ComponentPad*%
%ADD13RoundRect,0.250000X-0.750000X0.600000X-0.750000X-0.600000X0.750000X-0.600000X0.750000X0.600000X0*%
%TD*%
%TA.AperFunction,ComponentPad*%
%ADD14O,2.000000X1.700000*%
%TD*%
%TA.AperFunction,HeatsinkPad*%
%ADD15C,0.600000*%
%TD*%
%TA.AperFunction,ComponentPad*%
%ADD16R,2.775000X2.775000*%
%TD*%
%TA.AperFunction,ComponentPad*%
%ADD17C,2.775000*%
%TD*%
%TA.AperFunction,ComponentPad*%
%ADD18R,1.700000X1.700000*%
%TD*%
%TA.AperFunction,ComponentPad*%
%ADD19C,1.700000*%
%TD*%
%TA.AperFunction,ViaPad*%
%ADD20C,0.600000*%
%TD*%
G04 APERTURE END LIST*
D10*
%TO.N,/M1*%
%TO.C,TP18*%
X193880000Y-75750000D03*
%TD*%
%TO.N,GND*%
%TO.C,TP27*%
X243890000Y-83278000D03*
%TD*%
%TO.N,/M4*%
%TO.C,TP21*%
X243890000Y-86872000D03*
%TD*%
%TO.N,/BAT+*%
%TO.C,TP25*%
X243890000Y-90466000D03*
%TD*%
D11*
%TO.N,/IO0*%
%TO.C,S1*%
X236450000Y-98450000D03*
D12*
X229950000Y-98450000D03*
%TO.N,GND*%
X236450000Y-102950000D03*
X229950000Y-102950000D03*
%TD*%
D10*
%TO.N,GND*%
%TO.C,TP29*%
X243890000Y-94060000D03*
%TD*%
%TO.N,/BAT+*%
%TO.C,TP22*%
X193570000Y-79420000D03*
%TD*%
D13*
%TO.N,/BAT+*%
%TO.C,J3*%
X204300000Y-86500000D03*
D14*
%TO.N,GND*%
X204300000Y-89000000D03*
%TD*%
D15*
%TO.N,GND*%
%TO.C,U1*%
X218100000Y-80260000D03*
X218100000Y-81660000D03*
X218800000Y-79560000D03*
X218800000Y-80960000D03*
X218800000Y-82360000D03*
X219500000Y-80260000D03*
X219500000Y-81660000D03*
X220200000Y-79560000D03*
X220200000Y-80960000D03*
X220200000Y-82360000D03*
X220900000Y-80260000D03*
X220900000Y-81660000D03*
%TD*%
D16*
%TO.N,Net-(U3-EN)*%
%TO.C,S2*%
X210300000Y-103000000D03*
D17*
%TO.N,/BAT+*%
X215000000Y-103000000D03*
%TO.N,unconnected-(S2-Pad3)*%
X219700000Y-103000000D03*
%TD*%
D10*
%TO.N,/BAT+*%
%TO.C,TP23*%
X243890000Y-79684000D03*
%TD*%
%TO.N,GND*%
%TO.C,TP28*%
X193650000Y-91264000D03*
%TD*%
%TO.N,/BAT+*%
%TO.C,TP24*%
X193650000Y-95190000D03*
%TD*%
D18*
%TO.N,/LED1*%
%TO.C,J8*%
X201760000Y-97590000D03*
D19*
%TO.N,/LED2*%
X204300000Y-97590000D03*
%TO.N,/LED3*%
X206840000Y-97590000D03*
%TO.N,/IO8*%
X209380000Y-97590000D03*
%TO.N,/USB_D-*%
X211920000Y-97590000D03*
%TO.N,/USB_D+*%
X214460000Y-97590000D03*
%TO.N,/IO10*%
X217000000Y-97590000D03*
%TO.N,/IO11*%
X219540000Y-97590000D03*
%TO.N,/IO12*%
X222080000Y-97590000D03*
%TO.N,/IO13*%
X224620000Y-97590000D03*
%TO.N,/IO42*%
X227160000Y-97590000D03*
%TD*%
D10*
%TO.N,GND*%
%TO.C,TP26*%
X193670000Y-83250000D03*
%TD*%
D18*
%TO.N,/IO14*%
%TO.C,J7*%
X239650000Y-100470000D03*
D19*
%TO.N,/IO21*%
X239650000Y-97930000D03*
%TO.N,/IO47*%
X239650000Y-95390000D03*
%TO.N,/IO48*%
X239650000Y-92850000D03*
%TO.N,/IO35*%
X239650000Y-90310000D03*
%TO.N,/IO36*%
X239650000Y-87770000D03*
%TO.N,/IO37*%
X239650000Y-85230000D03*
%TO.N,/IO38*%
X239650000Y-82690000D03*
%TO.N,/IO39*%
X239650000Y-80150000D03*
%TO.N,/IO49*%
X239650000Y-77610000D03*
%TO.N,/IO41*%
X239650000Y-75070000D03*
%TD*%
D11*
%TO.N,/EN*%
%TO.C,S3*%
X198850000Y-97750000D03*
D12*
X192350000Y-97750000D03*
%TO.N,GND*%
X198850000Y-102250000D03*
X192350000Y-102250000D03*
%TD*%
D18*
%TO.N,/RX1*%
%TO.C,J1*%
X235590000Y-94200000D03*
D19*
%TO.N,/TX1*%
X235590000Y-91660000D03*
%TD*%
D10*
%TO.N,/M2*%
%TO.C,TP20*%
X243890000Y-76090000D03*
%TD*%
%TO.N,/M3*%
%TO.C,TP19*%
X193650000Y-87338000D03*
%TD*%
D18*
%TO.N,+3V3*%
%TO.C,J4*%
X235500000Y-75150000D03*
D19*
%TO.N,/EN*%
X235500000Y-77690000D03*
%TO.N,/IO0*%
X235500000Y-80230000D03*
%TO.N,/TX0*%
X235500000Y-82770000D03*
%TO.N,/RX0*%
X235500000Y-85310000D03*
%TO.N,GND*%
X235500000Y-87850000D03*
%TD*%
%TO.N,unconnected-(U2-PadADO)*%
%TO.C,U2*%
X198602500Y-75832500D03*
%TO.N,GND*%
X198602500Y-88532500D03*
%TO.N,unconnected-(U2-PadINT)*%
X198602500Y-73292500D03*
%TO.N,/SCL*%
X198602500Y-85992500D03*
%TO.N,/SDA*%
X198602500Y-83452500D03*
%TO.N,+3V3*%
X198602500Y-91072500D03*
%TO.N,unconnected-(U2-PadXCL)*%
X198602500Y-78372500D03*
%TO.N,unconnected-(U2-PadXDA)*%
X198602500Y-80912500D03*
%TD*%
D20*
%TO.N,+3V3*%
X209110000Y-75380000D03*
%TO.N,GND*%
X213850000Y-95960000D03*
X204700000Y-77940000D03*
X205001000Y-82000000D03*
X207600000Y-93350000D03*
X229250000Y-94400000D03*
X206210000Y-73320000D03*
%TO.N,/SCL*%
X210500000Y-79070000D03*
%TO.N,/SDA*%
X210200000Y-77850000D03*
%TO.N,/EN*%
X209407500Y-76917500D03*
%TO.N,/TX1*%
X210540000Y-85950000D03*
%TO.N,/RX1*%
X210530000Y-87180000D03*
%TO.N,/LED1*%
X209586251Y-81386251D03*
X201900000Y-86500000D03*
%TO.N,/M1*%
X210670000Y-84710000D03*
%TO.N,/M3*%
X212870000Y-93950000D03*
%TO.N,/IO39*%
X232755000Y-81995000D03*
%TO.N,/IO38*%
X232920000Y-83921000D03*
%TO.N,/IO21*%
X225120000Y-94900000D03*
%TO.N,/IO49*%
X232295000Y-81205000D03*
%TO.N,/IO37*%
X231500000Y-86000000D03*
%TO.N,/IO48*%
X226715000Y-92630000D03*
%TO.N,/IO14*%
X238185735Y-97314265D03*
X230000000Y-97000000D03*
%TO.N,/IO47*%
X226390000Y-95000000D03*
%TO.N,/IO36*%
X231500000Y-87250000D03*
%TO.N,/IO42*%
X231430000Y-79850000D03*
X232860000Y-96140000D03*
X233453584Y-91140000D03*
%TO.N,/IO35*%
X231500000Y-88500000D03*
%TO.N,/IO41*%
X232200735Y-79310000D03*
%TO.N,Net-(U3-EN)*%
X200400000Y-92300000D03*
X202848765Y-82594765D03*
%TD*%
%TA.AperFunction,Conductor*%
%TO.N,GND*%
G36*
X198108230Y-71820185D02*
G01*
X198153985Y-71872989D01*
X198163929Y-71942147D01*
X198134904Y-72005703D01*
X198087738Y-72037047D01*
X198088581Y-72039082D01*
X198084089Y-72040941D01*
X197894679Y-72137451D01*
X197722713Y-72262390D01*
X197572390Y-72412713D01*
X197447451Y-72584679D01*
X197350944Y-72774085D01*
X197285253Y-72976260D01*
X197252000Y-73186213D01*
X197252000Y-73398787D01*
X197285254Y-73608743D01*
X197349317Y-73805909D01*
X197350944Y-73810914D01*
X197447451Y-74000320D01*
X197572390Y-74172286D01*
X197722713Y-74322609D01*
X197894682Y-74447550D01*
X197903446Y-74452016D01*
X197954242Y-74499991D01*
X197971036Y-74567812D01*
X197948498Y-74633947D01*
X197903446Y-74672984D01*
X197894682Y-74677449D01*
X197722713Y-74802390D01*
X197572390Y-74952713D01*
X197447451Y-75124679D01*
X197350944Y-75314085D01*
X197285253Y-75516260D01*
X197252000Y-75726213D01*
X197252000Y-75938786D01*
X197285098Y-76147763D01*
X197285254Y-76148743D01*
X197349123Y-76345312D01*
X197350944Y-76350914D01*
X197447451Y-76540320D01*
X197572390Y-76712286D01*
X197722713Y-76862609D01*
X197894682Y-76987550D01*
X197903446Y-76992016D01*
X197954242Y-77039991D01*
X197971036Y-77107812D01*
X197948498Y-77173947D01*
X197903446Y-77212984D01*
X197894682Y-77217449D01*
X197722713Y-77342390D01*
X197572390Y-77492713D01*
X197447451Y-77664679D01*
X197350944Y-77854085D01*
X197285253Y-78056260D01*
X197257867Y-78229171D01*
X197252000Y-78266213D01*
X197252000Y-78478787D01*
X197258070Y-78517112D01*
X197285169Y-78688211D01*
X197285254Y-78688743D01*
X197350177Y-78888556D01*
X197350944Y-78890914D01*
X197447451Y-79080320D01*
X197572390Y-79252286D01*
X197722713Y-79402609D01*
X197894682Y-79527550D01*
X197903446Y-79532016D01*
X197954242Y-79579991D01*
X197971036Y-79647812D01*
X197948498Y-79713947D01*
X197903446Y-79752984D01*
X197894682Y-79757449D01*
X197722713Y-79882390D01*
X197572390Y-80032713D01*
X197447451Y-80204679D01*
X197350944Y-80394085D01*
X197285253Y-80596260D01*
X197252000Y-80806213D01*
X197252000Y-81018786D01*
X197278246Y-81184500D01*
X197285254Y-81228743D01*
X197350177Y-81428556D01*
X197350944Y-81430914D01*
X197447451Y-81620320D01*
X197572390Y-81792286D01*
X197722713Y-81942609D01*
X197894682Y-82067550D01*
X197903446Y-82072016D01*
X197954242Y-82119991D01*
X197971036Y-82187812D01*
X197948498Y-82253947D01*
X197903446Y-82292984D01*
X197894682Y-82297449D01*
X197722713Y-82422390D01*
X197572390Y-82572713D01*
X197447451Y-82744679D01*
X197350944Y-82934085D01*
X197285253Y-83136260D01*
X197259444Y-83299211D01*
X197252000Y-83346213D01*
X197252000Y-83558787D01*
X197285254Y-83768743D01*
X197350177Y-83968556D01*
X197350944Y-83970914D01*
X197447451Y-84160320D01*
X197572390Y-84332286D01*
X197722713Y-84482609D01*
X197894682Y-84607550D01*
X197903446Y-84612016D01*
X197954242Y-84659991D01*
X197971036Y-84727812D01*
X197948498Y-84793947D01*
X197903446Y-84832984D01*
X197894682Y-84837449D01*
X197722713Y-84962390D01*
X197572390Y-85112713D01*
X197447451Y-85284679D01*
X197350944Y-85474085D01*
X197285253Y-85676260D01*
X197252000Y-85886213D01*
X197252000Y-86098786D01*
X197282306Y-86290135D01*
X197285254Y-86308743D01*
X197350740Y-86510288D01*
X197350944Y-86510914D01*
X197447451Y-86700320D01*
X197572390Y-86872286D01*
X197722713Y-87022609D01*
X197894679Y-87147548D01*
X197894681Y-87147549D01*
X197894684Y-87147551D01*
X198084088Y-87244057D01*
X198286257Y-87309746D01*
X198496213Y-87343000D01*
X198496214Y-87343000D01*
X198708786Y-87343000D01*
X198708787Y-87343000D01*
X198918743Y-87309746D01*
X199120912Y-87244057D01*
X199310316Y-87147551D01*
X199382556Y-87095066D01*
X199482286Y-87022609D01*
X199482288Y-87022606D01*
X199482292Y-87022604D01*
X199632604Y-86872292D01*
X199632606Y-86872288D01*
X199632609Y-86872286D01*
X199757548Y-86700320D01*
X199757547Y-86700320D01*
X199757551Y-86700316D01*
X199854057Y-86510912D01*
X199883222Y-86421153D01*
X201099500Y-86421153D01*
X201099500Y-86578846D01*
X201130261Y-86733489D01*
X201130264Y-86733501D01*
X201190602Y-86879172D01*
X201190609Y-86879185D01*
X201278210Y-87010288D01*
X201278213Y-87010292D01*
X201389707Y-87121786D01*
X201389711Y-87121789D01*
X201520814Y-87209390D01*
X201520827Y-87209397D01*
X201666498Y-87269735D01*
X201666503Y-87269737D01*
X201821153Y-87300499D01*
X201821156Y-87300500D01*
X201821158Y-87300500D01*
X201978844Y-87300500D01*
X201978845Y-87300499D01*
X202133497Y-87269737D01*
X202279179Y-87209394D01*
X202410289Y-87121789D01*
X202521789Y-87010289D01*
X202572399Y-86934544D01*
X202626009Y-86889742D01*
X202695334Y-86881033D01*
X202758362Y-86911188D01*
X202795081Y-86970630D01*
X202799500Y-87003436D01*
X202799500Y-87150001D01*
X202799501Y-87150018D01*
X202810000Y-87252796D01*
X202810001Y-87252799D01*
X202835201Y-87328846D01*
X202865186Y-87419334D01*
X202957288Y-87568656D01*
X203081344Y-87692712D01*
X203230666Y-87784814D01*
X203397203Y-87839999D01*
X203499991Y-87850500D01*
X205100008Y-87850499D01*
X205202797Y-87839999D01*
X205369334Y-87784814D01*
X205518656Y-87692712D01*
X205642712Y-87568656D01*
X205734814Y-87419334D01*
X205789999Y-87252797D01*
X205800500Y-87150009D01*
X205800500Y-87101153D01*
X209729500Y-87101153D01*
X209729500Y-87258846D01*
X209760261Y-87413489D01*
X209760264Y-87413501D01*
X209820602Y-87559172D01*
X209820609Y-87559185D01*
X209908210Y-87690288D01*
X209908213Y-87690292D01*
X210019707Y-87801786D01*
X210019711Y-87801789D01*
X210150814Y-87889390D01*
X210150827Y-87889397D01*
X210296498Y-87949735D01*
X210296503Y-87949737D01*
X210446045Y-87979483D01*
X210451153Y-87980499D01*
X210451156Y-87980500D01*
X210451158Y-87980500D01*
X210608844Y-87980500D01*
X210608845Y-87980499D01*
X210763497Y-87949737D01*
X210909179Y-87889394D01*
X211040289Y-87801789D01*
X211151789Y-87690289D01*
X211239394Y-87559179D01*
X211299737Y-87413497D01*
X211330500Y-87258842D01*
X211330500Y-87101158D01*
X211330500Y-87101155D01*
X211330499Y-87101153D01*
X211329288Y-87095066D01*
X211299737Y-86946503D01*
X211268996Y-86872286D01*
X211239397Y-86800827D01*
X211239390Y-86800814D01*
X211151789Y-86669711D01*
X211151786Y-86669707D01*
X211139759Y-86657680D01*
X211106274Y-86596357D01*
X211111258Y-86526665D01*
X211139758Y-86482319D01*
X211161789Y-86460289D01*
X211249394Y-86329179D01*
X211309737Y-86183497D01*
X211340500Y-86028842D01*
X211340500Y-85921153D01*
X230699500Y-85921153D01*
X230699500Y-86078846D01*
X230730261Y-86233489D01*
X230730264Y-86233501D01*
X230790602Y-86379172D01*
X230790609Y-86379185D01*
X230878210Y-86510288D01*
X230878213Y-86510292D01*
X230905240Y-86537319D01*
X230938725Y-86598642D01*
X230933741Y-86668334D01*
X230905240Y-86712681D01*
X230878213Y-86739707D01*
X230878210Y-86739711D01*
X230790609Y-86870814D01*
X230790602Y-86870827D01*
X230730264Y-87016498D01*
X230730261Y-87016510D01*
X230699500Y-87171153D01*
X230699500Y-87328846D01*
X230730261Y-87483489D01*
X230730264Y-87483501D01*
X230790602Y-87629172D01*
X230790609Y-87629185D01*
X230878210Y-87760288D01*
X230878213Y-87760292D01*
X230905240Y-87787319D01*
X230938725Y-87848642D01*
X230933741Y-87918334D01*
X230905240Y-87962681D01*
X230878213Y-87989707D01*
X230878210Y-87989711D01*
X230790609Y-88120814D01*
X230790602Y-88120827D01*
X230730264Y-88266498D01*
X230730261Y-88266510D01*
X230699500Y-88421153D01*
X230699500Y-88578846D01*
X230730261Y-88733489D01*
X230730264Y-88733501D01*
X230790602Y-88879172D01*
X230790609Y-88879185D01*
X230878210Y-89010288D01*
X230878213Y-89010292D01*
X230989707Y-89121786D01*
X230989711Y-89121789D01*
X231120814Y-89209390D01*
X231120827Y-89209397D01*
X231266498Y-89269735D01*
X231266503Y-89269737D01*
X231421153Y-89300499D01*
X231421156Y-89300500D01*
X231421158Y-89300500D01*
X231578844Y-89300500D01*
X231578845Y-89300499D01*
X231733497Y-89269737D01*
X231879179Y-89209394D01*
X232010289Y-89121789D01*
X232121789Y-89010289D01*
X232209394Y-88879179D01*
X232269737Y-88733497D01*
X232300500Y-88578842D01*
X232300500Y-88421158D01*
X232300500Y-88421155D01*
X232300499Y-88421153D01*
X232293481Y-88385870D01*
X232269737Y-88266503D01*
X232257230Y-88236308D01*
X232209397Y-88120827D01*
X232209390Y-88120814D01*
X232121789Y-87989711D01*
X232121786Y-87989707D01*
X232094760Y-87962681D01*
X232061275Y-87901358D01*
X232066259Y-87831666D01*
X232094760Y-87787319D01*
X232121786Y-87760292D01*
X232121789Y-87760289D01*
X232209394Y-87629179D01*
X232269737Y-87483497D01*
X232300500Y-87328842D01*
X232300500Y-87171158D01*
X232300500Y-87171155D01*
X232300499Y-87171153D01*
X232285364Y-87095066D01*
X232269737Y-87016503D01*
X232240745Y-86946510D01*
X232209397Y-86870827D01*
X232209390Y-86870814D01*
X232121789Y-86739711D01*
X232121786Y-86739707D01*
X232094760Y-86712681D01*
X232061275Y-86651358D01*
X232066259Y-86581666D01*
X232094760Y-86537319D01*
X232121786Y-86510292D01*
X232121789Y-86510289D01*
X232209394Y-86379179D01*
X232269737Y-86233497D01*
X232300500Y-86078842D01*
X232300500Y-85921158D01*
X232300500Y-85921155D01*
X232300499Y-85921153D01*
X232282052Y-85828414D01*
X232269737Y-85766503D01*
X232261743Y-85747203D01*
X232209397Y-85620827D01*
X232209390Y-85620814D01*
X232121789Y-85489711D01*
X232121786Y-85489707D01*
X232010292Y-85378213D01*
X232010288Y-85378210D01*
X231879185Y-85290609D01*
X231879172Y-85290602D01*
X231733501Y-85230264D01*
X231733489Y-85230261D01*
X231578845Y-85199500D01*
X231578842Y-85199500D01*
X231421158Y-85199500D01*
X231421155Y-85199500D01*
X231266510Y-85230261D01*
X231266498Y-85230264D01*
X231120827Y-85290602D01*
X231120814Y-85290609D01*
X230989711Y-85378210D01*
X230989707Y-85378213D01*
X230878213Y-85489707D01*
X230878210Y-85489711D01*
X230790609Y-85620814D01*
X230790602Y-85620827D01*
X230730264Y-85766498D01*
X230730261Y-85766510D01*
X230699500Y-85921153D01*
X211340500Y-85921153D01*
X211340500Y-85871158D01*
X211340500Y-85871155D01*
X211340499Y-85871153D01*
X211331143Y-85824116D01*
X211309737Y-85716503D01*
X211293067Y-85676257D01*
X211249397Y-85570827D01*
X211249390Y-85570814D01*
X211182509Y-85470720D01*
X211161631Y-85404043D01*
X211180115Y-85336662D01*
X211197926Y-85314151D01*
X211291789Y-85220289D01*
X211379394Y-85089179D01*
X211439737Y-84943497D01*
X211470500Y-84788842D01*
X211470500Y-84631158D01*
X211470500Y-84631155D01*
X211470499Y-84631153D01*
X211452922Y-84542789D01*
X211439737Y-84476503D01*
X211421009Y-84431289D01*
X211379397Y-84330827D01*
X211379390Y-84330814D01*
X211291789Y-84199711D01*
X211291786Y-84199707D01*
X211180292Y-84088213D01*
X211180288Y-84088210D01*
X211049185Y-84000609D01*
X211049172Y-84000602D01*
X210928519Y-83950627D01*
X210903501Y-83940264D01*
X210903489Y-83940261D01*
X210748845Y-83909500D01*
X210748842Y-83909500D01*
X210591158Y-83909500D01*
X210591155Y-83909500D01*
X210436510Y-83940261D01*
X210436498Y-83940264D01*
X210290827Y-84000602D01*
X210290814Y-84000609D01*
X210159711Y-84088210D01*
X210159707Y-84088213D01*
X210048213Y-84199707D01*
X210048210Y-84199711D01*
X209960609Y-84330814D01*
X209960602Y-84330827D01*
X209900264Y-84476498D01*
X209900261Y-84476510D01*
X209869500Y-84631153D01*
X209869500Y-84788846D01*
X209900261Y-84943489D01*
X209900264Y-84943501D01*
X209960602Y-85089172D01*
X209960609Y-85089185D01*
X210027490Y-85189279D01*
X210048368Y-85255957D01*
X210029883Y-85323337D01*
X210012070Y-85345851D01*
X209918210Y-85439711D01*
X209830609Y-85570814D01*
X209830602Y-85570827D01*
X209770264Y-85716498D01*
X209770261Y-85716510D01*
X209739500Y-85871153D01*
X209739500Y-86028846D01*
X209770261Y-86183489D01*
X209770264Y-86183501D01*
X209830602Y-86329172D01*
X209830609Y-86329185D01*
X209918210Y-86460288D01*
X209918213Y-86460292D01*
X209930240Y-86472319D01*
X209963725Y-86533642D01*
X209958741Y-86603334D01*
X209930240Y-86647681D01*
X209908213Y-86669707D01*
X209908210Y-86669711D01*
X209820609Y-86800814D01*
X209820602Y-86800827D01*
X209760264Y-86946498D01*
X209760261Y-86946510D01*
X209729500Y-87101153D01*
X205800500Y-87101153D01*
X205800499Y-86500000D01*
X205800499Y-85849998D01*
X205800498Y-85849981D01*
X205789999Y-85747203D01*
X205789998Y-85747200D01*
X205774192Y-85699500D01*
X205734814Y-85580666D01*
X205642712Y-85431344D01*
X205518656Y-85307288D01*
X205425888Y-85250069D01*
X205369336Y-85215187D01*
X205369331Y-85215185D01*
X205367862Y-85214698D01*
X205202797Y-85160001D01*
X205202795Y-85160000D01*
X205100010Y-85149500D01*
X203499998Y-85149500D01*
X203499981Y-85149501D01*
X203397203Y-85160000D01*
X203397200Y-85160001D01*
X203230668Y-85215185D01*
X203230663Y-85215187D01*
X203081342Y-85307289D01*
X202957289Y-85431342D01*
X202865187Y-85580663D01*
X202865185Y-85580668D01*
X202848948Y-85629669D01*
X202810001Y-85747203D01*
X202810001Y-85747204D01*
X202810000Y-85747204D01*
X202799500Y-85849983D01*
X202799500Y-85996561D01*
X202779815Y-86063600D01*
X202727011Y-86109355D01*
X202657853Y-86119299D01*
X202594297Y-86090274D01*
X202572398Y-86065452D01*
X202521789Y-85989711D01*
X202521786Y-85989707D01*
X202410292Y-85878213D01*
X202410288Y-85878210D01*
X202279185Y-85790609D01*
X202279172Y-85790602D01*
X202133501Y-85730264D01*
X202133489Y-85730261D01*
X201978845Y-85699500D01*
X201978842Y-85699500D01*
X201821158Y-85699500D01*
X201821155Y-85699500D01*
X201666510Y-85730261D01*
X201666498Y-85730264D01*
X201520827Y-85790602D01*
X201520814Y-85790609D01*
X201389711Y-85878210D01*
X201389707Y-85878213D01*
X201278213Y-85989707D01*
X201278210Y-85989711D01*
X201190609Y-86120814D01*
X201190602Y-86120827D01*
X201130264Y-86266498D01*
X201130261Y-86266510D01*
X201099500Y-86421153D01*
X199883222Y-86421153D01*
X199919746Y-86308743D01*
X199953000Y-86098787D01*
X199953000Y-85886213D01*
X199919746Y-85676257D01*
X199854057Y-85474088D01*
X199757551Y-85284684D01*
X199757549Y-85284681D01*
X199757548Y-85284679D01*
X199632609Y-85112713D01*
X199482286Y-84962390D01*
X199310320Y-84837451D01*
X199309615Y-84837091D01*
X199301554Y-84832985D01*
X199250759Y-84785012D01*
X199233963Y-84717192D01*
X199256499Y-84651056D01*
X199301554Y-84612015D01*
X199310316Y-84607551D01*
X199399458Y-84542786D01*
X199482286Y-84482609D01*
X199482288Y-84482606D01*
X199482292Y-84482604D01*
X199632604Y-84332292D01*
X199632606Y-84332288D01*
X199632609Y-84332286D01*
X199757548Y-84160320D01*
X199757547Y-84160320D01*
X199757551Y-84160316D01*
X199854057Y-83970912D01*
X199895894Y-83842153D01*
X232119500Y-83842153D01*
X232119500Y-83999846D01*
X232150261Y-84154489D01*
X232150264Y-84154501D01*
X232210602Y-84300172D01*
X232210609Y-84300185D01*
X232298210Y-84431288D01*
X232298213Y-84431292D01*
X232409707Y-84542786D01*
X232409711Y-84542789D01*
X232540814Y-84630390D01*
X232540827Y-84630397D01*
X232686498Y-84690735D01*
X232686503Y-84690737D01*
X232841153Y-84721499D01*
X232841156Y-84721500D01*
X232841158Y-84721500D01*
X232998844Y-84721500D01*
X232998845Y-84721499D01*
X233153497Y-84690737D01*
X233299179Y-84630394D01*
X233430289Y-84542789D01*
X233541789Y-84431289D01*
X233629394Y-84300179D01*
X233689737Y-84154497D01*
X233720500Y-83999842D01*
X233720500Y-83842158D01*
X233720500Y-83842155D01*
X233720499Y-83842153D01*
X233705896Y-83768739D01*
X233689737Y-83687503D01*
X233640980Y-83569792D01*
X233629397Y-83541827D01*
X233629390Y-83541814D01*
X233541789Y-83410711D01*
X233541786Y-83410707D01*
X233430292Y-83299213D01*
X233430288Y-83299210D01*
X233299185Y-83211609D01*
X233299172Y-83211602D01*
X233153501Y-83151264D01*
X233153489Y-83151261D01*
X232998845Y-83120500D01*
X232998842Y-83120500D01*
X232841158Y-83120500D01*
X232841155Y-83120500D01*
X232686510Y-83151261D01*
X232686498Y-83151264D01*
X232540827Y-83211602D01*
X232540814Y-83211609D01*
X232409711Y-83299210D01*
X232409707Y-83299213D01*
X232298213Y-83410707D01*
X232298210Y-83410711D01*
X232210609Y-83541814D01*
X232210602Y-83541827D01*
X232150264Y-83687498D01*
X232150261Y-83687510D01*
X232119500Y-83842153D01*
X199895894Y-83842153D01*
X199919746Y-83768743D01*
X199953000Y-83558787D01*
X199953000Y-83346213D01*
X199919746Y-83136257D01*
X199854057Y-82934088D01*
X199757551Y-82744684D01*
X199705914Y-82673611D01*
X199639876Y-82582716D01*
X199639875Y-82582715D01*
X199632607Y-82572711D01*
X199575814Y-82515918D01*
X202048265Y-82515918D01*
X202048265Y-82673611D01*
X202079026Y-82828254D01*
X202079029Y-82828266D01*
X202139367Y-82973937D01*
X202139374Y-82973950D01*
X202226975Y-83105053D01*
X202226978Y-83105057D01*
X202338472Y-83216551D01*
X202338476Y-83216554D01*
X202469579Y-83304155D01*
X202469592Y-83304162D01*
X202571114Y-83346213D01*
X202615268Y-83364502D01*
X202769918Y-83395264D01*
X202769921Y-83395265D01*
X202769923Y-83395265D01*
X202927609Y-83395265D01*
X202927610Y-83395264D01*
X203082262Y-83364502D01*
X203227944Y-83304159D01*
X203359054Y-83216554D01*
X203470554Y-83105054D01*
X203558159Y-82973944D01*
X203618502Y-82828262D01*
X203649265Y-82673607D01*
X203649265Y-82515923D01*
X203649265Y-82515920D01*
X203649264Y-82515918D01*
X203621070Y-82374179D01*
X203618502Y-82361268D01*
X203618500Y-82361263D01*
X203558162Y-82215592D01*
X203558155Y-82215579D01*
X203470554Y-82084476D01*
X203470551Y-82084472D01*
X203359057Y-81972978D01*
X203359053Y-81972975D01*
X203227950Y-81885374D01*
X203227937Y-81885367D01*
X203082266Y-81825029D01*
X203082254Y-81825026D01*
X202927610Y-81794265D01*
X202927607Y-81794265D01*
X202769923Y-81794265D01*
X202769920Y-81794265D01*
X202615275Y-81825026D01*
X202615263Y-81825029D01*
X202469592Y-81885367D01*
X202469579Y-81885374D01*
X202338476Y-81972975D01*
X202338472Y-81972978D01*
X202226978Y-82084472D01*
X202226975Y-82084476D01*
X202139374Y-82215579D01*
X202139367Y-82215592D01*
X202079029Y-82361263D01*
X202079026Y-82361275D01*
X202048265Y-82515918D01*
X199575814Y-82515918D01*
X199482286Y-82422390D01*
X199310320Y-82297451D01*
X199309615Y-82297091D01*
X199301554Y-82292985D01*
X199250759Y-82245012D01*
X199233963Y-82177192D01*
X199256499Y-82111056D01*
X199301554Y-82072015D01*
X199310316Y-82067551D01*
X199332289Y-82051586D01*
X199482286Y-81942609D01*
X199482288Y-81942606D01*
X199482292Y-81942604D01*
X199632604Y-81792292D01*
X199632606Y-81792288D01*
X199632609Y-81792286D01*
X199757548Y-81620320D01*
X199757547Y-81620320D01*
X199757551Y-81620316D01*
X199854057Y-81430912D01*
X199894187Y-81307404D01*
X208785751Y-81307404D01*
X208785751Y-81465097D01*
X208816512Y-81619740D01*
X208816515Y-81619752D01*
X208876853Y-81765423D01*
X208876860Y-81765436D01*
X208964461Y-81896539D01*
X208964464Y-81896543D01*
X209075958Y-82008037D01*
X209075962Y-82008040D01*
X209207065Y-82095641D01*
X209207078Y-82095648D01*
X209352749Y-82155986D01*
X209352754Y-82155988D01*
X209486038Y-82182500D01*
X209507404Y-82186750D01*
X209507407Y-82186751D01*
X209507409Y-82186751D01*
X209665095Y-82186751D01*
X209665096Y-82186750D01*
X209819748Y-82155988D01*
X209965430Y-82095645D01*
X210096540Y-82008040D01*
X210208040Y-81896540D01*
X210295645Y-81765430D01*
X210355988Y-81619748D01*
X210386751Y-81465093D01*
X210386751Y-81307409D01*
X210386751Y-81307406D01*
X210386750Y-81307404D01*
X210377341Y-81260104D01*
X210355988Y-81152754D01*
X210344972Y-81126158D01*
X210295648Y-81007078D01*
X210295641Y-81007065D01*
X210208040Y-80875962D01*
X210208037Y-80875958D01*
X210096543Y-80764464D01*
X210096539Y-80764461D01*
X209965436Y-80676860D01*
X209965423Y-80676853D01*
X209819752Y-80616515D01*
X209819740Y-80616512D01*
X209665096Y-80585751D01*
X209665093Y-80585751D01*
X209507409Y-80585751D01*
X209507406Y-80585751D01*
X209352761Y-80616512D01*
X209352749Y-80616515D01*
X209207078Y-80676853D01*
X209207065Y-80676860D01*
X209075962Y-80764461D01*
X209075958Y-80764464D01*
X208964464Y-80875958D01*
X208964461Y-80875962D01*
X208876860Y-81007065D01*
X208876853Y-81007078D01*
X208816515Y-81152749D01*
X208816512Y-81152761D01*
X208785751Y-81307404D01*
X199894187Y-81307404D01*
X199919746Y-81228743D01*
X199953000Y-81018787D01*
X199953000Y-80806213D01*
X199919746Y-80596257D01*
X199854057Y-80394088D01*
X199757551Y-80204684D01*
X199757549Y-80204681D01*
X199757548Y-80204679D01*
X199632609Y-80032713D01*
X199482286Y-79882390D01*
X199310320Y-79757451D01*
X199309615Y-79757091D01*
X199301554Y-79752985D01*
X199250759Y-79705012D01*
X199233963Y-79637192D01*
X199256499Y-79571056D01*
X199301554Y-79532015D01*
X199310316Y-79527551D01*
X199332289Y-79511586D01*
X199482286Y-79402609D01*
X199482288Y-79402606D01*
X199482292Y-79402604D01*
X199632604Y-79252292D01*
X199632606Y-79252288D01*
X199632609Y-79252286D01*
X199757548Y-79080320D01*
X199757547Y-79080320D01*
X199757551Y-79080316D01*
X199854057Y-78890912D01*
X199919746Y-78688743D01*
X199953000Y-78478787D01*
X199953000Y-78266213D01*
X199919746Y-78056257D01*
X199854057Y-77854088D01*
X199757551Y-77664684D01*
X199757549Y-77664681D01*
X199757548Y-77664679D01*
X199632609Y-77492713D01*
X199482286Y-77342390D01*
X199310320Y-77217451D01*
X199309615Y-77217091D01*
X199301554Y-77212985D01*
X199250759Y-77165012D01*
X199233963Y-77097192D01*
X199256499Y-77031056D01*
X199301554Y-76992015D01*
X199310316Y-76987551D01*
X199384513Y-76933644D01*
X199482286Y-76862609D01*
X199482288Y-76862606D01*
X199482292Y-76862604D01*
X199632604Y-76712292D01*
X199632606Y-76712288D01*
X199632609Y-76712286D01*
X199757548Y-76540320D01*
X199757547Y-76540320D01*
X199757551Y-76540316D01*
X199854057Y-76350912D01*
X199919746Y-76148743D01*
X199953000Y-75938787D01*
X199953000Y-75726213D01*
X199919746Y-75516257D01*
X199854057Y-75314088D01*
X199847466Y-75301153D01*
X208309500Y-75301153D01*
X208309500Y-75458846D01*
X208340261Y-75613489D01*
X208340264Y-75613501D01*
X208400602Y-75759172D01*
X208400609Y-75759185D01*
X208488210Y-75890288D01*
X208488213Y-75890292D01*
X208599707Y-76001786D01*
X208599711Y-76001789D01*
X208730814Y-76089390D01*
X208730823Y-76089395D01*
X208822911Y-76127539D01*
X208877314Y-76171380D01*
X208899379Y-76237674D01*
X208882100Y-76305373D01*
X208863140Y-76329781D01*
X208785710Y-76407211D01*
X208698109Y-76538314D01*
X208698102Y-76538327D01*
X208637764Y-76683998D01*
X208637761Y-76684010D01*
X208607000Y-76838653D01*
X208607000Y-76996346D01*
X208637761Y-77150989D01*
X208637764Y-77151001D01*
X208698102Y-77296672D01*
X208698109Y-77296685D01*
X208785710Y-77427788D01*
X208785713Y-77427792D01*
X208897207Y-77539286D01*
X208897211Y-77539289D01*
X209028314Y-77626890D01*
X209028327Y-77626897D01*
X209173998Y-77687235D01*
X209174003Y-77687237D01*
X209299691Y-77712238D01*
X209361602Y-77744622D01*
X209396176Y-77805338D01*
X209399500Y-77833855D01*
X209399500Y-77928846D01*
X209430261Y-78083489D01*
X209430264Y-78083501D01*
X209490602Y-78229172D01*
X209490609Y-78229185D01*
X209578210Y-78360288D01*
X209578213Y-78360292D01*
X209689707Y-78471786D01*
X209689711Y-78471789D01*
X209757541Y-78517112D01*
X209802346Y-78570724D01*
X209811053Y-78640049D01*
X209793242Y-78685320D01*
X209793479Y-78685447D01*
X209792394Y-78687476D01*
X209791756Y-78689099D01*
X209790611Y-78690812D01*
X209790602Y-78690828D01*
X209730264Y-78836498D01*
X209730261Y-78836510D01*
X209699500Y-78991153D01*
X209699500Y-79148846D01*
X209730261Y-79303489D01*
X209730264Y-79303501D01*
X209790602Y-79449172D01*
X209790609Y-79449185D01*
X209878210Y-79580288D01*
X209878213Y-79580292D01*
X209989707Y-79691786D01*
X209989711Y-79691789D01*
X210120814Y-79779390D01*
X210120827Y-79779397D01*
X210219558Y-79820292D01*
X210266503Y-79839737D01*
X210421153Y-79870499D01*
X210421156Y-79870500D01*
X210421158Y-79870500D01*
X210578844Y-79870500D01*
X210578845Y-79870499D01*
X210733497Y-79839737D01*
X210879179Y-79779394D01*
X210891513Y-79771153D01*
X230629500Y-79771153D01*
X230629500Y-79928846D01*
X230660261Y-80083489D01*
X230660264Y-80083501D01*
X230720602Y-80229172D01*
X230720609Y-80229185D01*
X230808210Y-80360288D01*
X230808213Y-80360292D01*
X230919707Y-80471786D01*
X230919711Y-80471789D01*
X231050814Y-80559390D01*
X231050827Y-80559397D01*
X231188717Y-80616512D01*
X231196503Y-80619737D01*
X231351153Y-80650499D01*
X231351156Y-80650500D01*
X231472647Y-80650500D01*
X231539686Y-80670185D01*
X231585441Y-80722989D01*
X231595385Y-80792147D01*
X231587208Y-80821952D01*
X231525264Y-80971498D01*
X231525261Y-80971510D01*
X231494500Y-81126153D01*
X231494500Y-81283846D01*
X231525261Y-81438489D01*
X231525264Y-81438501D01*
X231585602Y-81584172D01*
X231585609Y-81584185D01*
X231673210Y-81715288D01*
X231673213Y-81715292D01*
X231784708Y-81826787D01*
X231784711Y-81826789D01*
X231899392Y-81903416D01*
X231944196Y-81957026D01*
X231954500Y-82006517D01*
X231954500Y-82073846D01*
X231985261Y-82228489D01*
X231985264Y-82228501D01*
X232045602Y-82374172D01*
X232045609Y-82374185D01*
X232133210Y-82505288D01*
X232133213Y-82505292D01*
X232244707Y-82616786D01*
X232244711Y-82616789D01*
X232375814Y-82704390D01*
X232375827Y-82704397D01*
X232473090Y-82744684D01*
X232521503Y-82764737D01*
X232676153Y-82795499D01*
X232676156Y-82795500D01*
X232676158Y-82795500D01*
X232833844Y-82795500D01*
X232833845Y-82795499D01*
X232988497Y-82764737D01*
X233134179Y-82704394D01*
X233265289Y-82616789D01*
X233376789Y-82505289D01*
X233464394Y-82374179D01*
X233524737Y-82228497D01*
X233555500Y-82073842D01*
X233555500Y-81916158D01*
X233555500Y-81916155D01*
X233555499Y-81916153D01*
X233551598Y-81896540D01*
X233524737Y-81761503D01*
X233505594Y-81715288D01*
X233464397Y-81615827D01*
X233464390Y-81615814D01*
X233376789Y-81484711D01*
X233376786Y-81484707D01*
X233265292Y-81373213D01*
X233265288Y-81373210D01*
X233150609Y-81296584D01*
X233105804Y-81242972D01*
X233095500Y-81193482D01*
X233095500Y-81126155D01*
X233095499Y-81126153D01*
X233079996Y-81048215D01*
X233064737Y-80971503D01*
X233050785Y-80937820D01*
X233004397Y-80825827D01*
X233004390Y-80825814D01*
X232916789Y-80694711D01*
X232916786Y-80694707D01*
X232805292Y-80583213D01*
X232805288Y-80583210D01*
X232674185Y-80495609D01*
X232674172Y-80495602D01*
X232528501Y-80435264D01*
X232528489Y-80435261D01*
X232373845Y-80404500D01*
X232373842Y-80404500D01*
X232252353Y-80404500D01*
X232220883Y-80395259D01*
X232189081Y-80387143D01*
X232187515Y-80385461D01*
X232185314Y-80384815D01*
X232163839Y-80360032D01*
X232141470Y-80336006D01*
X232141062Y-80333745D01*
X232139559Y-80332011D01*
X232134890Y-80299542D01*
X232129063Y-80267247D01*
X232129820Y-80264280D01*
X232129615Y-80262853D01*
X232137791Y-80233049D01*
X232149542Y-80204679D01*
X232156845Y-80187047D01*
X232200684Y-80132645D01*
X232266978Y-80110579D01*
X232271406Y-80110500D01*
X232279579Y-80110500D01*
X232279580Y-80110499D01*
X232434232Y-80079737D01*
X232579914Y-80019394D01*
X232711024Y-79931789D01*
X232822524Y-79820289D01*
X232910129Y-79689179D01*
X232970472Y-79543497D01*
X233001235Y-79388842D01*
X233001235Y-79231158D01*
X233001235Y-79231155D01*
X233001234Y-79231153D01*
X233000649Y-79228210D01*
X232970472Y-79076503D01*
X232959287Y-79049500D01*
X232910132Y-78930827D01*
X232910125Y-78930814D01*
X232822524Y-78799711D01*
X232822521Y-78799707D01*
X232711027Y-78688213D01*
X232711023Y-78688210D01*
X232579920Y-78600609D01*
X232579907Y-78600602D01*
X232434236Y-78540264D01*
X232434224Y-78540261D01*
X232279580Y-78509500D01*
X232279577Y-78509500D01*
X232121893Y-78509500D01*
X232121890Y-78509500D01*
X231967245Y-78540261D01*
X231967233Y-78540264D01*
X231821562Y-78600602D01*
X231821549Y-78600609D01*
X231690446Y-78688210D01*
X231690442Y-78688213D01*
X231578948Y-78799707D01*
X231578945Y-78799711D01*
X231491344Y-78930814D01*
X231491340Y-78930821D01*
X231481453Y-78954692D01*
X231473889Y-78972952D01*
X231430051Y-79027355D01*
X231363757Y-79049421D01*
X231359329Y-79049500D01*
X231351155Y-79049500D01*
X231196510Y-79080261D01*
X231196498Y-79080264D01*
X231050827Y-79140602D01*
X231050814Y-79140609D01*
X230919711Y-79228210D01*
X230919707Y-79228213D01*
X230808213Y-79339707D01*
X230808210Y-79339711D01*
X230720609Y-79470814D01*
X230720602Y-79470827D01*
X230660264Y-79616498D01*
X230660261Y-79616510D01*
X230629500Y-79771153D01*
X210891513Y-79771153D01*
X211010289Y-79691789D01*
X211012906Y-79689172D01*
X211024694Y-79677385D01*
X211121786Y-79580292D01*
X211121789Y-79580289D01*
X211209394Y-79449179D01*
X211212294Y-79442179D01*
X211228686Y-79402604D01*
X211269737Y-79303497D01*
X211300500Y-79148842D01*
X211300500Y-78991158D01*
X211300500Y-78991155D01*
X211300499Y-78991153D01*
X211288497Y-78930814D01*
X211269737Y-78836503D01*
X211258161Y-78808556D01*
X211209397Y-78690827D01*
X211209390Y-78690814D01*
X211121789Y-78559711D01*
X211121786Y-78559707D01*
X211010292Y-78448213D01*
X211010288Y-78448210D01*
X210942458Y-78402887D01*
X210897653Y-78349275D01*
X210888946Y-78279949D01*
X210906761Y-78234672D01*
X210906525Y-78234546D01*
X210907611Y-78232513D01*
X210908249Y-78230891D01*
X210909394Y-78229179D01*
X210969737Y-78083497D01*
X211000500Y-77928842D01*
X211000500Y-77771158D01*
X211000500Y-77771155D01*
X211000499Y-77771153D01*
X210983807Y-77687237D01*
X210969737Y-77616503D01*
X210958966Y-77590499D01*
X210909397Y-77470827D01*
X210909390Y-77470814D01*
X210821789Y-77339711D01*
X210821786Y-77339707D01*
X210710292Y-77228213D01*
X210710288Y-77228210D01*
X210579185Y-77140609D01*
X210579172Y-77140602D01*
X210433501Y-77080264D01*
X210433491Y-77080261D01*
X210307808Y-77055261D01*
X210245897Y-77022876D01*
X210211323Y-76962160D01*
X210208000Y-76933644D01*
X210208000Y-76838655D01*
X210207999Y-76838653D01*
X210199887Y-76797870D01*
X210177237Y-76684003D01*
X210167252Y-76659896D01*
X210116897Y-76538327D01*
X210116890Y-76538314D01*
X210029289Y-76407211D01*
X210029286Y-76407207D01*
X209917792Y-76295713D01*
X209917788Y-76295710D01*
X209786685Y-76208109D01*
X209786675Y-76208104D01*
X209694588Y-76169960D01*
X209640185Y-76126119D01*
X209618120Y-76059824D01*
X209635399Y-75992125D01*
X209654356Y-75967721D01*
X209731789Y-75890289D01*
X209819394Y-75759179D01*
X209879737Y-75613497D01*
X209910500Y-75458842D01*
X209910500Y-75301158D01*
X209910500Y-75301155D01*
X209910499Y-75301153D01*
X209879738Y-75146510D01*
X209879737Y-75146503D01*
X209836504Y-75042128D01*
X209819397Y-75000827D01*
X209819390Y-75000814D01*
X209731789Y-74869711D01*
X209731786Y-74869707D01*
X209620292Y-74758213D01*
X209620288Y-74758210D01*
X209489185Y-74670609D01*
X209489172Y-74670602D01*
X209343501Y-74610264D01*
X209343489Y-74610261D01*
X209188845Y-74579500D01*
X209188842Y-74579500D01*
X209031158Y-74579500D01*
X209031155Y-74579500D01*
X208876510Y-74610261D01*
X208876498Y-74610264D01*
X208730827Y-74670602D01*
X208730814Y-74670609D01*
X208599711Y-74758210D01*
X208599707Y-74758213D01*
X208488213Y-74869707D01*
X208488210Y-74869711D01*
X208400609Y-75000814D01*
X208400602Y-75000827D01*
X208340264Y-75146498D01*
X208340261Y-75146510D01*
X208309500Y-75301153D01*
X199847466Y-75301153D01*
X199757551Y-75124684D01*
X199757549Y-75124681D01*
X199757548Y-75124679D01*
X199632609Y-74952713D01*
X199482286Y-74802390D01*
X199310320Y-74677451D01*
X199309615Y-74677091D01*
X199301554Y-74672985D01*
X199250759Y-74625012D01*
X199233963Y-74557192D01*
X199256499Y-74491056D01*
X199301554Y-74452015D01*
X199310316Y-74447551D01*
X199386154Y-74392452D01*
X199482286Y-74322609D01*
X199482288Y-74322606D01*
X199482292Y-74322604D01*
X199552761Y-74252135D01*
X234149500Y-74252135D01*
X234149500Y-76047870D01*
X234149501Y-76047876D01*
X234155908Y-76107483D01*
X234206202Y-76242328D01*
X234206206Y-76242335D01*
X234292452Y-76357544D01*
X234292455Y-76357547D01*
X234407664Y-76443793D01*
X234407671Y-76443797D01*
X234539082Y-76492810D01*
X234595016Y-76534681D01*
X234619433Y-76600145D01*
X234604582Y-76668418D01*
X234583431Y-76696673D01*
X234469889Y-76810215D01*
X234344951Y-76982179D01*
X234248444Y-77171585D01*
X234182753Y-77373760D01*
X234149500Y-77583713D01*
X234149500Y-77796286D01*
X234177996Y-77976206D01*
X234182754Y-78006243D01*
X234238452Y-78177664D01*
X234248444Y-78208414D01*
X234344951Y-78397820D01*
X234469890Y-78569786D01*
X234620213Y-78720109D01*
X234792182Y-78845050D01*
X234800946Y-78849516D01*
X234851742Y-78897491D01*
X234868536Y-78965312D01*
X234845998Y-79031447D01*
X234800946Y-79070484D01*
X234792182Y-79074949D01*
X234620213Y-79199890D01*
X234469890Y-79350213D01*
X234344951Y-79522179D01*
X234248444Y-79711585D01*
X234182753Y-79913760D01*
X234166022Y-80019397D01*
X234149500Y-80123713D01*
X234149500Y-80336287D01*
X234153302Y-80360289D01*
X234179782Y-80527483D01*
X234182754Y-80546243D01*
X234230994Y-80694711D01*
X234248444Y-80748414D01*
X234344951Y-80937820D01*
X234469890Y-81109786D01*
X234620213Y-81260109D01*
X234792182Y-81385050D01*
X234800946Y-81389516D01*
X234851742Y-81437491D01*
X234868536Y-81505312D01*
X234845998Y-81571447D01*
X234800946Y-81610484D01*
X234792182Y-81614949D01*
X234620213Y-81739890D01*
X234469890Y-81890213D01*
X234344951Y-82062179D01*
X234248444Y-82251585D01*
X234182753Y-82453760D01*
X234149500Y-82663713D01*
X234149500Y-82876286D01*
X234170082Y-83006239D01*
X234182754Y-83086243D01*
X234222449Y-83208412D01*
X234248444Y-83288414D01*
X234344951Y-83477820D01*
X234469890Y-83649786D01*
X234620213Y-83800109D01*
X234792182Y-83925050D01*
X234800946Y-83929516D01*
X234851742Y-83977491D01*
X234868536Y-84045312D01*
X234845998Y-84111447D01*
X234800946Y-84150484D01*
X234792182Y-84154949D01*
X234620213Y-84279890D01*
X234469890Y-84430213D01*
X234344951Y-84602179D01*
X234248444Y-84791585D01*
X234182753Y-84993760D01*
X234156423Y-85160001D01*
X234149500Y-85203713D01*
X234149500Y-85416287D01*
X234151885Y-85431344D01*
X234175535Y-85580668D01*
X234182754Y-85626243D01*
X234247053Y-85824135D01*
X234248444Y-85828414D01*
X234344951Y-86017820D01*
X234469890Y-86189786D01*
X234620213Y-86340109D01*
X234792179Y-86465048D01*
X234792181Y-86465049D01*
X234792184Y-86465051D01*
X234981588Y-86561557D01*
X235183757Y-86627246D01*
X235393713Y-86660500D01*
X235393714Y-86660500D01*
X235606286Y-86660500D01*
X235606287Y-86660500D01*
X235816243Y-86627246D01*
X236018412Y-86561557D01*
X236207816Y-86465051D01*
X236245749Y-86437491D01*
X236379786Y-86340109D01*
X236379788Y-86340106D01*
X236379792Y-86340104D01*
X236530104Y-86189792D01*
X236530106Y-86189788D01*
X236530109Y-86189786D01*
X236655048Y-86017820D01*
X236655047Y-86017820D01*
X236655051Y-86017816D01*
X236751557Y-85828412D01*
X236817246Y-85626243D01*
X236850500Y-85416287D01*
X236850500Y-85203713D01*
X236817246Y-84993757D01*
X236751557Y-84791588D01*
X236655051Y-84602184D01*
X236655049Y-84602181D01*
X236655048Y-84602179D01*
X236530109Y-84430213D01*
X236379786Y-84279890D01*
X236207820Y-84154951D01*
X236206913Y-84154489D01*
X236199054Y-84150485D01*
X236148259Y-84102512D01*
X236131463Y-84034692D01*
X236153999Y-83968556D01*
X236199054Y-83929515D01*
X236207816Y-83925051D01*
X236245749Y-83897491D01*
X236379786Y-83800109D01*
X236379788Y-83800106D01*
X236379792Y-83800104D01*
X236530104Y-83649792D01*
X236530106Y-83649788D01*
X236530109Y-83649786D01*
X236655048Y-83477820D01*
X236655047Y-83477820D01*
X236655051Y-83477816D01*
X236751557Y-83288412D01*
X236817246Y-83086243D01*
X236850500Y-82876287D01*
X236850500Y-82663713D01*
X236817246Y-82453757D01*
X236751557Y-82251588D01*
X236655051Y-82062184D01*
X236655049Y-82062181D01*
X236655048Y-82062179D01*
X236530109Y-81890213D01*
X236379786Y-81739890D01*
X236207820Y-81614951D01*
X236207115Y-81614591D01*
X236199054Y-81610485D01*
X236148259Y-81562512D01*
X236131463Y-81494692D01*
X236153999Y-81428556D01*
X236199054Y-81389515D01*
X236207816Y-81385051D01*
X236245749Y-81357491D01*
X236379786Y-81260109D01*
X236379788Y-81260106D01*
X236379792Y-81260104D01*
X236530104Y-81109792D01*
X236530106Y-81109788D01*
X236530109Y-81109786D01*
X236655048Y-80937820D01*
X236655047Y-80937820D01*
X236655051Y-80937816D01*
X236751557Y-80748412D01*
X236817246Y-80546243D01*
X236850500Y-80336287D01*
X236850500Y-80123713D01*
X236817246Y-79913757D01*
X236751557Y-79711588D01*
X236655051Y-79522184D01*
X236655049Y-79522181D01*
X236655048Y-79522179D01*
X236530109Y-79350213D01*
X236379786Y-79199890D01*
X236207820Y-79074951D01*
X236207115Y-79074591D01*
X236199054Y-79070485D01*
X236148259Y-79022512D01*
X236131463Y-78954692D01*
X236153999Y-78888556D01*
X236199054Y-78849515D01*
X236207816Y-78845051D01*
X236245749Y-78817491D01*
X236379786Y-78720109D01*
X236379788Y-78720106D01*
X236379792Y-78720104D01*
X236530104Y-78569792D01*
X236530106Y-78569788D01*
X236530109Y-78569786D01*
X236655048Y-78397820D01*
X236655047Y-78397820D01*
X236655051Y-78397816D01*
X236751557Y-78208412D01*
X236817246Y-78006243D01*
X236850500Y-77796287D01*
X236850500Y-77583713D01*
X236817246Y-77373757D01*
X236751557Y-77171588D01*
X236655051Y-76982184D01*
X236655049Y-76982181D01*
X236655048Y-76982179D01*
X236530109Y-76810213D01*
X236416569Y-76696673D01*
X236383084Y-76635350D01*
X236388068Y-76565658D01*
X236429940Y-76509725D01*
X236460915Y-76492810D01*
X236592331Y-76443796D01*
X236707546Y-76357546D01*
X236793796Y-76242331D01*
X236844091Y-76107483D01*
X236850500Y-76047873D01*
X236850499Y-74252128D01*
X236844091Y-74192517D01*
X236836546Y-74172289D01*
X236793797Y-74057671D01*
X236793793Y-74057664D01*
X236707547Y-73942455D01*
X236707544Y-73942452D01*
X236592335Y-73856206D01*
X236592328Y-73856202D01*
X236457482Y-73805908D01*
X236457483Y-73805908D01*
X236397883Y-73799501D01*
X236397881Y-73799500D01*
X236397873Y-73799500D01*
X236397864Y-73799500D01*
X234602129Y-73799500D01*
X234602123Y-73799501D01*
X234542516Y-73805908D01*
X234407671Y-73856202D01*
X234407664Y-73856206D01*
X234292455Y-73942452D01*
X234292452Y-73942455D01*
X234206206Y-74057664D01*
X234206202Y-74057671D01*
X234155908Y-74192517D01*
X234149782Y-74249500D01*
X234149501Y-74252123D01*
X234149500Y-74252135D01*
X199552761Y-74252135D01*
X199632604Y-74172292D01*
X199757551Y-74000316D01*
X199854057Y-73810912D01*
X199919746Y-73608743D01*
X199953000Y-73398787D01*
X199953000Y-73186213D01*
X199919746Y-72976257D01*
X199854057Y-72774088D01*
X199757551Y-72584684D01*
X199757549Y-72584681D01*
X199757548Y-72584679D01*
X199632609Y-72412713D01*
X199482286Y-72262390D01*
X199310320Y-72137451D01*
X199120910Y-72040941D01*
X199116419Y-72039082D01*
X199117319Y-72036908D01*
X199067649Y-72002789D01*
X199040587Y-71938373D01*
X199052648Y-71869552D01*
X199100002Y-71818177D01*
X199163809Y-71800500D01*
X245280489Y-71800500D01*
X245347528Y-71820185D01*
X245393283Y-71872989D01*
X245404488Y-71924501D01*
X245404487Y-72036908D01*
X245404442Y-74602186D01*
X245384756Y-74669225D01*
X245331951Y-74714979D01*
X245262793Y-74724922D01*
X245206131Y-74701451D01*
X245174071Y-74677451D01*
X245164928Y-74670606D01*
X245132330Y-74646203D01*
X245132328Y-74646202D01*
X244997482Y-74595908D01*
X244997483Y-74595908D01*
X244937883Y-74589501D01*
X244937881Y-74589500D01*
X244937873Y-74589500D01*
X244937864Y-74589500D01*
X242842129Y-74589500D01*
X242842123Y-74589501D01*
X242782516Y-74595908D01*
X242647671Y-74646202D01*
X242647664Y-74646206D01*
X242532455Y-74732452D01*
X242532452Y-74732455D01*
X242446206Y-74847664D01*
X242446202Y-74847671D01*
X242395908Y-74982517D01*
X242389501Y-75042116D01*
X242389500Y-75042135D01*
X242389500Y-77137870D01*
X242389501Y-77137876D01*
X242395908Y-77197483D01*
X242446202Y-77332328D01*
X242446206Y-77332335D01*
X242532452Y-77447544D01*
X242532455Y-77447547D01*
X242647664Y-77533793D01*
X242647671Y-77533797D01*
X242782517Y-77584091D01*
X242782516Y-77584091D01*
X242789444Y-77584835D01*
X242842127Y-77590500D01*
X244937872Y-77590499D01*
X244997483Y-77584091D01*
X245132331Y-77533796D01*
X245206082Y-77478585D01*
X245271543Y-77454169D01*
X245339816Y-77469020D01*
X245389222Y-77518424D01*
X245404391Y-77577855D01*
X245404381Y-78196140D01*
X245384695Y-78263179D01*
X245331891Y-78308933D01*
X245262732Y-78318876D01*
X245206070Y-78295405D01*
X245185423Y-78279949D01*
X245132331Y-78240204D01*
X245132329Y-78240203D01*
X245132328Y-78240202D01*
X244997482Y-78189908D01*
X244997483Y-78189908D01*
X244937883Y-78183501D01*
X244937881Y-78183500D01*
X244937873Y-78183500D01*
X244937864Y-78183500D01*
X242842129Y-78183500D01*
X242842123Y-78183501D01*
X242782516Y-78189908D01*
X242647671Y-78240202D01*
X242647664Y-78240206D01*
X242532455Y-78326452D01*
X242532452Y-78326455D01*
X242446206Y-78441664D01*
X242446202Y-78441671D01*
X242395908Y-78576517D01*
X242389501Y-78636116D01*
X242389500Y-78636135D01*
X242389500Y-80731870D01*
X242389501Y-80731876D01*
X242395908Y-80791483D01*
X242446202Y-80926328D01*
X242446206Y-80926335D01*
X242532452Y-81041544D01*
X242532455Y-81041547D01*
X242647664Y-81127793D01*
X242647671Y-81127797D01*
X242782517Y-81178091D01*
X242782516Y-81178091D01*
X242789444Y-81178835D01*
X242842127Y-81184500D01*
X244937872Y-81184499D01*
X244997483Y-81178091D01*
X245132331Y-81127796D01*
X245206021Y-81072631D01*
X245271480Y-81048215D01*
X245339754Y-81063066D01*
X245389160Y-81112470D01*
X245404329Y-81171901D01*
X245404257Y-85384047D01*
X245384571Y-85451086D01*
X245331767Y-85496840D01*
X245262608Y-85506783D01*
X245205946Y-85483312D01*
X245132331Y-85428204D01*
X245132328Y-85428202D01*
X244997482Y-85377908D01*
X244997483Y-85377908D01*
X244937883Y-85371501D01*
X244937881Y-85371500D01*
X244937873Y-85371500D01*
X244937864Y-85371500D01*
X242842129Y-85371500D01*
X242842123Y-85371501D01*
X242782516Y-85377908D01*
X242647671Y-85428202D01*
X242647664Y-85428206D01*
X242532455Y-85514452D01*
X242532452Y-85514455D01*
X242446206Y-85629664D01*
X242446202Y-85629671D01*
X242395908Y-85764517D01*
X242389501Y-85824116D01*
X242389500Y-85824135D01*
X242389500Y-87919870D01*
X242389501Y-87919876D01*
X242395908Y-87979483D01*
X242446202Y-88114328D01*
X242446206Y-88114335D01*
X242532452Y-88229544D01*
X242532455Y-88229547D01*
X242647664Y-88315793D01*
X242647671Y-88315797D01*
X242782517Y-88366091D01*
X242782516Y-88366091D01*
X242789444Y-88366835D01*
X242842127Y-88372500D01*
X244937872Y-88372499D01*
X244997483Y-88366091D01*
X245132331Y-88315796D01*
X245205895Y-88260725D01*
X245271358Y-88236308D01*
X245339631Y-88251159D01*
X245389037Y-88300564D01*
X245404206Y-88359994D01*
X245404195Y-88978001D01*
X245384509Y-89045040D01*
X245331704Y-89090794D01*
X245262546Y-89100737D01*
X245205884Y-89077266D01*
X245132330Y-89022203D01*
X245132328Y-89022202D01*
X244997482Y-88971908D01*
X244997483Y-88971908D01*
X244937883Y-88965501D01*
X244937881Y-88965500D01*
X244937873Y-88965500D01*
X244937864Y-88965500D01*
X242842129Y-88965500D01*
X242842123Y-88965501D01*
X242782516Y-88971908D01*
X242647671Y-89022202D01*
X242647664Y-89022206D01*
X242532455Y-89108452D01*
X242532452Y-89108455D01*
X242446206Y-89223664D01*
X242446202Y-89223671D01*
X242395908Y-89358517D01*
X242389501Y-89418116D01*
X242389500Y-89418135D01*
X242389500Y-91513870D01*
X242389501Y-91513876D01*
X242395908Y-91573483D01*
X242446202Y-91708328D01*
X242446206Y-91708335D01*
X242532452Y-91823544D01*
X242532455Y-91823547D01*
X242647664Y-91909793D01*
X242647671Y-91909797D01*
X242782517Y-91960091D01*
X242782516Y-91960091D01*
X242789444Y-91960835D01*
X242842127Y-91966500D01*
X244937872Y-91966499D01*
X244997483Y-91960091D01*
X245132331Y-91909796D01*
X245205834Y-91854770D01*
X245271296Y-91830354D01*
X245339569Y-91845205D01*
X245388975Y-91894609D01*
X245404144Y-91954040D01*
X245403915Y-105285408D01*
X245384229Y-105352447D01*
X245331425Y-105398201D01*
X245280957Y-105409402D01*
X234559898Y-105499496D01*
X234558856Y-105499500D01*
X226434108Y-105499500D01*
X226306814Y-105533608D01*
X226306809Y-105533610D01*
X226273162Y-105553036D01*
X226212206Y-105569644D01*
X224810282Y-105581425D01*
X224747240Y-105564816D01*
X224724918Y-105551929D01*
X224693187Y-105533608D01*
X224629539Y-105516554D01*
X224565892Y-105499500D01*
X211965892Y-105499500D01*
X211834108Y-105499500D01*
X211706812Y-105533608D01*
X211592686Y-105599500D01*
X211534787Y-105657398D01*
X211473463Y-105690882D01*
X211448149Y-105693711D01*
X210363052Y-105702829D01*
X210295849Y-105683708D01*
X210274329Y-105666515D01*
X210254420Y-105646606D01*
X210207314Y-105599500D01*
X210147240Y-105564816D01*
X210093187Y-105533608D01*
X210029539Y-105516554D01*
X209965892Y-105499500D01*
X198565892Y-105499500D01*
X198434108Y-105499500D01*
X198306812Y-105533608D01*
X198192686Y-105599500D01*
X198192683Y-105599502D01*
X198099502Y-105692683D01*
X198099497Y-105692689D01*
X198069273Y-105745038D01*
X198018705Y-105793253D01*
X197962929Y-105807032D01*
X197043613Y-105814758D01*
X197031552Y-105811326D01*
X197019071Y-105812515D01*
X196998582Y-105801945D01*
X196976411Y-105795637D01*
X196966628Y-105785461D01*
X196956977Y-105780482D01*
X196935169Y-105752736D01*
X196933771Y-105750314D01*
X196901527Y-105694030D01*
X196901524Y-105694027D01*
X196901511Y-105694004D01*
X196901083Y-105693445D01*
X196901083Y-105693446D01*
X196900502Y-105692690D01*
X196900500Y-105692686D01*
X196854715Y-105646901D01*
X196854421Y-105646606D01*
X196808654Y-105600531D01*
X196808102Y-105600105D01*
X196807810Y-105599880D01*
X196807331Y-105599510D01*
X196776007Y-105581425D01*
X196751118Y-105567055D01*
X196750871Y-105566912D01*
X196694741Y-105534254D01*
X196693965Y-105533929D01*
X196693714Y-105533825D01*
X196693212Y-105533614D01*
X196630400Y-105516784D01*
X196630400Y-105516783D01*
X196629805Y-105516623D01*
X196567568Y-105499724D01*
X196566717Y-105499721D01*
X196565892Y-105499500D01*
X196565888Y-105499500D01*
X196500846Y-105499500D01*
X196500430Y-105499499D01*
X191530791Y-105482844D01*
X191463818Y-105462935D01*
X191418241Y-105409978D01*
X191407207Y-105358505D01*
X191407224Y-105352447D01*
X191417599Y-101564635D01*
X208412000Y-101564635D01*
X208412000Y-104435370D01*
X208412001Y-104435376D01*
X208418408Y-104494983D01*
X208468702Y-104629828D01*
X208468706Y-104629835D01*
X208554952Y-104745044D01*
X208554955Y-104745047D01*
X208670164Y-104831293D01*
X208670171Y-104831297D01*
X208805017Y-104881591D01*
X208805016Y-104881591D01*
X208811944Y-104882335D01*
X208864627Y-104888000D01*
X211735372Y-104887999D01*
X211794983Y-104881591D01*
X211929831Y-104831296D01*
X212045046Y-104745046D01*
X212131296Y-104629831D01*
X212181591Y-104494983D01*
X212188000Y-104435373D01*
X212187999Y-102876260D01*
X213112000Y-102876260D01*
X213112000Y-103123739D01*
X213112001Y-103123756D01*
X213144303Y-103369117D01*
X213208361Y-103608184D01*
X213303069Y-103836829D01*
X213303074Y-103836840D01*
X213426812Y-104051159D01*
X213426823Y-104051175D01*
X213577479Y-104247514D01*
X213577485Y-104247521D01*
X213752478Y-104422514D01*
X213752485Y-104422520D01*
X213846921Y-104494983D01*
X213948833Y-104573183D01*
X213948840Y-104573187D01*
X214163159Y-104696925D01*
X214163164Y-104696927D01*
X214163167Y-104696929D01*
X214391820Y-104791640D01*
X214630879Y-104855696D01*
X214876254Y-104888000D01*
X214876261Y-104888000D01*
X215123739Y-104888000D01*
X215123746Y-104888000D01*
X215369121Y-104855696D01*
X215608180Y-104791640D01*
X215836833Y-104696929D01*
X216051167Y-104573183D01*
X216247516Y-104422519D01*
X216422519Y-104247516D01*
X216573183Y-104051167D01*
X216696929Y-103836833D01*
X216791640Y-103608180D01*
X216855696Y-103369121D01*
X216888000Y-103123746D01*
X216888000Y-102876260D01*
X217812000Y-102876260D01*
X217812000Y-103123739D01*
X217812001Y-103123756D01*
X217844303Y-103369117D01*
X217908361Y-103608184D01*
X218003069Y-103836829D01*
X218003074Y-103836840D01*
X218126812Y-104051159D01*
X218126823Y-104051175D01*
X218277479Y-104247514D01*
X218277485Y-104247521D01*
X218452478Y-104422514D01*
X218452485Y-104422520D01*
X218546921Y-104494983D01*
X218648833Y-104573183D01*
X218648840Y-104573187D01*
X218863159Y-104696925D01*
X218863164Y-104696927D01*
X218863167Y-104696929D01*
X219091820Y-104791640D01*
X219330879Y-104855696D01*
X219576254Y-104888000D01*
X219576261Y-104888000D01*
X219823739Y-104888000D01*
X219823746Y-104888000D01*
X220069121Y-104855696D01*
X220308180Y-104791640D01*
X220536833Y-104696929D01*
X220751167Y-104573183D01*
X220947516Y-104422519D01*
X221122519Y-104247516D01*
X221273183Y-104051167D01*
X221396929Y-103836833D01*
X221491640Y-103608180D01*
X221555696Y-103369121D01*
X221588000Y-103123746D01*
X221588000Y-102876254D01*
X221555696Y-102630879D01*
X221491640Y-102391820D01*
X221396929Y-102163167D01*
X221396927Y-102163164D01*
X221396925Y-102163159D01*
X221273187Y-101948840D01*
X221273183Y-101948833D01*
X221122519Y-101752484D01*
X221122514Y-101752478D01*
X220947521Y-101577485D01*
X220947514Y-101577479D01*
X220751175Y-101426823D01*
X220751173Y-101426821D01*
X220751167Y-101426817D01*
X220751162Y-101426814D01*
X220751159Y-101426812D01*
X220536840Y-101303074D01*
X220536829Y-101303069D01*
X220308184Y-101208361D01*
X220069117Y-101144303D01*
X219823756Y-101112001D01*
X219823751Y-101112000D01*
X219823746Y-101112000D01*
X219576254Y-101112000D01*
X219576248Y-101112000D01*
X219576243Y-101112001D01*
X219330882Y-101144303D01*
X219091815Y-101208361D01*
X218863170Y-101303069D01*
X218863159Y-101303074D01*
X218648840Y-101426812D01*
X218648824Y-101426823D01*
X218452485Y-101577479D01*
X218452478Y-101577485D01*
X218277485Y-101752478D01*
X218277479Y-101752485D01*
X218126823Y-101948824D01*
X218126812Y-101948840D01*
X218003074Y-102163159D01*
X218003069Y-102163170D01*
X217908361Y-102391815D01*
X217844303Y-102630882D01*
X217812001Y-102876243D01*
X217812000Y-102876260D01*
X216888000Y-102876260D01*
X216888000Y-102876254D01*
X216855696Y-102630879D01*
X216791640Y-102391820D01*
X216696929Y-102163167D01*
X216696927Y-102163164D01*
X216696925Y-102163159D01*
X216573187Y-101948840D01*
X216573183Y-101948833D01*
X216422519Y-101752484D01*
X216422514Y-101752478D01*
X216247521Y-101577485D01*
X216247514Y-101577479D01*
X216051175Y-101426823D01*
X216051173Y-101426821D01*
X216051167Y-101426817D01*
X216051162Y-101426814D01*
X216051159Y-101426812D01*
X215836840Y-101303074D01*
X215836829Y-101303069D01*
X215608184Y-101208361D01*
X215369117Y-101144303D01*
X215123756Y-101112001D01*
X215123751Y-101112000D01*
X215123746Y-101112000D01*
X214876254Y-101112000D01*
X214876248Y-101112000D01*
X214876243Y-101112001D01*
X214630882Y-101144303D01*
X214391815Y-101208361D01*
X214163170Y-101303069D01*
X214163159Y-101303074D01*
X213948840Y-101426812D01*
X213948824Y-101426823D01*
X213752485Y-101577479D01*
X213752478Y-101577485D01*
X213577485Y-101752478D01*
X213577479Y-101752485D01*
X213426823Y-101948824D01*
X213426812Y-101948840D01*
X213303074Y-102163159D01*
X213303069Y-102163170D01*
X213208361Y-102391815D01*
X213144303Y-102630882D01*
X213112001Y-102876243D01*
X213112000Y-102876260D01*
X212187999Y-102876260D01*
X212187999Y-101564628D01*
X212181591Y-101505017D01*
X212152672Y-101427482D01*
X212131297Y-101370171D01*
X212131293Y-101370164D01*
X212045047Y-101254955D01*
X212045044Y-101254952D01*
X211929835Y-101168706D01*
X211929828Y-101168702D01*
X211794982Y-101118408D01*
X211794983Y-101118408D01*
X211735383Y-101112001D01*
X211735381Y-101112000D01*
X211735373Y-101112000D01*
X211735364Y-101112000D01*
X208864629Y-101112000D01*
X208864623Y-101112001D01*
X208805016Y-101118408D01*
X208670171Y-101168702D01*
X208670164Y-101168706D01*
X208554955Y-101254952D01*
X208554952Y-101254955D01*
X208468706Y-101370164D01*
X208468702Y-101370171D01*
X208418408Y-101505017D01*
X208412247Y-101562328D01*
X208412001Y-101564623D01*
X208412000Y-101564635D01*
X191417599Y-101564635D01*
X191424976Y-98871599D01*
X191444845Y-98804617D01*
X191497774Y-98759007D01*
X191566959Y-98749253D01*
X191621861Y-98771623D01*
X191692499Y-98822944D01*
X191868439Y-98912591D01*
X191988435Y-98951580D01*
X192056236Y-98973610D01*
X192251264Y-99004500D01*
X192251269Y-99004500D01*
X192448736Y-99004500D01*
X192643763Y-98973610D01*
X192685330Y-98960104D01*
X192831561Y-98912591D01*
X193007501Y-98822944D01*
X193112955Y-98746328D01*
X193167246Y-98706884D01*
X193167248Y-98706881D01*
X193167252Y-98706879D01*
X193306879Y-98567252D01*
X193306881Y-98567248D01*
X193306884Y-98567246D01*
X193364551Y-98487873D01*
X193422944Y-98407501D01*
X193512591Y-98231561D01*
X193573610Y-98043763D01*
X193587595Y-97955466D01*
X193604500Y-97848736D01*
X193604500Y-97651263D01*
X193573610Y-97456236D01*
X193541613Y-97357761D01*
X193512591Y-97268439D01*
X193422944Y-97092499D01*
X193413022Y-97078842D01*
X193370403Y-97020181D01*
X193370395Y-97020172D01*
X193318058Y-96948135D01*
X197595500Y-96948135D01*
X197595500Y-98551870D01*
X197595501Y-98551876D01*
X197601908Y-98611483D01*
X197652202Y-98746328D01*
X197652206Y-98746335D01*
X197738452Y-98861544D01*
X197738455Y-98861547D01*
X197853664Y-98947793D01*
X197853671Y-98947797D01*
X197988517Y-98998091D01*
X197988516Y-98998091D01*
X197995444Y-98998835D01*
X198048127Y-99004500D01*
X199651872Y-99004499D01*
X199711483Y-98998091D01*
X199846331Y-98947796D01*
X199961546Y-98861546D01*
X200047796Y-98746331D01*
X200098091Y-98611483D01*
X200104500Y-98551873D01*
X200104499Y-96948128D01*
X200098091Y-96888517D01*
X200095728Y-96882182D01*
X200047796Y-96753669D01*
X200047794Y-96753666D01*
X200001732Y-96692135D01*
X200409500Y-96692135D01*
X200409500Y-98487870D01*
X200409501Y-98487876D01*
X200415908Y-98547483D01*
X200466202Y-98682328D01*
X200466206Y-98682335D01*
X200552452Y-98797544D01*
X200552455Y-98797547D01*
X200667664Y-98883793D01*
X200667671Y-98883797D01*
X200802517Y-98934091D01*
X200802516Y-98934091D01*
X200809444Y-98934835D01*
X200862127Y-98940500D01*
X202657872Y-98940499D01*
X202717483Y-98934091D01*
X202852331Y-98883796D01*
X202967546Y-98797546D01*
X203053796Y-98682331D01*
X203102810Y-98550916D01*
X203144681Y-98494984D01*
X203210145Y-98470566D01*
X203278418Y-98485417D01*
X203306673Y-98506569D01*
X203420213Y-98620109D01*
X203592179Y-98745048D01*
X203592181Y-98745049D01*
X203592184Y-98745051D01*
X203781588Y-98841557D01*
X203983757Y-98907246D01*
X204193713Y-98940500D01*
X204193714Y-98940500D01*
X204406286Y-98940500D01*
X204406287Y-98940500D01*
X204616243Y-98907246D01*
X204818412Y-98841557D01*
X205007816Y-98745051D01*
X205094138Y-98682335D01*
X205179786Y-98620109D01*
X205179788Y-98620106D01*
X205179792Y-98620104D01*
X205330104Y-98469792D01*
X205330106Y-98469788D01*
X205330109Y-98469786D01*
X205455048Y-98297820D01*
X205455047Y-98297820D01*
X205455051Y-98297816D01*
X205459514Y-98289054D01*
X205507488Y-98238259D01*
X205575308Y-98221463D01*
X205641444Y-98243999D01*
X205680486Y-98289056D01*
X205684951Y-98297820D01*
X205809890Y-98469786D01*
X205960213Y-98620109D01*
X206132179Y-98745048D01*
X206132181Y-98745049D01*
X206132184Y-98745051D01*
X206321588Y-98841557D01*
X206523757Y-98907246D01*
X206733713Y-98940500D01*
X206733714Y-98940500D01*
X206946286Y-98940500D01*
X206946287Y-98940500D01*
X207156243Y-98907246D01*
X207358412Y-98841557D01*
X207547816Y-98745051D01*
X207634138Y-98682335D01*
X207719786Y-98620109D01*
X207719788Y-98620106D01*
X207719792Y-98620104D01*
X207870104Y-98469792D01*
X207870106Y-98469788D01*
X207870109Y-98469786D01*
X207995048Y-98297820D01*
X207995047Y-98297820D01*
X207995051Y-98297816D01*
X207999514Y-98289054D01*
X208047488Y-98238259D01*
X208115308Y-98221463D01*
X208181444Y-98243999D01*
X208220486Y-98289056D01*
X208224951Y-98297820D01*
X208349890Y-98469786D01*
X208500213Y-98620109D01*
X208672179Y-98745048D01*
X208672181Y-98745049D01*
X208672184Y-98745051D01*
X208861588Y-98841557D01*
X209063757Y-98907246D01*
X209273713Y-98940500D01*
X209273714Y-98940500D01*
X209486286Y-98940500D01*
X209486287Y-98940500D01*
X209696243Y-98907246D01*
X209898412Y-98841557D01*
X210087816Y-98745051D01*
X210174138Y-98682335D01*
X210259786Y-98620109D01*
X210259788Y-98620106D01*
X210259792Y-98620104D01*
X210410104Y-98469792D01*
X210410106Y-98469788D01*
X210410109Y-98469786D01*
X210535048Y-98297820D01*
X210535047Y-98297820D01*
X210535051Y-98297816D01*
X210539514Y-98289054D01*
X210587488Y-98238259D01*
X210655308Y-98221463D01*
X210721444Y-98243999D01*
X210760486Y-98289056D01*
X210764951Y-98297820D01*
X210889890Y-98469786D01*
X211040213Y-98620109D01*
X211212179Y-98745048D01*
X211212181Y-98745049D01*
X211212184Y-98745051D01*
X211401588Y-98841557D01*
X211603757Y-98907246D01*
X211813713Y-98940500D01*
X211813714Y-98940500D01*
X212026286Y-98940500D01*
X212026287Y-98940500D01*
X212236243Y-98907246D01*
X212438412Y-98841557D01*
X212627816Y-98745051D01*
X212714138Y-98682335D01*
X212799786Y-98620109D01*
X212799788Y-98620106D01*
X212799792Y-98620104D01*
X212950104Y-98469792D01*
X212950106Y-98469788D01*
X212950109Y-98469786D01*
X213075048Y-98297820D01*
X213075047Y-98297820D01*
X213075051Y-98297816D01*
X213079514Y-98289054D01*
X213127488Y-98238259D01*
X213195308Y-98221463D01*
X213261444Y-98243999D01*
X213300486Y-98289056D01*
X213304951Y-98297820D01*
X213429890Y-98469786D01*
X213580213Y-98620109D01*
X213752179Y-98745048D01*
X213752181Y-98745049D01*
X213752184Y-98745051D01*
X213941588Y-98841557D01*
X214143757Y-98907246D01*
X214353713Y-98940500D01*
X214353714Y-98940500D01*
X214566286Y-98940500D01*
X214566287Y-98940500D01*
X214776243Y-98907246D01*
X214978412Y-98841557D01*
X215167816Y-98745051D01*
X215254138Y-98682335D01*
X215339786Y-98620109D01*
X215339788Y-98620106D01*
X215339792Y-98620104D01*
X215490104Y-98469792D01*
X215490106Y-98469788D01*
X215490109Y-98469786D01*
X215615048Y-98297820D01*
X215615047Y-98297820D01*
X215615051Y-98297816D01*
X215619514Y-98289054D01*
X215667488Y-98238259D01*
X215735308Y-98221463D01*
X215801444Y-98243999D01*
X215840486Y-98289056D01*
X215844951Y-98297820D01*
X215969890Y-98469786D01*
X216120213Y-98620109D01*
X216292179Y-98745048D01*
X216292181Y-98745049D01*
X216292184Y-98745051D01*
X216481588Y-98841557D01*
X216683757Y-98907246D01*
X216893713Y-98940500D01*
X216893714Y-98940500D01*
X217106286Y-98940500D01*
X217106287Y-98940500D01*
X217316243Y-98907246D01*
X217518412Y-98841557D01*
X217707816Y-98745051D01*
X217794138Y-98682335D01*
X217879786Y-98620109D01*
X217879788Y-98620106D01*
X217879792Y-98620104D01*
X218030104Y-98469792D01*
X218030106Y-98469788D01*
X218030109Y-98469786D01*
X218155048Y-98297820D01*
X218155047Y-98297820D01*
X218155051Y-98297816D01*
X218159514Y-98289054D01*
X218207488Y-98238259D01*
X218275308Y-98221463D01*
X218341444Y-98243999D01*
X218380486Y-98289056D01*
X218384951Y-98297820D01*
X218509890Y-98469786D01*
X218660213Y-98620109D01*
X218832179Y-98745048D01*
X218832181Y-98745049D01*
X218832184Y-98745051D01*
X219021588Y-98841557D01*
X219223757Y-98907246D01*
X219433713Y-98940500D01*
X219433714Y-98940500D01*
X219646286Y-98940500D01*
X219646287Y-98940500D01*
X219856243Y-98907246D01*
X220058412Y-98841557D01*
X220247816Y-98745051D01*
X220334138Y-98682335D01*
X220419786Y-98620109D01*
X220419788Y-98620106D01*
X220419792Y-98620104D01*
X220570104Y-98469792D01*
X220570106Y-98469788D01*
X220570109Y-98469786D01*
X220695048Y-98297820D01*
X220695047Y-98297820D01*
X220695051Y-98297816D01*
X220699514Y-98289054D01*
X220747488Y-98238259D01*
X220815308Y-98221463D01*
X220881444Y-98243999D01*
X220920486Y-98289056D01*
X220924951Y-98297820D01*
X221049890Y-98469786D01*
X221200213Y-98620109D01*
X221372179Y-98745048D01*
X221372181Y-98745049D01*
X221372184Y-98745051D01*
X221561588Y-98841557D01*
X221763757Y-98907246D01*
X221973713Y-98940500D01*
X221973714Y-98940500D01*
X222186286Y-98940500D01*
X222186287Y-98940500D01*
X222396243Y-98907246D01*
X222598412Y-98841557D01*
X222787816Y-98745051D01*
X222874138Y-98682335D01*
X222959786Y-98620109D01*
X222959788Y-98620106D01*
X222959792Y-98620104D01*
X223110104Y-98469792D01*
X223110106Y-98469788D01*
X223110109Y-98469786D01*
X223235048Y-98297820D01*
X223235047Y-98297820D01*
X223235051Y-98297816D01*
X223239514Y-98289054D01*
X223287488Y-98238259D01*
X223355308Y-98221463D01*
X223421444Y-98243999D01*
X223460486Y-98289056D01*
X223464951Y-98297820D01*
X223589890Y-98469786D01*
X223740213Y-98620109D01*
X223912179Y-98745048D01*
X223912181Y-98745049D01*
X223912184Y-98745051D01*
X224101588Y-98841557D01*
X224303757Y-98907246D01*
X224513713Y-98940500D01*
X224513714Y-98940500D01*
X224726286Y-98940500D01*
X224726287Y-98940500D01*
X224936243Y-98907246D01*
X225138412Y-98841557D01*
X225327816Y-98745051D01*
X225414138Y-98682335D01*
X225499786Y-98620109D01*
X225499788Y-98620106D01*
X225499792Y-98620104D01*
X225650104Y-98469792D01*
X225650106Y-98469788D01*
X225650109Y-98469786D01*
X225775048Y-98297820D01*
X225775047Y-98297820D01*
X225775051Y-98297816D01*
X225779514Y-98289054D01*
X225827488Y-98238259D01*
X225895308Y-98221463D01*
X225961444Y-98243999D01*
X226000486Y-98289056D01*
X226004951Y-98297820D01*
X226129890Y-98469786D01*
X226280213Y-98620109D01*
X226452179Y-98745048D01*
X226452181Y-98745049D01*
X226452184Y-98745051D01*
X226641588Y-98841557D01*
X226843757Y-98907246D01*
X227053713Y-98940500D01*
X227053714Y-98940500D01*
X227266286Y-98940500D01*
X227266287Y-98940500D01*
X227476243Y-98907246D01*
X227678412Y-98841557D01*
X227867816Y-98745051D01*
X227954138Y-98682335D01*
X228039786Y-98620109D01*
X228039788Y-98620106D01*
X228039792Y-98620104D01*
X228190104Y-98469792D01*
X228190106Y-98469788D01*
X228190109Y-98469786D01*
X228276220Y-98351263D01*
X228695500Y-98351263D01*
X228695500Y-98548736D01*
X228726389Y-98743763D01*
X228781245Y-98912591D01*
X228787409Y-98931561D01*
X228877056Y-99107501D01*
X228877058Y-99107504D01*
X228993115Y-99267246D01*
X229132753Y-99406884D01*
X229278146Y-99512516D01*
X229292499Y-99522944D01*
X229468439Y-99612591D01*
X229593637Y-99653270D01*
X229656236Y-99673610D01*
X229851264Y-99704500D01*
X229851269Y-99704500D01*
X230048736Y-99704500D01*
X230243763Y-99673610D01*
X230431561Y-99612591D01*
X230607501Y-99522944D01*
X230712955Y-99446328D01*
X230767246Y-99406884D01*
X230767248Y-99406881D01*
X230767252Y-99406879D01*
X230906879Y-99267252D01*
X230906881Y-99267248D01*
X230906884Y-99267246D01*
X230973030Y-99176202D01*
X231022944Y-99107501D01*
X231112591Y-98931561D01*
X231173610Y-98743763D01*
X231183340Y-98682331D01*
X231204500Y-98548736D01*
X231204500Y-98351263D01*
X231173610Y-98156236D01*
X231150140Y-98084003D01*
X231112591Y-97968439D01*
X231022944Y-97792499D01*
X231015531Y-97782296D01*
X230968596Y-97717694D01*
X230968593Y-97717691D01*
X230953042Y-97696287D01*
X230918058Y-97648135D01*
X235195500Y-97648135D01*
X235195500Y-99251870D01*
X235195501Y-99251876D01*
X235201908Y-99311483D01*
X235252202Y-99446328D01*
X235252206Y-99446335D01*
X235338452Y-99561544D01*
X235338455Y-99561547D01*
X235453664Y-99647793D01*
X235453671Y-99647797D01*
X235588517Y-99698091D01*
X235588516Y-99698091D01*
X235595444Y-99698835D01*
X235648127Y-99704500D01*
X237251872Y-99704499D01*
X237311483Y-99698091D01*
X237446331Y-99647796D01*
X237561546Y-99561546D01*
X237647796Y-99446331D01*
X237698091Y-99311483D01*
X237704500Y-99251873D01*
X237704499Y-98166963D01*
X237724184Y-98099925D01*
X237776987Y-98054170D01*
X237846146Y-98044226D01*
X237875948Y-98052401D01*
X237952238Y-98084002D01*
X238060984Y-98105633D01*
X238106888Y-98114764D01*
X238106891Y-98114765D01*
X238206024Y-98114765D01*
X238273063Y-98134450D01*
X238318818Y-98187254D01*
X238328497Y-98219367D01*
X238332398Y-98243999D01*
X238332754Y-98246243D01*
X238366879Y-98351269D01*
X238398444Y-98448414D01*
X238494951Y-98637820D01*
X238619890Y-98809786D01*
X238733430Y-98923326D01*
X238766915Y-98984649D01*
X238761931Y-99054341D01*
X238720059Y-99110274D01*
X238689083Y-99127189D01*
X238557669Y-99176203D01*
X238557664Y-99176206D01*
X238442455Y-99262452D01*
X238442452Y-99262455D01*
X238356206Y-99377664D01*
X238356202Y-99377671D01*
X238305908Y-99512517D01*
X238299501Y-99572116D01*
X238299501Y-99572123D01*
X238299500Y-99572135D01*
X238299500Y-101367870D01*
X238299501Y-101367876D01*
X238305908Y-101427483D01*
X238356202Y-101562328D01*
X238356206Y-101562335D01*
X238442452Y-101677544D01*
X238442455Y-101677547D01*
X238557664Y-101763793D01*
X238557671Y-101763797D01*
X238692517Y-101814091D01*
X238692516Y-101814091D01*
X238699444Y-101814835D01*
X238752127Y-101820500D01*
X240547872Y-101820499D01*
X240607483Y-101814091D01*
X240742331Y-101763796D01*
X240857546Y-101677546D01*
X240943796Y-101562331D01*
X240994091Y-101427483D01*
X241000500Y-101367873D01*
X241000499Y-99572128D01*
X240994091Y-99512517D01*
X240969405Y-99446331D01*
X240943797Y-99377671D01*
X240943793Y-99377664D01*
X240857547Y-99262455D01*
X240857544Y-99262452D01*
X240742335Y-99176206D01*
X240742328Y-99176202D01*
X240610917Y-99127189D01*
X240554983Y-99085318D01*
X240530566Y-99019853D01*
X240545418Y-98951580D01*
X240566563Y-98923332D01*
X240680104Y-98809792D01*
X240689001Y-98797547D01*
X240805048Y-98637820D01*
X240805047Y-98637820D01*
X240805051Y-98637816D01*
X240901557Y-98448412D01*
X240967246Y-98246243D01*
X241000500Y-98036287D01*
X241000500Y-97823713D01*
X240967246Y-97613757D01*
X240901557Y-97411588D01*
X240805051Y-97222184D01*
X240805049Y-97222181D01*
X240805048Y-97222179D01*
X240680109Y-97050213D01*
X240529786Y-96899890D01*
X240357820Y-96774951D01*
X240350389Y-96771165D01*
X240349054Y-96770485D01*
X240298259Y-96722512D01*
X240281463Y-96654692D01*
X240303999Y-96588556D01*
X240349054Y-96549515D01*
X240357816Y-96545051D01*
X240400878Y-96513765D01*
X240529786Y-96420109D01*
X240529788Y-96420106D01*
X240529792Y-96420104D01*
X240680104Y-96269792D01*
X240680106Y-96269788D01*
X240680109Y-96269786D01*
X240805048Y-96097820D01*
X240805047Y-96097820D01*
X240805051Y-96097816D01*
X240901557Y-95908412D01*
X240967246Y-95706243D01*
X241000500Y-95496287D01*
X241000500Y-95283713D01*
X240967246Y-95073757D01*
X240901557Y-94871588D01*
X240805051Y-94682184D01*
X240805049Y-94682181D01*
X240805048Y-94682179D01*
X240680109Y-94510213D01*
X240529786Y-94359890D01*
X240357820Y-94234951D01*
X240357115Y-94234591D01*
X240349054Y-94230485D01*
X240298259Y-94182512D01*
X240281463Y-94114692D01*
X240303999Y-94048556D01*
X240349054Y-94009515D01*
X240357816Y-94005051D01*
X240379789Y-93989086D01*
X240529786Y-93880109D01*
X240529788Y-93880106D01*
X240529792Y-93880104D01*
X240680104Y-93729792D01*
X240680106Y-93729788D01*
X240680109Y-93729786D01*
X240805048Y-93557820D01*
X240805047Y-93557820D01*
X240805051Y-93557816D01*
X240901557Y-93368412D01*
X240967246Y-93166243D01*
X241000500Y-92956287D01*
X241000500Y-92743713D01*
X240967246Y-92533757D01*
X240901557Y-92331588D01*
X240805051Y-92142184D01*
X240805049Y-92142181D01*
X240805048Y-92142179D01*
X240680109Y-91970213D01*
X240529786Y-91819890D01*
X240357820Y-91694951D01*
X240357115Y-91694591D01*
X240349054Y-91690485D01*
X240298259Y-91642512D01*
X240281463Y-91574692D01*
X240303999Y-91508556D01*
X240349054Y-91469515D01*
X240357816Y-91465051D01*
X240462846Y-91388743D01*
X240529786Y-91340109D01*
X240529788Y-91340106D01*
X240529792Y-91340104D01*
X240680104Y-91189792D01*
X240680106Y-91189788D01*
X240680109Y-91189786D01*
X240805048Y-91017820D01*
X240805047Y-91017820D01*
X240805051Y-91017816D01*
X240901557Y-90828412D01*
X240967246Y-90626243D01*
X241000500Y-90416287D01*
X241000500Y-90203713D01*
X240967246Y-89993757D01*
X240901557Y-89791588D01*
X240805051Y-89602184D01*
X240805049Y-89602181D01*
X240805048Y-89602179D01*
X240680109Y-89430213D01*
X240529786Y-89279890D01*
X240357820Y-89154951D01*
X240357115Y-89154591D01*
X240349054Y-89150485D01*
X240298259Y-89102512D01*
X240281463Y-89034692D01*
X240303999Y-88968556D01*
X240349054Y-88929515D01*
X240357816Y-88925051D01*
X240420954Y-88879179D01*
X240529786Y-88800109D01*
X240529788Y-88800106D01*
X240529792Y-88800104D01*
X240680104Y-88649792D01*
X240680106Y-88649788D01*
X240680109Y-88649786D01*
X240805048Y-88477820D01*
X240805047Y-88477820D01*
X240805051Y-88477816D01*
X240901557Y-88288412D01*
X240967246Y-88086243D01*
X241000500Y-87876287D01*
X241000500Y-87663713D01*
X240967246Y-87453757D01*
X240901557Y-87251588D01*
X240805051Y-87062184D01*
X240805049Y-87062181D01*
X240805048Y-87062179D01*
X240680109Y-86890213D01*
X240529786Y-86739890D01*
X240357820Y-86614951D01*
X240357115Y-86614591D01*
X240349054Y-86610485D01*
X240298259Y-86562512D01*
X240281463Y-86494692D01*
X240303999Y-86428556D01*
X240349054Y-86389515D01*
X240357816Y-86385051D01*
X240419681Y-86340104D01*
X240529786Y-86260109D01*
X240529788Y-86260106D01*
X240529792Y-86260104D01*
X240680104Y-86109792D01*
X240680106Y-86109788D01*
X240680109Y-86109786D01*
X240805048Y-85937820D01*
X240805047Y-85937820D01*
X240805051Y-85937816D01*
X240901557Y-85748412D01*
X240967246Y-85546243D01*
X241000500Y-85336287D01*
X241000500Y-85123713D01*
X240967246Y-84913757D01*
X240901557Y-84711588D01*
X240805051Y-84522184D01*
X240805049Y-84522181D01*
X240805048Y-84522179D01*
X240680109Y-84350213D01*
X240529786Y-84199890D01*
X240357820Y-84074951D01*
X240357115Y-84074591D01*
X240349054Y-84070485D01*
X240298259Y-84022512D01*
X240281463Y-83954692D01*
X240303999Y-83888556D01*
X240349054Y-83849515D01*
X240357816Y-83845051D01*
X240462846Y-83768743D01*
X240529786Y-83720109D01*
X240529788Y-83720106D01*
X240529792Y-83720104D01*
X240680104Y-83569792D01*
X240680106Y-83569788D01*
X240680109Y-83569786D01*
X240805048Y-83397820D01*
X240805047Y-83397820D01*
X240805051Y-83397816D01*
X240901557Y-83208412D01*
X240967246Y-83006243D01*
X241000500Y-82796287D01*
X241000500Y-82583713D01*
X240967246Y-82373757D01*
X240901557Y-82171588D01*
X240805051Y-81982184D01*
X240805049Y-81982181D01*
X240805048Y-81982179D01*
X240680109Y-81810213D01*
X240529786Y-81659890D01*
X240357820Y-81534951D01*
X240357115Y-81534591D01*
X240349054Y-81530485D01*
X240298259Y-81482512D01*
X240281463Y-81414692D01*
X240303999Y-81348556D01*
X240349054Y-81309515D01*
X240357816Y-81305051D01*
X240387008Y-81283842D01*
X240529786Y-81180109D01*
X240529788Y-81180106D01*
X240529792Y-81180104D01*
X240680104Y-81029792D01*
X240680106Y-81029788D01*
X240680109Y-81029786D01*
X240805048Y-80857820D01*
X240805047Y-80857820D01*
X240805051Y-80857816D01*
X240901557Y-80668412D01*
X240967246Y-80466243D01*
X241000500Y-80256287D01*
X241000500Y-80043713D01*
X240967246Y-79833757D01*
X240901557Y-79631588D01*
X240805051Y-79442184D01*
X240805049Y-79442181D01*
X240805048Y-79442179D01*
X240680109Y-79270213D01*
X240529786Y-79119890D01*
X240357820Y-78994951D01*
X240357115Y-78994591D01*
X240349054Y-78990485D01*
X240298259Y-78942512D01*
X240281463Y-78874692D01*
X240303999Y-78808556D01*
X240349054Y-78769515D01*
X240357816Y-78765051D01*
X240459976Y-78690828D01*
X240529786Y-78640109D01*
X240529788Y-78640106D01*
X240529792Y-78640104D01*
X240680104Y-78489792D01*
X240680106Y-78489788D01*
X240680109Y-78489786D01*
X240805048Y-78317820D01*
X240805047Y-78317820D01*
X240805051Y-78317816D01*
X240901557Y-78128412D01*
X240967246Y-77926243D01*
X241000500Y-77716287D01*
X241000500Y-77503713D01*
X240967246Y-77293757D01*
X240901557Y-77091588D01*
X240805051Y-76902184D01*
X240805049Y-76902181D01*
X240805048Y-76902179D01*
X240680109Y-76730213D01*
X240529786Y-76579890D01*
X240357820Y-76454951D01*
X240357115Y-76454591D01*
X240349054Y-76450485D01*
X240298259Y-76402512D01*
X240281463Y-76334692D01*
X240303999Y-76268556D01*
X240349054Y-76229515D01*
X240357816Y-76225051D01*
X240419136Y-76180500D01*
X240529786Y-76100109D01*
X240529788Y-76100106D01*
X240529792Y-76100104D01*
X240680104Y-75949792D01*
X240680106Y-75949788D01*
X240680109Y-75949786D01*
X240805048Y-75777820D01*
X240805047Y-75777820D01*
X240805051Y-75777816D01*
X240901557Y-75588412D01*
X240967246Y-75386243D01*
X241000500Y-75176287D01*
X241000500Y-74963713D01*
X240967246Y-74753757D01*
X240901557Y-74551588D01*
X240805051Y-74362184D01*
X240805049Y-74362181D01*
X240805048Y-74362179D01*
X240680109Y-74190213D01*
X240529786Y-74039890D01*
X240357820Y-73914951D01*
X240168414Y-73818444D01*
X240168413Y-73818443D01*
X240168412Y-73818443D01*
X239966243Y-73752754D01*
X239966241Y-73752753D01*
X239966240Y-73752753D01*
X239804957Y-73727208D01*
X239756287Y-73719500D01*
X239543713Y-73719500D01*
X239495042Y-73727208D01*
X239333760Y-73752753D01*
X239131585Y-73818444D01*
X238942179Y-73914951D01*
X238770213Y-74039890D01*
X238619890Y-74190213D01*
X238494951Y-74362179D01*
X238398444Y-74551585D01*
X238398443Y-74551587D01*
X238398443Y-74551588D01*
X238384042Y-74595909D01*
X238332753Y-74753760D01*
X238299500Y-74963713D01*
X238299500Y-75176286D01*
X238324381Y-75333382D01*
X238332754Y-75386243D01*
X238374999Y-75516260D01*
X238398444Y-75588414D01*
X238494951Y-75777820D01*
X238619890Y-75949786D01*
X238770213Y-76100109D01*
X238942182Y-76225050D01*
X238950946Y-76229516D01*
X239001742Y-76277491D01*
X239018536Y-76345312D01*
X238995998Y-76411447D01*
X238950946Y-76450484D01*
X238942182Y-76454949D01*
X238770213Y-76579890D01*
X238619890Y-76730213D01*
X238494951Y-76902179D01*
X238398444Y-77091585D01*
X238332753Y-77293760D01*
X238311525Y-77427788D01*
X238299500Y-77503713D01*
X238299500Y-77716287D01*
X238332754Y-77926243D01*
X238383850Y-78083501D01*
X238398444Y-78128414D01*
X238494951Y-78317820D01*
X238619890Y-78489786D01*
X238770213Y-78640109D01*
X238942182Y-78765050D01*
X238950946Y-78769516D01*
X239001742Y-78817491D01*
X239018536Y-78885312D01*
X238995998Y-78951447D01*
X238950946Y-78990484D01*
X238942182Y-78994949D01*
X238770213Y-79119890D01*
X238619890Y-79270213D01*
X238494951Y-79442179D01*
X238398444Y-79631585D01*
X238332753Y-79833760D01*
X238317227Y-79931789D01*
X238299500Y-80043713D01*
X238299500Y-80256287D01*
X238332754Y-80466243D01*
X238396468Y-80662335D01*
X238398444Y-80668414D01*
X238494951Y-80857820D01*
X238619890Y-81029786D01*
X238770213Y-81180109D01*
X238942182Y-81305050D01*
X238950946Y-81309516D01*
X239001742Y-81357491D01*
X239018536Y-81425312D01*
X238995998Y-81491447D01*
X238950946Y-81530484D01*
X238942182Y-81534949D01*
X238770213Y-81659890D01*
X238619890Y-81810213D01*
X238494951Y-81982179D01*
X238398444Y-82171585D01*
X238332753Y-82373760D01*
X238311921Y-82505288D01*
X238299500Y-82583713D01*
X238299500Y-82796287D01*
X238332754Y-83006243D01*
X238379874Y-83151264D01*
X238398444Y-83208414D01*
X238494951Y-83397820D01*
X238619890Y-83569786D01*
X238770213Y-83720109D01*
X238942182Y-83845050D01*
X238950946Y-83849516D01*
X239001742Y-83897491D01*
X239018536Y-83965312D01*
X238995998Y-84031447D01*
X238950946Y-84070484D01*
X238942182Y-84074949D01*
X238770213Y-84199890D01*
X238619890Y-84350213D01*
X238494951Y-84522179D01*
X238398444Y-84711585D01*
X238332753Y-84913760D01*
X238304971Y-85089172D01*
X238299500Y-85123713D01*
X238299500Y-85336287D01*
X238309534Y-85399644D01*
X238327718Y-85514452D01*
X238332754Y-85546243D01*
X238398050Y-85747204D01*
X238398444Y-85748414D01*
X238494951Y-85937820D01*
X238619890Y-86109786D01*
X238770213Y-86260109D01*
X238942182Y-86385050D01*
X238950946Y-86389516D01*
X239001742Y-86437491D01*
X239018536Y-86505312D01*
X238995998Y-86571447D01*
X238950946Y-86610484D01*
X238942182Y-86614949D01*
X238770213Y-86739890D01*
X238619890Y-86890213D01*
X238494951Y-87062179D01*
X238398444Y-87251585D01*
X238398443Y-87251587D01*
X238398443Y-87251588D01*
X238398050Y-87252797D01*
X238332753Y-87453760D01*
X238314555Y-87568657D01*
X238299500Y-87663713D01*
X238299500Y-87876287D01*
X238332754Y-88086243D01*
X238391324Y-88266503D01*
X238398444Y-88288414D01*
X238494951Y-88477820D01*
X238619890Y-88649786D01*
X238770213Y-88800109D01*
X238942182Y-88925050D01*
X238950946Y-88929516D01*
X239001742Y-88977491D01*
X239018536Y-89045312D01*
X238995998Y-89111447D01*
X238950946Y-89150484D01*
X238942182Y-89154949D01*
X238770213Y-89279890D01*
X238619890Y-89430213D01*
X238494951Y-89602179D01*
X238398444Y-89791585D01*
X238332753Y-89993760D01*
X238325051Y-90042390D01*
X238299500Y-90203713D01*
X238299500Y-90416287D01*
X238332754Y-90626243D01*
X238382782Y-90780214D01*
X238398444Y-90828414D01*
X238494951Y-91017820D01*
X238619890Y-91189786D01*
X238770213Y-91340109D01*
X238942182Y-91465050D01*
X238950946Y-91469516D01*
X239001742Y-91517491D01*
X239018536Y-91585312D01*
X238995998Y-91651447D01*
X238950946Y-91690484D01*
X238942182Y-91694949D01*
X238770213Y-91819890D01*
X238619890Y-91970213D01*
X238494951Y-92142179D01*
X238398444Y-92331585D01*
X238332753Y-92533760D01*
X238313816Y-92653325D01*
X238299500Y-92743713D01*
X238299500Y-92956287D01*
X238307876Y-93009172D01*
X238328643Y-93140292D01*
X238332754Y-93166243D01*
X238389015Y-93339397D01*
X238398444Y-93368414D01*
X238494951Y-93557820D01*
X238619890Y-93729786D01*
X238770213Y-93880109D01*
X238942182Y-94005050D01*
X238950946Y-94009516D01*
X239001742Y-94057491D01*
X239018536Y-94125312D01*
X238995998Y-94191447D01*
X238950946Y-94230484D01*
X238942182Y-94234949D01*
X238770213Y-94359890D01*
X238619890Y-94510213D01*
X238494951Y-94682179D01*
X238398444Y-94871585D01*
X238332753Y-95073760D01*
X238323293Y-95133489D01*
X238299500Y-95283713D01*
X238299500Y-95496287D01*
X238308086Y-95550498D01*
X238326971Y-95669735D01*
X238332754Y-95706243D01*
X238350485Y-95760814D01*
X238398444Y-95908414D01*
X238494951Y-96097820D01*
X238619890Y-96269786D01*
X238770213Y-96420109D01*
X238942182Y-96545050D01*
X238950946Y-96549516D01*
X238956427Y-96554692D01*
X238963620Y-96556951D01*
X238981476Y-96578350D01*
X239001742Y-96597491D01*
X239003554Y-96604809D01*
X239008384Y-96610598D01*
X239011836Y-96638255D01*
X239018536Y-96665312D01*
X239016104Y-96672448D01*
X239017038Y-96679930D01*
X239004988Y-96705065D01*
X238995998Y-96731447D01*
X238989340Y-96737706D01*
X238986835Y-96742934D01*
X238970210Y-96755696D01*
X238959735Y-96765546D01*
X238955438Y-96768195D01*
X238942184Y-96774949D01*
X238929261Y-96784337D01*
X238925257Y-96786807D01*
X238895902Y-96794835D01*
X238867244Y-96805059D01*
X238862530Y-96803962D01*
X238857863Y-96805239D01*
X238828832Y-96796124D01*
X238799191Y-96789230D01*
X238793782Y-96785120D01*
X238791202Y-96784310D01*
X238788578Y-96781166D01*
X238772491Y-96768942D01*
X238696027Y-96692478D01*
X238696023Y-96692475D01*
X238564920Y-96604874D01*
X238564907Y-96604867D01*
X238419236Y-96544529D01*
X238419224Y-96544526D01*
X238264580Y-96513765D01*
X238264577Y-96513765D01*
X238106893Y-96513765D01*
X238106890Y-96513765D01*
X237952245Y-96544526D01*
X237952233Y-96544529D01*
X237806562Y-96604867D01*
X237806549Y-96604874D01*
X237675446Y-96692475D01*
X237675442Y-96692478D01*
X237563948Y-96803972D01*
X237563945Y-96803976D01*
X237476344Y-96935079D01*
X237476337Y-96935092D01*
X237415999Y-97080763D01*
X237415997Y-97080770D01*
X237412340Y-97099156D01*
X237379954Y-97161066D01*
X237319237Y-97195639D01*
X237277471Y-97198252D01*
X237270989Y-97197555D01*
X237251873Y-97195500D01*
X237251868Y-97195500D01*
X235648129Y-97195500D01*
X235648123Y-97195501D01*
X235588516Y-97201908D01*
X235453671Y-97252202D01*
X235453664Y-97252206D01*
X235338455Y-97338452D01*
X235338452Y-97338455D01*
X235252206Y-97453664D01*
X235252202Y-97453671D01*
X235201908Y-97588517D01*
X235195501Y-97648116D01*
X235195500Y-97648135D01*
X230918058Y-97648135D01*
X230906879Y-97632748D01*
X230767252Y-97493121D01*
X230767250Y-97493119D01*
X230767243Y-97493113D01*
X230765583Y-97491907D01*
X230765104Y-97491285D01*
X230763539Y-97489949D01*
X230763819Y-97489620D01*
X230722917Y-97436577D01*
X230716939Y-97366963D01*
X230723905Y-97344143D01*
X230769737Y-97233497D01*
X230800500Y-97078842D01*
X230800500Y-96921158D01*
X230800500Y-96921155D01*
X230800499Y-96921153D01*
X230796271Y-96899896D01*
X230769737Y-96766503D01*
X230764419Y-96753664D01*
X230709397Y-96620827D01*
X230709390Y-96620814D01*
X230621789Y-96489711D01*
X230621786Y-96489707D01*
X230510292Y-96378213D01*
X230510288Y-96378210D01*
X230379185Y-96290609D01*
X230379172Y-96290602D01*
X230233501Y-96230264D01*
X230233489Y-96230261D01*
X230078845Y-96199500D01*
X230078842Y-96199500D01*
X229921158Y-96199500D01*
X229921155Y-96199500D01*
X229766510Y-96230261D01*
X229766498Y-96230264D01*
X229620827Y-96290602D01*
X229620814Y-96290609D01*
X229489711Y-96378210D01*
X229489707Y-96378213D01*
X229378213Y-96489707D01*
X229378210Y-96489711D01*
X229290609Y-96620814D01*
X229290602Y-96620827D01*
X229230264Y-96766498D01*
X229230261Y-96766510D01*
X229199500Y-96921153D01*
X229199500Y-97078846D01*
X229230260Y-97233488D01*
X229230263Y-97233498D01*
X229252959Y-97288291D01*
X229260428Y-97357761D01*
X229229152Y-97420240D01*
X229211284Y-97436061D01*
X229132746Y-97493122D01*
X228993115Y-97632753D01*
X228877058Y-97792495D01*
X228787408Y-97968441D01*
X228726389Y-98156236D01*
X228695500Y-98351263D01*
X228276220Y-98351263D01*
X228315050Y-98297818D01*
X228318980Y-98290105D01*
X228318980Y-98290104D01*
X228318981Y-98290102D01*
X228319514Y-98289056D01*
X228411557Y-98108412D01*
X228477246Y-97906243D01*
X228510500Y-97696287D01*
X228510500Y-97483713D01*
X228477246Y-97273757D01*
X228411557Y-97071588D01*
X228315051Y-96882184D01*
X228315049Y-96882181D01*
X228315048Y-96882179D01*
X228190109Y-96710213D01*
X228039786Y-96559890D01*
X227867820Y-96434951D01*
X227678414Y-96338444D01*
X227678413Y-96338443D01*
X227678412Y-96338443D01*
X227476243Y-96272754D01*
X227476241Y-96272753D01*
X227476240Y-96272753D01*
X227314957Y-96247208D01*
X227266287Y-96239500D01*
X227053713Y-96239500D01*
X227005042Y-96247208D01*
X226843760Y-96272753D01*
X226641585Y-96338444D01*
X226452179Y-96434951D01*
X226280213Y-96559890D01*
X226129890Y-96710213D01*
X226004949Y-96882182D01*
X226000484Y-96890946D01*
X225952509Y-96941742D01*
X225884688Y-96958536D01*
X225818553Y-96935998D01*
X225779516Y-96890946D01*
X225775050Y-96882182D01*
X225650109Y-96710213D01*
X225499786Y-96559890D01*
X225327820Y-96434951D01*
X225138414Y-96338444D01*
X225138413Y-96338443D01*
X225138412Y-96338443D01*
X224936243Y-96272754D01*
X224936241Y-96272753D01*
X224936240Y-96272753D01*
X224774957Y-96247208D01*
X224726287Y-96239500D01*
X224513713Y-96239500D01*
X224465042Y-96247208D01*
X224303760Y-96272753D01*
X224101585Y-96338444D01*
X223912179Y-96434951D01*
X223740213Y-96559890D01*
X223589890Y-96710213D01*
X223464949Y-96882182D01*
X223460484Y-96890946D01*
X223412509Y-96941742D01*
X223344688Y-96958536D01*
X223278553Y-96935998D01*
X223239516Y-96890946D01*
X223235050Y-96882182D01*
X223110109Y-96710213D01*
X222959786Y-96559890D01*
X222787820Y-96434951D01*
X222598414Y-96338444D01*
X222598413Y-96338443D01*
X222598412Y-96338443D01*
X222396243Y-96272754D01*
X222396241Y-96272753D01*
X222396240Y-96272753D01*
X222234957Y-96247208D01*
X222186287Y-96239500D01*
X221973713Y-96239500D01*
X221925042Y-96247208D01*
X221763760Y-96272753D01*
X221561585Y-96338444D01*
X221372179Y-96434951D01*
X221200213Y-96559890D01*
X221049890Y-96710213D01*
X220924949Y-96882182D01*
X220920484Y-96890946D01*
X220872509Y-96941742D01*
X220804688Y-96958536D01*
X220738553Y-96935998D01*
X220699516Y-96890946D01*
X220695050Y-96882182D01*
X220570109Y-96710213D01*
X220419786Y-96559890D01*
X220247820Y-96434951D01*
X220058414Y-96338444D01*
X220058413Y-96338443D01*
X220058412Y-96338443D01*
X219856243Y-96272754D01*
X219856241Y-96272753D01*
X219856240Y-96272753D01*
X219694957Y-96247208D01*
X219646287Y-96239500D01*
X219433713Y-96239500D01*
X219385042Y-96247208D01*
X219223760Y-96272753D01*
X219021585Y-96338444D01*
X218832179Y-96434951D01*
X218660213Y-96559890D01*
X218509890Y-96710213D01*
X218384949Y-96882182D01*
X218380484Y-96890946D01*
X218332509Y-96941742D01*
X218264688Y-96958536D01*
X218198553Y-96935998D01*
X218159516Y-96890946D01*
X218155050Y-96882182D01*
X218030109Y-96710213D01*
X217879786Y-96559890D01*
X217707820Y-96434951D01*
X217518414Y-96338444D01*
X217518413Y-96338443D01*
X217518412Y-96338443D01*
X217316243Y-96272754D01*
X217316241Y-96272753D01*
X217316240Y-96272753D01*
X217154957Y-96247208D01*
X217106287Y-96239500D01*
X216893713Y-96239500D01*
X216845042Y-96247208D01*
X216683760Y-96272753D01*
X216481585Y-96338444D01*
X216292179Y-96434951D01*
X216120213Y-96559890D01*
X215969890Y-96710213D01*
X215844949Y-96882182D01*
X215840484Y-96890946D01*
X215792509Y-96941742D01*
X215724688Y-96958536D01*
X215658553Y-96935998D01*
X215619516Y-96890946D01*
X215615050Y-96882182D01*
X215490109Y-96710213D01*
X215339786Y-96559890D01*
X215167820Y-96434951D01*
X214978414Y-96338444D01*
X214978413Y-96338443D01*
X214978412Y-96338443D01*
X214776243Y-96272754D01*
X214776241Y-96272753D01*
X214776240Y-96272753D01*
X214614957Y-96247208D01*
X214566287Y-96239500D01*
X214353713Y-96239500D01*
X214305042Y-96247208D01*
X214143760Y-96272753D01*
X213941585Y-96338444D01*
X213752179Y-96434951D01*
X213580213Y-96559890D01*
X213429890Y-96710213D01*
X213304949Y-96882182D01*
X213300484Y-96890946D01*
X213252509Y-96941742D01*
X213184688Y-96958536D01*
X213118553Y-96935998D01*
X213079516Y-96890946D01*
X213075050Y-96882182D01*
X212950109Y-96710213D01*
X212799786Y-96559890D01*
X212627820Y-96434951D01*
X212438414Y-96338444D01*
X212438413Y-96338443D01*
X212438412Y-96338443D01*
X212236243Y-96272754D01*
X212236241Y-96272753D01*
X212236240Y-96272753D01*
X212074957Y-96247208D01*
X212026287Y-96239500D01*
X211813713Y-96239500D01*
X211765042Y-96247208D01*
X211603760Y-96272753D01*
X211401585Y-96338444D01*
X211212179Y-96434951D01*
X211040213Y-96559890D01*
X210889890Y-96710213D01*
X210764949Y-96882182D01*
X210760484Y-96890946D01*
X210712509Y-96941742D01*
X210644688Y-96958536D01*
X210578553Y-96935998D01*
X210539516Y-96890946D01*
X210535050Y-96882182D01*
X210410109Y-96710213D01*
X210259786Y-96559890D01*
X210087820Y-96434951D01*
X209898414Y-96338444D01*
X209898413Y-96338443D01*
X209898412Y-96338443D01*
X209696243Y-96272754D01*
X209696241Y-96272753D01*
X209696240Y-96272753D01*
X209534957Y-96247208D01*
X209486287Y-96239500D01*
X209273713Y-96239500D01*
X209225042Y-96247208D01*
X209063760Y-96272753D01*
X208861585Y-96338444D01*
X208672179Y-96434951D01*
X208500213Y-96559890D01*
X208349890Y-96710213D01*
X208224949Y-96882182D01*
X208220484Y-96890946D01*
X208172509Y-96941742D01*
X208104688Y-96958536D01*
X208038553Y-96935998D01*
X207999516Y-96890946D01*
X207995050Y-96882182D01*
X207870109Y-96710213D01*
X207719786Y-96559890D01*
X207547820Y-96434951D01*
X207358414Y-96338444D01*
X207358413Y-96338443D01*
X207358412Y-96338443D01*
X207156243Y-96272754D01*
X207156241Y-96272753D01*
X207156240Y-96272753D01*
X206994957Y-96247208D01*
X206946287Y-96239500D01*
X206733713Y-96239500D01*
X206685042Y-96247208D01*
X206523760Y-96272753D01*
X206321585Y-96338444D01*
X206132179Y-96434951D01*
X205960213Y-96559890D01*
X205809890Y-96710213D01*
X205684949Y-96882182D01*
X205680484Y-96890946D01*
X205632509Y-96941742D01*
X205564688Y-96958536D01*
X205498553Y-96935998D01*
X205459516Y-96890946D01*
X205455050Y-96882182D01*
X205330109Y-96710213D01*
X205179786Y-96559890D01*
X205007820Y-96434951D01*
X204818414Y-96338444D01*
X204818413Y-96338443D01*
X204818412Y-96338443D01*
X204616243Y-96272754D01*
X204616241Y-96272753D01*
X204616240Y-96272753D01*
X204454957Y-96247208D01*
X204406287Y-96239500D01*
X204193713Y-96239500D01*
X204145042Y-96247208D01*
X203983760Y-96272753D01*
X203781585Y-96338444D01*
X203592179Y-96434951D01*
X203420215Y-96559889D01*
X203306673Y-96673431D01*
X203245350Y-96706915D01*
X203175658Y-96701931D01*
X203119725Y-96660059D01*
X203102810Y-96629082D01*
X203053797Y-96497671D01*
X203053793Y-96497664D01*
X202967547Y-96382455D01*
X202967544Y-96382452D01*
X202852335Y-96296206D01*
X202852328Y-96296202D01*
X202717482Y-96245908D01*
X202717483Y-96245908D01*
X202657883Y-96239501D01*
X202657881Y-96239500D01*
X202657873Y-96239500D01*
X202657864Y-96239500D01*
X200862129Y-96239500D01*
X200862123Y-96239501D01*
X200802516Y-96245908D01*
X200667671Y-96296202D01*
X200667664Y-96296206D01*
X200552455Y-96382452D01*
X200552452Y-96382455D01*
X200466206Y-96497664D01*
X200466202Y-96497671D01*
X200415908Y-96632517D01*
X200409501Y-96692116D01*
X200409500Y-96692135D01*
X200001732Y-96692135D01*
X199961547Y-96638455D01*
X199961544Y-96638452D01*
X199846335Y-96552206D01*
X199846328Y-96552202D01*
X199711482Y-96501908D01*
X199711483Y-96501908D01*
X199651883Y-96495501D01*
X199651881Y-96495500D01*
X199651873Y-96495500D01*
X199651864Y-96495500D01*
X198048129Y-96495500D01*
X198048123Y-96495501D01*
X197988516Y-96501908D01*
X197853671Y-96552202D01*
X197853664Y-96552206D01*
X197738455Y-96638452D01*
X197738452Y-96638455D01*
X197652206Y-96753664D01*
X197652202Y-96753671D01*
X197601908Y-96888517D01*
X197597153Y-96932748D01*
X197595501Y-96948123D01*
X197595500Y-96948135D01*
X193318058Y-96948135D01*
X193306879Y-96932748D01*
X193271591Y-96897460D01*
X193267409Y-96892266D01*
X193256500Y-96865899D01*
X193242826Y-96840857D01*
X193243314Y-96834029D01*
X193240697Y-96827703D01*
X193245774Y-96799626D01*
X193247810Y-96771165D01*
X193251912Y-96765684D01*
X193253131Y-96758949D01*
X193272583Y-96738072D01*
X193289682Y-96715232D01*
X193296094Y-96712840D01*
X193300762Y-96707831D01*
X193328414Y-96700785D01*
X193355146Y-96690815D01*
X193363992Y-96690499D01*
X194697871Y-96690499D01*
X194697872Y-96690499D01*
X194757483Y-96684091D01*
X194892331Y-96633796D01*
X195007546Y-96547546D01*
X195093796Y-96432331D01*
X195144091Y-96297483D01*
X195150500Y-96237873D01*
X195150500Y-96061153D01*
X232059500Y-96061153D01*
X232059500Y-96218846D01*
X232090261Y-96373489D01*
X232090264Y-96373501D01*
X232150602Y-96519172D01*
X232150609Y-96519185D01*
X232238210Y-96650288D01*
X232238213Y-96650292D01*
X232349707Y-96761786D01*
X232349711Y-96761789D01*
X232480814Y-96849390D01*
X232480827Y-96849397D01*
X232626498Y-96909735D01*
X232626503Y-96909737D01*
X232758525Y-96935998D01*
X232781153Y-96940499D01*
X232781156Y-96940500D01*
X232781158Y-96940500D01*
X232938844Y-96940500D01*
X232938845Y-96940499D01*
X233093497Y-96909737D01*
X233239179Y-96849394D01*
X233370289Y-96761789D01*
X233481789Y-96650289D01*
X233569394Y-96519179D01*
X233629737Y-96373497D01*
X233660500Y-96218842D01*
X233660500Y-96061158D01*
X233660500Y-96061155D01*
X233660499Y-96061153D01*
X233630117Y-95908414D01*
X233629737Y-95906503D01*
X233629735Y-95906498D01*
X233569397Y-95760827D01*
X233569390Y-95760814D01*
X233481789Y-95629711D01*
X233481786Y-95629707D01*
X233370292Y-95518213D01*
X233370288Y-95518210D01*
X233239185Y-95430609D01*
X233239172Y-95430602D01*
X233093501Y-95370264D01*
X233093489Y-95370261D01*
X232938845Y-95339500D01*
X232938842Y-95339500D01*
X232781158Y-95339500D01*
X232781155Y-95339500D01*
X232626510Y-95370261D01*
X232626498Y-95370264D01*
X232480827Y-95430602D01*
X232480814Y-95430609D01*
X232349711Y-95518210D01*
X232349707Y-95518213D01*
X232238213Y-95629707D01*
X232238210Y-95629711D01*
X232150609Y-95760814D01*
X232150602Y-95760827D01*
X232090264Y-95906498D01*
X232090261Y-95906510D01*
X232059500Y-96061153D01*
X195150500Y-96061153D01*
X195150499Y-95157483D01*
X195150499Y-94821153D01*
X224319500Y-94821153D01*
X224319500Y-94978846D01*
X224350261Y-95133489D01*
X224350264Y-95133501D01*
X224410602Y-95279172D01*
X224410609Y-95279185D01*
X224498210Y-95410288D01*
X224498213Y-95410292D01*
X224609707Y-95521786D01*
X224609711Y-95521789D01*
X224740814Y-95609390D01*
X224740827Y-95609397D01*
X224886498Y-95669735D01*
X224886503Y-95669737D01*
X225041153Y-95700499D01*
X225041156Y-95700500D01*
X225041158Y-95700500D01*
X225198844Y-95700500D01*
X225198845Y-95700499D01*
X225353497Y-95669737D01*
X225499179Y-95609394D01*
X225630289Y-95521789D01*
X225630293Y-95521784D01*
X225635245Y-95518476D01*
X225701923Y-95497598D01*
X225769303Y-95516082D01*
X225791818Y-95533897D01*
X225879707Y-95621786D01*
X225879711Y-95621789D01*
X226010814Y-95709390D01*
X226010827Y-95709397D01*
X226134992Y-95760827D01*
X226156503Y-95769737D01*
X226311153Y-95800499D01*
X226311156Y-95800500D01*
X226311158Y-95800500D01*
X226468844Y-95800500D01*
X226468845Y-95800499D01*
X226623497Y-95769737D01*
X226769179Y-95709394D01*
X226900289Y-95621789D01*
X227011789Y-95510289D01*
X227099394Y-95379179D01*
X227159737Y-95233497D01*
X227190500Y-95078842D01*
X227190500Y-94921158D01*
X227190500Y-94921155D01*
X227190499Y-94921153D01*
X227180639Y-94871585D01*
X227159737Y-94766503D01*
X227159735Y-94766498D01*
X227099397Y-94620827D01*
X227099390Y-94620814D01*
X227011789Y-94489711D01*
X227011786Y-94489707D01*
X226900292Y-94378213D01*
X226900288Y-94378210D01*
X226769185Y-94290609D01*
X226769172Y-94290602D01*
X226623501Y-94230264D01*
X226623489Y-94230261D01*
X226468845Y-94199500D01*
X226468842Y-94199500D01*
X226311158Y-94199500D01*
X226311155Y-94199500D01*
X226156510Y-94230261D01*
X226156498Y-94230264D01*
X226010827Y-94290602D01*
X226010814Y-94290609D01*
X225874753Y-94381523D01*
X225808075Y-94402401D01*
X225740695Y-94383916D01*
X225718181Y-94366102D01*
X225630292Y-94278213D01*
X225630288Y-94278210D01*
X225499185Y-94190609D01*
X225499172Y-94190602D01*
X225353501Y-94130264D01*
X225353489Y-94130261D01*
X225198845Y-94099500D01*
X225198842Y-94099500D01*
X225041158Y-94099500D01*
X225041155Y-94099500D01*
X224886510Y-94130261D01*
X224886498Y-94130264D01*
X224740827Y-94190602D01*
X224740814Y-94190609D01*
X224609711Y-94278210D01*
X224609707Y-94278213D01*
X224498213Y-94389707D01*
X224498210Y-94389711D01*
X224410609Y-94520814D01*
X224410602Y-94520827D01*
X224350264Y-94666498D01*
X224350261Y-94666510D01*
X224319500Y-94821153D01*
X195150499Y-94821153D01*
X195150499Y-94142129D01*
X195150498Y-94142123D01*
X195150497Y-94142116D01*
X195144091Y-94082517D01*
X195131424Y-94048556D01*
X195093797Y-93947671D01*
X195093795Y-93947667D01*
X195087590Y-93939379D01*
X195036516Y-93871153D01*
X212069500Y-93871153D01*
X212069500Y-94028846D01*
X212100261Y-94183489D01*
X212100264Y-94183501D01*
X212160602Y-94329172D01*
X212160609Y-94329185D01*
X212248210Y-94460288D01*
X212248213Y-94460292D01*
X212359707Y-94571786D01*
X212359711Y-94571789D01*
X212490814Y-94659390D01*
X212490827Y-94659397D01*
X212545841Y-94682184D01*
X212636503Y-94719737D01*
X212791153Y-94750499D01*
X212791156Y-94750500D01*
X212791158Y-94750500D01*
X212948844Y-94750500D01*
X212948845Y-94750499D01*
X213103497Y-94719737D01*
X213249179Y-94659394D01*
X213380289Y-94571789D01*
X213491789Y-94460289D01*
X213579394Y-94329179D01*
X213639737Y-94183497D01*
X213670500Y-94028842D01*
X213670500Y-93871158D01*
X213670500Y-93871155D01*
X213670499Y-93871153D01*
X213645645Y-93746204D01*
X213639737Y-93716503D01*
X213631206Y-93695908D01*
X213579397Y-93570827D01*
X213579390Y-93570814D01*
X213491789Y-93439711D01*
X213491786Y-93439707D01*
X213380292Y-93328213D01*
X213380288Y-93328210D01*
X213249185Y-93240609D01*
X213249172Y-93240602D01*
X213103501Y-93180264D01*
X213103489Y-93180261D01*
X212948845Y-93149500D01*
X212948842Y-93149500D01*
X212791158Y-93149500D01*
X212791155Y-93149500D01*
X212636510Y-93180261D01*
X212636498Y-93180264D01*
X212490827Y-93240602D01*
X212490814Y-93240609D01*
X212359711Y-93328210D01*
X212359707Y-93328213D01*
X212248213Y-93439707D01*
X212248210Y-93439711D01*
X212160609Y-93570814D01*
X212160602Y-93570827D01*
X212100264Y-93716498D01*
X212100261Y-93716510D01*
X212069500Y-93871153D01*
X195036516Y-93871153D01*
X195007546Y-93832454D01*
X194984709Y-93815358D01*
X194892335Y-93746206D01*
X194892328Y-93746202D01*
X194757482Y-93695908D01*
X194757483Y-93695908D01*
X194697883Y-93689501D01*
X194697881Y-93689500D01*
X194697873Y-93689500D01*
X194697864Y-93689500D01*
X192602129Y-93689500D01*
X192602123Y-93689501D01*
X192542516Y-93695908D01*
X192407671Y-93746202D01*
X192407664Y-93746206D01*
X192292455Y-93832452D01*
X192292452Y-93832455D01*
X192206206Y-93947664D01*
X192206202Y-93947671D01*
X192155908Y-94082517D01*
X192150775Y-94130264D01*
X192149501Y-94142123D01*
X192149500Y-94142135D01*
X192149500Y-96237870D01*
X192149501Y-96237876D01*
X192155909Y-96297485D01*
X192177969Y-96356633D01*
X192182953Y-96426325D01*
X192149467Y-96487648D01*
X192088143Y-96521132D01*
X192081187Y-96522438D01*
X192056234Y-96526390D01*
X191868441Y-96587408D01*
X191692496Y-96677057D01*
X191628019Y-96723902D01*
X191562213Y-96747381D01*
X191494159Y-96731555D01*
X191445465Y-96681449D01*
X191431135Y-96623245D01*
X191446631Y-90966213D01*
X197252000Y-90966213D01*
X197252000Y-91178787D01*
X197285254Y-91388743D01*
X197350842Y-91590602D01*
X197350944Y-91590914D01*
X197447451Y-91780320D01*
X197572390Y-91952286D01*
X197722713Y-92102609D01*
X197894679Y-92227548D01*
X197894681Y-92227549D01*
X197894684Y-92227551D01*
X198084088Y-92324057D01*
X198286257Y-92389746D01*
X198496213Y-92423000D01*
X198496214Y-92423000D01*
X198708786Y-92423000D01*
X198708787Y-92423000D01*
X198918743Y-92389746D01*
X199120912Y-92324057D01*
X199310316Y-92227551D01*
X199377951Y-92178412D01*
X199402615Y-92160493D01*
X199468421Y-92137013D01*
X199536475Y-92152839D01*
X199585170Y-92202945D01*
X199599500Y-92260811D01*
X199599500Y-92378846D01*
X199630261Y-92533489D01*
X199630264Y-92533501D01*
X199690602Y-92679172D01*
X199690609Y-92679185D01*
X199778210Y-92810288D01*
X199778213Y-92810292D01*
X199889707Y-92921786D01*
X199889711Y-92921789D01*
X200020814Y-93009390D01*
X200020827Y-93009397D01*
X200166498Y-93069735D01*
X200166503Y-93069737D01*
X200321153Y-93100499D01*
X200321156Y-93100500D01*
X200321158Y-93100500D01*
X200478844Y-93100500D01*
X200478845Y-93100499D01*
X200633497Y-93069737D01*
X200779179Y-93009394D01*
X200910289Y-92921789D01*
X201021789Y-92810289D01*
X201109394Y-92679179D01*
X201162424Y-92551153D01*
X225914500Y-92551153D01*
X225914500Y-92708846D01*
X225945261Y-92863489D01*
X225945264Y-92863501D01*
X226005602Y-93009172D01*
X226005609Y-93009185D01*
X226093210Y-93140288D01*
X226093213Y-93140292D01*
X226204707Y-93251786D01*
X226204711Y-93251789D01*
X226335814Y-93339390D01*
X226335827Y-93339397D01*
X226481498Y-93399735D01*
X226481503Y-93399737D01*
X226636153Y-93430499D01*
X226636156Y-93430500D01*
X226636158Y-93430500D01*
X226793844Y-93430500D01*
X226793845Y-93430499D01*
X226948497Y-93399737D01*
X227094179Y-93339394D01*
X227225289Y-93251789D01*
X227336789Y-93140289D01*
X227424394Y-93009179D01*
X227431323Y-92992452D01*
X227484735Y-92863501D01*
X227484737Y-92863497D01*
X227515500Y-92708842D01*
X227515500Y-92551158D01*
X227515500Y-92551155D01*
X227515499Y-92551153D01*
X227509476Y-92520874D01*
X227484737Y-92396503D01*
X227477423Y-92378846D01*
X227424397Y-92250827D01*
X227424390Y-92250814D01*
X227336789Y-92119711D01*
X227336786Y-92119707D01*
X227225292Y-92008213D01*
X227225288Y-92008210D01*
X227094185Y-91920609D01*
X227094172Y-91920602D01*
X226948501Y-91860264D01*
X226948489Y-91860261D01*
X226793845Y-91829500D01*
X226793842Y-91829500D01*
X226636158Y-91829500D01*
X226636155Y-91829500D01*
X226481510Y-91860261D01*
X226481498Y-91860264D01*
X226335827Y-91920602D01*
X226335814Y-91920609D01*
X226204711Y-92008210D01*
X226204707Y-92008213D01*
X226093213Y-92119707D01*
X226093210Y-92119711D01*
X226005609Y-92250814D01*
X226005602Y-92250827D01*
X225945264Y-92396498D01*
X225945261Y-92396510D01*
X225914500Y-92551153D01*
X201162424Y-92551153D01*
X201169737Y-92533497D01*
X201198331Y-92389746D01*
X201200500Y-92378844D01*
X201200500Y-92221155D01*
X201200499Y-92221153D01*
X201169738Y-92066510D01*
X201169737Y-92066503D01*
X201145592Y-92008211D01*
X201109397Y-91920827D01*
X201109390Y-91920814D01*
X201021789Y-91789711D01*
X201021786Y-91789707D01*
X200910292Y-91678213D01*
X200910288Y-91678210D01*
X200779185Y-91590609D01*
X200779172Y-91590602D01*
X200633501Y-91530264D01*
X200633489Y-91530261D01*
X200478845Y-91499500D01*
X200478842Y-91499500D01*
X200321158Y-91499500D01*
X200321155Y-91499500D01*
X200166510Y-91530261D01*
X200166503Y-91530263D01*
X200076737Y-91567444D01*
X200007268Y-91574911D01*
X199944789Y-91543636D01*
X199909137Y-91483546D01*
X199911355Y-91414565D01*
X199919746Y-91388743D01*
X199953000Y-91178787D01*
X199953000Y-91061153D01*
X232653084Y-91061153D01*
X232653084Y-91218846D01*
X232683845Y-91373489D01*
X232683848Y-91373501D01*
X232744186Y-91519172D01*
X232744193Y-91519185D01*
X232831794Y-91650288D01*
X232831797Y-91650292D01*
X232943291Y-91761786D01*
X232943295Y-91761789D01*
X233074398Y-91849390D01*
X233074411Y-91849397D01*
X233183564Y-91894609D01*
X233220087Y-91909737D01*
X233374737Y-91940499D01*
X233374740Y-91940500D01*
X233374742Y-91940500D01*
X233532428Y-91940500D01*
X233532429Y-91940499D01*
X233687081Y-91909737D01*
X233832763Y-91849394D01*
X233963873Y-91761789D01*
X234029116Y-91696545D01*
X234090437Y-91663062D01*
X234160129Y-91668046D01*
X234216063Y-91709917D01*
X234239269Y-91764830D01*
X234271210Y-91966500D01*
X234272754Y-91976243D01*
X234319368Y-92119707D01*
X234338444Y-92178414D01*
X234434951Y-92367820D01*
X234559890Y-92539786D01*
X234673430Y-92653326D01*
X234706915Y-92714649D01*
X234701931Y-92784341D01*
X234660059Y-92840274D01*
X234629083Y-92857189D01*
X234497669Y-92906203D01*
X234497664Y-92906206D01*
X234382455Y-92992452D01*
X234382452Y-92992455D01*
X234296206Y-93107664D01*
X234296202Y-93107671D01*
X234245908Y-93242517D01*
X234239501Y-93302116D01*
X234239501Y-93302123D01*
X234239500Y-93302135D01*
X234239500Y-95097870D01*
X234239501Y-95097876D01*
X234245908Y-95157483D01*
X234296202Y-95292328D01*
X234296206Y-95292335D01*
X234382452Y-95407544D01*
X234382455Y-95407547D01*
X234497664Y-95493793D01*
X234497671Y-95493797D01*
X234632517Y-95544091D01*
X234632516Y-95544091D01*
X234639444Y-95544835D01*
X234692127Y-95550500D01*
X236487872Y-95550499D01*
X236547483Y-95544091D01*
X236682331Y-95493796D01*
X236797546Y-95407546D01*
X236883796Y-95292331D01*
X236934091Y-95157483D01*
X236940500Y-95097873D01*
X236940499Y-93302128D01*
X236934091Y-93242517D01*
X236933379Y-93240609D01*
X236883797Y-93107671D01*
X236883793Y-93107664D01*
X236797547Y-92992455D01*
X236797544Y-92992452D01*
X236682335Y-92906206D01*
X236682328Y-92906202D01*
X236550917Y-92857189D01*
X236494983Y-92815318D01*
X236470566Y-92749853D01*
X236485418Y-92681580D01*
X236506563Y-92653332D01*
X236620104Y-92539792D01*
X236624487Y-92533760D01*
X236745048Y-92367820D01*
X236745047Y-92367820D01*
X236745051Y-92367816D01*
X236841557Y-92178412D01*
X236907246Y-91976243D01*
X236940500Y-91766287D01*
X236940500Y-91553713D01*
X236907246Y-91343757D01*
X236841557Y-91141588D01*
X236745051Y-90952184D01*
X236745049Y-90952181D01*
X236745048Y-90952179D01*
X236620109Y-90780213D01*
X236469786Y-90629890D01*
X236297820Y-90504951D01*
X236108414Y-90408444D01*
X236108413Y-90408443D01*
X236108412Y-90408443D01*
X235906243Y-90342754D01*
X235906241Y-90342753D01*
X235906240Y-90342753D01*
X235744957Y-90317208D01*
X235696287Y-90309500D01*
X235483713Y-90309500D01*
X235435042Y-90317208D01*
X235273760Y-90342753D01*
X235071585Y-90408444D01*
X234882179Y-90504951D01*
X234710213Y-90629890D01*
X234559894Y-90780209D01*
X234559890Y-90780214D01*
X234442015Y-90942456D01*
X234386685Y-90985122D01*
X234317072Y-90991101D01*
X234255277Y-90958495D01*
X234226757Y-90911671D01*
X234225652Y-90912130D01*
X234162981Y-90760827D01*
X234162974Y-90760814D01*
X234075373Y-90629711D01*
X234075370Y-90629707D01*
X233963876Y-90518213D01*
X233963872Y-90518210D01*
X233832769Y-90430609D01*
X233832756Y-90430602D01*
X233687085Y-90370264D01*
X233687073Y-90370261D01*
X233532429Y-90339500D01*
X233532426Y-90339500D01*
X233374742Y-90339500D01*
X233374739Y-90339500D01*
X233220094Y-90370261D01*
X233220082Y-90370264D01*
X233074411Y-90430602D01*
X233074398Y-90430609D01*
X232943295Y-90518210D01*
X232943291Y-90518213D01*
X232831797Y-90629707D01*
X232831794Y-90629711D01*
X232744193Y-90760814D01*
X232744186Y-90760827D01*
X232683848Y-90906498D01*
X232683845Y-90906510D01*
X232653084Y-91061153D01*
X199953000Y-91061153D01*
X199953000Y-90966213D01*
X199919746Y-90756257D01*
X199854057Y-90554088D01*
X199757551Y-90364684D01*
X199757549Y-90364681D01*
X199757548Y-90364679D01*
X199632609Y-90192713D01*
X199482286Y-90042390D01*
X199310320Y-89917451D01*
X199120914Y-89820944D01*
X199120913Y-89820943D01*
X199120912Y-89820943D01*
X198918743Y-89755254D01*
X198918741Y-89755253D01*
X198918740Y-89755253D01*
X198757457Y-89729708D01*
X198708787Y-89722000D01*
X198496213Y-89722000D01*
X198447542Y-89729708D01*
X198286260Y-89755253D01*
X198084085Y-89820944D01*
X197894679Y-89917451D01*
X197722713Y-90042390D01*
X197572390Y-90192713D01*
X197447451Y-90364679D01*
X197350944Y-90554085D01*
X197285253Y-90756260D01*
X197252000Y-90966213D01*
X191446631Y-90966213D01*
X191459440Y-86290135D01*
X192149500Y-86290135D01*
X192149500Y-88385870D01*
X192149501Y-88385876D01*
X192155908Y-88445483D01*
X192206202Y-88580328D01*
X192206206Y-88580335D01*
X192292452Y-88695544D01*
X192292455Y-88695547D01*
X192407664Y-88781793D01*
X192407671Y-88781797D01*
X192542517Y-88832091D01*
X192542516Y-88832091D01*
X192549444Y-88832835D01*
X192602127Y-88838500D01*
X194697872Y-88838499D01*
X194757483Y-88832091D01*
X194892331Y-88781796D01*
X195007546Y-88695546D01*
X195093796Y-88580331D01*
X195144091Y-88445483D01*
X195150500Y-88385873D01*
X195150499Y-86290128D01*
X195144411Y-86233497D01*
X195144091Y-86230516D01*
X195093797Y-86095671D01*
X195093793Y-86095664D01*
X195007547Y-85980455D01*
X195007544Y-85980452D01*
X194892335Y-85894206D01*
X194892328Y-85894202D01*
X194757482Y-85843908D01*
X194757483Y-85843908D01*
X194697883Y-85837501D01*
X194697881Y-85837500D01*
X194697873Y-85837500D01*
X194697864Y-85837500D01*
X192602129Y-85837500D01*
X192602123Y-85837501D01*
X192542516Y-85843908D01*
X192407671Y-85894202D01*
X192407664Y-85894206D01*
X192292455Y-85980452D01*
X192292452Y-85980455D01*
X192206206Y-86095664D01*
X192206202Y-86095671D01*
X192155908Y-86230517D01*
X192149501Y-86290116D01*
X192149501Y-86290123D01*
X192149500Y-86290135D01*
X191459440Y-86290135D01*
X191481129Y-78372135D01*
X192069500Y-78372135D01*
X192069500Y-80467870D01*
X192069501Y-80467876D01*
X192075908Y-80527483D01*
X192126202Y-80662328D01*
X192126206Y-80662335D01*
X192212452Y-80777544D01*
X192212455Y-80777547D01*
X192327664Y-80863793D01*
X192327671Y-80863797D01*
X192462517Y-80914091D01*
X192462516Y-80914091D01*
X192469444Y-80914835D01*
X192522127Y-80920500D01*
X194617872Y-80920499D01*
X194677483Y-80914091D01*
X194812331Y-80863796D01*
X194927546Y-80777546D01*
X195013796Y-80662331D01*
X195064091Y-80527483D01*
X195070500Y-80467873D01*
X195070499Y-78372128D01*
X195064091Y-78312517D01*
X195062754Y-78308933D01*
X195013797Y-78177671D01*
X195013793Y-78177664D01*
X194927547Y-78062455D01*
X194927544Y-78062452D01*
X194812335Y-77976206D01*
X194812328Y-77976202D01*
X194677482Y-77925908D01*
X194677483Y-77925908D01*
X194617883Y-77919501D01*
X194617881Y-77919500D01*
X194617873Y-77919500D01*
X194617864Y-77919500D01*
X192522129Y-77919500D01*
X192522123Y-77919501D01*
X192462516Y-77925908D01*
X192327671Y-77976202D01*
X192327664Y-77976206D01*
X192212455Y-78062452D01*
X192212452Y-78062455D01*
X192126206Y-78177664D01*
X192126202Y-78177671D01*
X192075908Y-78312517D01*
X192069501Y-78372116D01*
X192069501Y-78372123D01*
X192069500Y-78372135D01*
X191481129Y-78372135D01*
X191491182Y-74702135D01*
X192379500Y-74702135D01*
X192379500Y-76797870D01*
X192379501Y-76797876D01*
X192385908Y-76857483D01*
X192436202Y-76992328D01*
X192436206Y-76992335D01*
X192522452Y-77107544D01*
X192522455Y-77107547D01*
X192637664Y-77193793D01*
X192637671Y-77193797D01*
X192772517Y-77244091D01*
X192772516Y-77244091D01*
X192779444Y-77244835D01*
X192832127Y-77250500D01*
X194927872Y-77250499D01*
X194987483Y-77244091D01*
X195122331Y-77193796D01*
X195237546Y-77107546D01*
X195323796Y-76992331D01*
X195374091Y-76857483D01*
X195380500Y-76797873D01*
X195380499Y-74702128D01*
X195374091Y-74642517D01*
X195362061Y-74610264D01*
X195323797Y-74507671D01*
X195323793Y-74507664D01*
X195237547Y-74392455D01*
X195237544Y-74392452D01*
X195122335Y-74306206D01*
X195122328Y-74306202D01*
X194987482Y-74255908D01*
X194987483Y-74255908D01*
X194927883Y-74249501D01*
X194927881Y-74249500D01*
X194927873Y-74249500D01*
X194927864Y-74249500D01*
X192832129Y-74249500D01*
X192832123Y-74249501D01*
X192772516Y-74255908D01*
X192637671Y-74306202D01*
X192637664Y-74306206D01*
X192522455Y-74392452D01*
X192522452Y-74392455D01*
X192436206Y-74507664D01*
X192436202Y-74507671D01*
X192385908Y-74642517D01*
X192379501Y-74702116D01*
X192379501Y-74702123D01*
X192379500Y-74702135D01*
X191491182Y-74702135D01*
X191498792Y-71924159D01*
X191518661Y-71857175D01*
X191571590Y-71811565D01*
X191622792Y-71800500D01*
X198041191Y-71800500D01*
X198108230Y-71820185D01*
G37*
%TD.AperFunction*%
%TD*%
M02*
