%TF.GenerationSoftware,KiCad,Pcbnew,9.0.6*%
%TF.CreationDate,2025-11-30T21:08:30+05:30*%
%TF.ProjectId,Mini_Drone,4d696e69-5f44-4726-9f6e-652e6b696361,rev?*%
%TF.SameCoordinates,Original*%
%TF.FileFunction,Soldermask,Bot*%
%TF.FilePolarity,Negative*%
%FSLAX46Y46*%
G04 Gerber Fmt 4.6, Leading zero omitted, Abs format (unit mm)*
G04 Created by KiCad (PCBNEW 9.0.6) date 2025-11-30 21:08:30*
%MOMM*%
%LPD*%
G01*
G04 APERTURE LIST*
G04 Aperture macros list*
%AMRoundRect*
0 Rectangle with rounded corners*
0 $1 Rounding radius*
0 $2 $3 $4 $5 $6 $7 $8 $9 X,Y pos of 4 corners*
0 Add a 4 corners polygon primitive as box body*
4,1,4,$2,$3,$4,$5,$6,$7,$8,$9,$2,$3,0*
0 Add four circle primitives for the rounded corners*
1,1,$1+$1,$2,$3*
1,1,$1+$1,$4,$5*
1,1,$1+$1,$6,$7*
1,1,$1+$1,$8,$9*
0 Add four rect primitives between the rounded corners*
20,1,$1+$1,$2,$3,$4,$5,0*
20,1,$1+$1,$4,$5,$6,$7,0*
20,1,$1+$1,$6,$7,$8,$9,0*
20,1,$1+$1,$8,$9,$2,$3,0*%
G04 Aperture macros list end*
%ADD10R,2.000000X2.000000*%
%ADD11C,0.500000*%
%ADD12RoundRect,0.102000X0.754000X0.754000X-0.754000X0.754000X-0.754000X-0.754000X0.754000X-0.754000X0*%
%ADD13C,1.712000*%
%ADD14RoundRect,0.250000X-0.750000X0.600000X-0.750000X-0.600000X0.750000X-0.600000X0.750000X0.600000X0*%
%ADD15O,2.000000X1.700000*%
%ADD16RoundRect,0.102000X-1.387500X-1.387500X1.387500X-1.387500X1.387500X1.387500X-1.387500X1.387500X0*%
%ADD17C,2.979000*%
%ADD18R,1.700000X1.700000*%
%ADD19C,1.700000*%
%ADD20C,1.904000*%
G04 APERTURE END LIST*
D10*
%TO.C,TP18*%
X193880000Y-75750000D03*
%TD*%
%TO.C,TP27*%
X243890000Y-83278000D03*
%TD*%
D11*
%TO.C,REF\u002A\u002A*%
X209200000Y-107250000D03*
X210050000Y-107250000D03*
X210900000Y-107250000D03*
X211750000Y-107250000D03*
X212600000Y-107250000D03*
%TD*%
D10*
%TO.C,TP21*%
X243890000Y-86872000D03*
%TD*%
D11*
%TO.C,REF\u002A\u002A*%
X238200000Y-107250000D03*
X239050000Y-107250000D03*
X239900000Y-107250000D03*
X240750000Y-107250000D03*
X241600000Y-107250000D03*
%TD*%
D10*
%TO.C,TP25*%
X243890000Y-90466000D03*
%TD*%
D12*
%TO.C,S1*%
X236450000Y-98450000D03*
D13*
X229950000Y-98450000D03*
X236450000Y-102950000D03*
X229950000Y-102950000D03*
%TD*%
D10*
%TO.C,TP29*%
X243890000Y-94060000D03*
%TD*%
%TO.C,TP22*%
X193570000Y-79420000D03*
%TD*%
D14*
%TO.C,J3*%
X204300000Y-86500000D03*
D15*
X204300000Y-89000000D03*
%TD*%
D11*
%TO.C,REF\u002A\u002A*%
X223800000Y-107250000D03*
X224650000Y-107250000D03*
X225500000Y-107250000D03*
X226350000Y-107250000D03*
X227200000Y-107250000D03*
%TD*%
D16*
%TO.C,S2*%
X210300000Y-103000000D03*
D17*
X215000000Y-103000000D03*
X219700000Y-103000000D03*
%TD*%
D10*
%TO.C,TP23*%
X243890000Y-79684000D03*
%TD*%
%TO.C,TP28*%
X193650000Y-91264000D03*
%TD*%
%TO.C,TP24*%
X193650000Y-95190000D03*
%TD*%
D18*
%TO.C,J8*%
X201760000Y-97590000D03*
D19*
X204300000Y-97590000D03*
X206840000Y-97590000D03*
X209380000Y-97590000D03*
X211920000Y-97590000D03*
X214460000Y-97590000D03*
X217000000Y-97590000D03*
X219540000Y-97590000D03*
X222080000Y-97590000D03*
X224620000Y-97590000D03*
X227160000Y-97590000D03*
%TD*%
D10*
%TO.C,TP26*%
X193670000Y-83250000D03*
%TD*%
D18*
%TO.C,J7*%
X239650000Y-100470000D03*
D19*
X239650000Y-97930000D03*
X239650000Y-95390000D03*
X239650000Y-92850000D03*
X239650000Y-90310000D03*
X239650000Y-87770000D03*
X239650000Y-85230000D03*
X239650000Y-82690000D03*
X239650000Y-80150000D03*
X239650000Y-77610000D03*
X239650000Y-75070000D03*
%TD*%
D12*
%TO.C,S3*%
X198850000Y-97750000D03*
D13*
X192350000Y-97750000D03*
X198850000Y-102250000D03*
X192350000Y-102250000D03*
%TD*%
D18*
%TO.C,J1*%
X235590000Y-94200000D03*
D19*
X235590000Y-91660000D03*
%TD*%
D10*
%TO.C,TP20*%
X243890000Y-76090000D03*
%TD*%
D11*
%TO.C,REF\u002A\u002A*%
X195800000Y-107250000D03*
X196650000Y-107250000D03*
X197500000Y-107250000D03*
X198350000Y-107250000D03*
X199200000Y-107250000D03*
%TD*%
D10*
%TO.C,TP19*%
X193650000Y-87338000D03*
%TD*%
D18*
%TO.C,J4*%
X235500000Y-75150000D03*
D19*
X235500000Y-77690000D03*
X235500000Y-80230000D03*
X235500000Y-82770000D03*
X235500000Y-85310000D03*
X235500000Y-87850000D03*
%TD*%
D20*
%TO.C,U2*%
X198602500Y-75832500D03*
X198602500Y-88532500D03*
X198602500Y-73292500D03*
X198602500Y-85992500D03*
X198602500Y-83452500D03*
X198602500Y-91072500D03*
X198602500Y-78372500D03*
X198602500Y-80912500D03*
%TD*%
M02*
