%TF.GenerationSoftware,KiCad,Pcbnew,9.0.6*%
%TF.CreationDate,2025-11-30T21:08:30+05:30*%
%TF.ProjectId,Mini_Drone,4d696e69-5f44-4726-9f6e-652e6b696361,rev?*%
%TF.SameCoordinates,Original*%
%TF.FileFunction,Profile,NP*%
%FSLAX46Y46*%
G04 Gerber Fmt 4.6, Leading zero omitted, Abs format (unit mm)*
G04 Created by KiCad (PCBNEW 9.0.6) date 2025-11-30 21:08:30*
%MOMM*%
%LPD*%
G01*
G04 APERTURE LIST*
%TA.AperFunction,Profile*%
%ADD10C,0.050000*%
%TD*%
%TA.AperFunction,Profile*%
%ADD11C,0.100000*%
%TD*%
G04 APERTURE END LIST*
D10*
X191000000Y-71300000D02*
X190905000Y-105981250D01*
X204905000Y-121981250D02*
X204905000Y-106981250D01*
X211900000Y-106000000D02*
X224500000Y-106000000D01*
X195500000Y-107000000D02*
X191492500Y-106957500D01*
X241900000Y-107000000D02*
X245905000Y-106981250D01*
X231405000Y-121986250D02*
X231405000Y-106986250D01*
X227500000Y-107000000D02*
X231405000Y-106986250D01*
X245905000Y-121871250D02*
X233905000Y-121871250D01*
X212900000Y-107000000D02*
X216905000Y-106981250D01*
X198500000Y-106000000D02*
X209900000Y-106000000D01*
X233900000Y-107000000D02*
X237900000Y-107000000D01*
X245905000Y-106981250D02*
X245905000Y-121871250D01*
X199492500Y-107000000D02*
X203492500Y-106957500D01*
X191492500Y-121957500D02*
X191492500Y-106957500D01*
X240900000Y-106000000D02*
X245904403Y-106000000D01*
X219405000Y-106986250D02*
X219405000Y-121986250D01*
X216905000Y-106981250D02*
X216905000Y-121981250D01*
X190905000Y-105981250D02*
X196500000Y-106000000D01*
X216905000Y-121981250D02*
X204905000Y-121981250D01*
X245904403Y-106000000D02*
X245905000Y-71300000D01*
X238900000Y-106000000D02*
X226500000Y-106000000D01*
X233900000Y-107000000D02*
X233905000Y-121871250D01*
X219405000Y-121986250D02*
X231405000Y-121986250D01*
X204905000Y-106981250D02*
X208900000Y-107000000D01*
X191000000Y-71300000D02*
X245905000Y-71300000D01*
X219405000Y-106986250D02*
X223500000Y-107000000D01*
X203492500Y-121957500D02*
X191492500Y-121957500D01*
X203492500Y-106957500D02*
X203492500Y-121957500D01*
D11*
%TO.C,REF\u002A\u002A*%
X209900000Y-106000000D02*
G75*
G02*
X208900000Y-107000000I-999999J-1D01*
G01*
X212900000Y-107000000D02*
G75*
G02*
X211900000Y-106000000I0J1000000D01*
G01*
X238900000Y-106000000D02*
G75*
G02*
X237900000Y-107000000I-999999J-1D01*
G01*
X241900000Y-107000000D02*
G75*
G02*
X240900000Y-106000000I0J1000000D01*
G01*
X224500000Y-106000000D02*
G75*
G02*
X223500000Y-107000000I-999999J-1D01*
G01*
X227500000Y-107000000D02*
G75*
G02*
X226500000Y-106000000I0J1000000D01*
G01*
X196500000Y-106000000D02*
G75*
G02*
X195500000Y-107000000I-999999J-1D01*
G01*
X199500000Y-107000000D02*
G75*
G02*
X198500000Y-106000000I0J1000000D01*
G01*
%TD*%
M02*
