%TF.GenerationSoftware,KiCad,Pcbnew,9.0.6*%
%TF.CreationDate,2025-11-30T21:08:30+05:30*%
%TF.ProjectId,Mini_Drone,4d696e69-5f44-4726-9f6e-652e6b696361,rev?*%
%TF.SameCoordinates,Original*%
%TF.FileFunction,Soldermask,Top*%
%TF.FilePolarity,Negative*%
%FSLAX46Y46*%
G04 Gerber Fmt 4.6, Leading zero omitted, Abs format (unit mm)*
G04 Created by KiCad (PCBNEW 9.0.6) date 2025-11-30 21:08:30*
%MOMM*%
%LPD*%
G01*
G04 APERTURE LIST*
G04 Aperture macros list*
%AMRoundRect*
0 Rectangle with rounded corners*
0 $1 Rounding radius*
0 $2 $3 $4 $5 $6 $7 $8 $9 X,Y pos of 4 corners*
0 Add a 4 corners polygon primitive as box body*
4,1,4,$2,$3,$4,$5,$6,$7,$8,$9,$2,$3,0*
0 Add four circle primitives for the rounded corners*
1,1,$1+$1,$2,$3*
1,1,$1+$1,$4,$5*
1,1,$1+$1,$6,$7*
1,1,$1+$1,$8,$9*
0 Add four rect primitives between the rounded corners*
20,1,$1+$1,$2,$3,$4,$5,0*
20,1,$1+$1,$4,$5,$6,$7,0*
20,1,$1+$1,$6,$7,$8,$9,0*
20,1,$1+$1,$8,$9,$2,$3,0*%
G04 Aperture macros list end*
%ADD10C,1.000000*%
%ADD11RoundRect,0.200000X0.275000X-0.200000X0.275000X0.200000X-0.275000X0.200000X-0.275000X-0.200000X0*%
%ADD12R,2.000000X2.000000*%
%ADD13RoundRect,0.225000X-0.225000X-0.250000X0.225000X-0.250000X0.225000X0.250000X-0.225000X0.250000X0*%
%ADD14RoundRect,0.150000X-0.512500X-0.150000X0.512500X-0.150000X0.512500X0.150000X-0.512500X0.150000X0*%
%ADD15C,0.500000*%
%ADD16RoundRect,0.225000X0.225000X0.250000X-0.225000X0.250000X-0.225000X-0.250000X0.225000X-0.250000X0*%
%ADD17RoundRect,0.200000X-0.275000X0.200000X-0.275000X-0.200000X0.275000X-0.200000X0.275000X0.200000X0*%
%ADD18RoundRect,0.218750X-0.218750X-0.256250X0.218750X-0.256250X0.218750X0.256250X-0.218750X0.256250X0*%
%ADD19RoundRect,0.225000X-0.250000X0.225000X-0.250000X-0.225000X0.250000X-0.225000X0.250000X0.225000X0*%
%ADD20RoundRect,0.102000X0.754000X0.754000X-0.754000X0.754000X-0.754000X-0.754000X0.754000X-0.754000X0*%
%ADD21C,1.712000*%
%ADD22RoundRect,0.200000X-0.200000X-0.275000X0.200000X-0.275000X0.200000X0.275000X-0.200000X0.275000X0*%
%ADD23RoundRect,0.250000X-0.750000X0.600000X-0.750000X-0.600000X0.750000X-0.600000X0.750000X0.600000X0*%
%ADD24O,2.000000X1.700000*%
%ADD25R,1.500000X0.900000*%
%ADD26R,0.900000X1.500000*%
%ADD27C,0.600000*%
%ADD28R,3.900000X3.900000*%
%ADD29RoundRect,0.200000X0.200000X0.275000X-0.200000X0.275000X-0.200000X-0.275000X0.200000X-0.275000X0*%
%ADD30RoundRect,0.102000X-1.387500X-1.387500X1.387500X-1.387500X1.387500X1.387500X-1.387500X1.387500X0*%
%ADD31C,2.979000*%
%ADD32RoundRect,0.150000X-0.150000X0.587500X-0.150000X-0.587500X0.150000X-0.587500X0.150000X0.587500X0*%
%ADD33RoundRect,0.225000X0.250000X-0.225000X0.250000X0.225000X-0.250000X0.225000X-0.250000X-0.225000X0*%
%ADD34RoundRect,0.250000X1.000000X0.650000X-1.000000X0.650000X-1.000000X-0.650000X1.000000X-0.650000X0*%
%ADD35R,1.700000X1.700000*%
%ADD36C,1.700000*%
%ADD37RoundRect,0.218750X-0.256250X0.218750X-0.256250X-0.218750X0.256250X-0.218750X0.256250X0.218750X0*%
%ADD38C,1.904000*%
G04 APERTURE END LIST*
D10*
%TO.C,TP4*%
X220785000Y-110167500D03*
%TD*%
D11*
%TO.C,R9*%
X213910000Y-94735000D03*
X213910000Y-93085000D03*
%TD*%
D10*
%TO.C,TP32*%
X241845000Y-119961250D03*
%TD*%
D12*
%TO.C,TP18*%
X193880000Y-75750000D03*
%TD*%
%TO.C,TP27*%
X243890000Y-83278000D03*
%TD*%
D13*
%TO.C,C9*%
X206205000Y-74540000D03*
X207755000Y-74540000D03*
%TD*%
D10*
%TO.C,TP12*%
X206076250Y-110591250D03*
%TD*%
%TO.C,TP7*%
X228875000Y-110167500D03*
%TD*%
D14*
%TO.C,U3*%
X203352500Y-76980000D03*
X203352500Y-77930000D03*
X203352500Y-78880000D03*
X205627500Y-78880000D03*
X205627500Y-76980000D03*
%TD*%
D15*
%TO.C,REF\u002A\u002A*%
X209200000Y-107250000D03*
X210050000Y-107250000D03*
X210900000Y-107250000D03*
X211750000Y-107250000D03*
X212600000Y-107250000D03*
%TD*%
D12*
%TO.C,TP21*%
X243890000Y-86872000D03*
%TD*%
D16*
%TO.C,C6*%
X242810000Y-117811250D03*
X241260000Y-117811250D03*
%TD*%
D17*
%TO.C,R1*%
X207880000Y-76135000D03*
X207880000Y-77785000D03*
%TD*%
D10*
%TO.C,TP3*%
X227065000Y-119935000D03*
%TD*%
%TO.C,TP16*%
X241625000Y-110091250D03*
%TD*%
%TO.C,TP10*%
X212556250Y-120231250D03*
%TD*%
D18*
%TO.C,D7*%
X207152500Y-86050000D03*
X208727500Y-86050000D03*
%TD*%
D15*
%TO.C,REF\u002A\u002A*%
X238200000Y-107250000D03*
X239050000Y-107250000D03*
X239900000Y-107250000D03*
X240750000Y-107250000D03*
X241600000Y-107250000D03*
%TD*%
D17*
%TO.C,R3*%
X215530000Y-93055000D03*
X215530000Y-94705000D03*
%TD*%
D19*
%TO.C,C2*%
X204000000Y-73225000D03*
X204000000Y-74775000D03*
%TD*%
D10*
%TO.C,TP11*%
X193225000Y-109981250D03*
%TD*%
D12*
%TO.C,TP25*%
X243890000Y-90466000D03*
%TD*%
D10*
%TO.C,TP1*%
X198865000Y-120281250D03*
%TD*%
D16*
%TO.C,C4*%
X213241250Y-117781250D03*
X211691250Y-117781250D03*
%TD*%
D20*
%TO.C,S1*%
X236450000Y-98450000D03*
D21*
X229950000Y-98450000D03*
X236450000Y-102950000D03*
X229950000Y-102950000D03*
%TD*%
D22*
%TO.C,R14*%
X206775000Y-94400000D03*
X208425000Y-94400000D03*
%TD*%
D12*
%TO.C,TP29*%
X243890000Y-94060000D03*
%TD*%
%TO.C,TP22*%
X193570000Y-79420000D03*
%TD*%
D23*
%TO.C,J3*%
X204300000Y-86500000D03*
D24*
X204300000Y-89000000D03*
%TD*%
D25*
%TO.C,U1*%
X212250000Y-73240000D03*
X212250000Y-74510000D03*
X212250000Y-75780000D03*
X212250000Y-77050000D03*
X212250000Y-78320000D03*
X212250000Y-79590000D03*
X212250000Y-80860000D03*
X212250000Y-82130000D03*
X212250000Y-83400000D03*
X212250000Y-84670000D03*
X212250000Y-85940000D03*
X212250000Y-87210000D03*
X212250000Y-88480000D03*
X212250000Y-89750000D03*
D26*
X214015000Y-91000000D03*
X215285000Y-91000000D03*
X216555000Y-91000000D03*
X217825000Y-91000000D03*
X219095000Y-91000000D03*
X220365000Y-91000000D03*
X221635000Y-91000000D03*
X222905000Y-91000000D03*
X224175000Y-91000000D03*
X225445000Y-91000000D03*
X226715000Y-91000000D03*
X227985000Y-91000000D03*
D25*
X229750000Y-89750000D03*
X229750000Y-88480000D03*
X229750000Y-87210000D03*
X229750000Y-85940000D03*
X229750000Y-84670000D03*
X229750000Y-83400000D03*
X229750000Y-82130000D03*
X229750000Y-80860000D03*
X229750000Y-79590000D03*
X229750000Y-78320000D03*
X229750000Y-77050000D03*
X229750000Y-75780000D03*
X229750000Y-74510000D03*
X229750000Y-73240000D03*
D27*
X218100000Y-80260000D03*
X218100000Y-81660000D03*
X218800000Y-79560000D03*
X218800000Y-80960000D03*
X218800000Y-82360000D03*
X219500000Y-80260000D03*
D28*
X219500000Y-80960000D03*
D27*
X219500000Y-81660000D03*
X220200000Y-79560000D03*
X220200000Y-80960000D03*
X220200000Y-82360000D03*
X220900000Y-80260000D03*
X220900000Y-81660000D03*
%TD*%
D16*
%TO.C,C1*%
X228300000Y-117825000D03*
X226750000Y-117825000D03*
%TD*%
D29*
%TO.C,R5*%
X222905000Y-111986250D03*
X221255000Y-111986250D03*
%TD*%
D15*
%TO.C,REF\u002A\u002A*%
X223800000Y-107250000D03*
X224650000Y-107250000D03*
X225500000Y-107250000D03*
X226350000Y-107250000D03*
X227200000Y-107250000D03*
%TD*%
D29*
%TO.C,R7*%
X237405000Y-112181250D03*
X235755000Y-112181250D03*
%TD*%
D30*
%TO.C,S2*%
X210300000Y-103000000D03*
D31*
X215000000Y-103000000D03*
X219700000Y-103000000D03*
%TD*%
D29*
%TO.C,R4*%
X194992500Y-111957500D03*
X193342500Y-111957500D03*
%TD*%
D32*
%TO.C,Q3*%
X208166250Y-114703750D03*
X206266250Y-114703750D03*
X207216250Y-116578750D03*
%TD*%
D29*
%TO.C,R6*%
X208405000Y-112481250D03*
X206755000Y-112481250D03*
%TD*%
D22*
%TO.C,R12*%
X202575000Y-92900000D03*
X204225000Y-92900000D03*
%TD*%
D12*
%TO.C,TP23*%
X243890000Y-79684000D03*
%TD*%
D33*
%TO.C,C8*%
X207990000Y-80735000D03*
X207990000Y-79185000D03*
%TD*%
D10*
%TO.C,TP31*%
X239185000Y-119961250D03*
%TD*%
D11*
%TO.C,R11*%
X199100000Y-94725000D03*
X199100000Y-93075000D03*
%TD*%
D12*
%TO.C,TP28*%
X193650000Y-91264000D03*
%TD*%
D17*
%TO.C,R8*%
X228190000Y-92745000D03*
X228190000Y-94395000D03*
%TD*%
D32*
%TO.C,Q1*%
X194665000Y-114153750D03*
X192765000Y-114153750D03*
X193715000Y-116028750D03*
%TD*%
D10*
%TO.C,TP8*%
X209516250Y-110431250D03*
%TD*%
D18*
%TO.C,D1*%
X207302500Y-84200000D03*
X208877500Y-84200000D03*
%TD*%
D10*
%TO.C,TP14*%
X212956250Y-110481250D03*
%TD*%
%TO.C,TP2*%
X224830000Y-110167500D03*
%TD*%
%TO.C,TP6*%
X224545000Y-119935000D03*
%TD*%
%TO.C,TP13*%
X209426250Y-120291250D03*
%TD*%
D12*
%TO.C,TP24*%
X193650000Y-95190000D03*
%TD*%
D34*
%TO.C,D4*%
X243905000Y-114371250D03*
X239905000Y-114371250D03*
%TD*%
D32*
%TO.C,Q2*%
X222865000Y-114227500D03*
X220965000Y-114227500D03*
X221915000Y-116102500D03*
%TD*%
D35*
%TO.C,J8*%
X201760000Y-97590000D03*
D36*
X204300000Y-97590000D03*
X206840000Y-97590000D03*
X209380000Y-97590000D03*
X211920000Y-97590000D03*
X214460000Y-97590000D03*
X217000000Y-97590000D03*
X219540000Y-97590000D03*
X222080000Y-97590000D03*
X224620000Y-97590000D03*
X227160000Y-97590000D03*
%TD*%
D10*
%TO.C,TP5*%
X195985000Y-120281250D03*
%TD*%
D12*
%TO.C,TP26*%
X193670000Y-83250000D03*
%TD*%
D35*
%TO.C,J7*%
X239650000Y-100470000D03*
D36*
X239650000Y-97930000D03*
X239650000Y-95390000D03*
X239650000Y-92850000D03*
X239650000Y-90310000D03*
X239650000Y-87770000D03*
X239650000Y-85230000D03*
X239650000Y-82690000D03*
X239650000Y-80150000D03*
X239650000Y-77610000D03*
X239650000Y-75070000D03*
%TD*%
D20*
%TO.C,S3*%
X198850000Y-97750000D03*
D21*
X192350000Y-97750000D03*
X198850000Y-102250000D03*
X192350000Y-102250000D03*
%TD*%
D10*
%TO.C,TP17*%
X235695000Y-110091250D03*
%TD*%
D35*
%TO.C,J1*%
X235590000Y-94200000D03*
D36*
X235590000Y-91660000D03*
%TD*%
D34*
%TO.C,D6*%
X201492500Y-113867500D03*
X197492500Y-113867500D03*
%TD*%
D10*
%TO.C,TP15*%
X238660000Y-110091250D03*
%TD*%
D37*
%TO.C,D9*%
X196900000Y-93032500D03*
X196900000Y-94607500D03*
%TD*%
D10*
%TO.C,TP9*%
X196565000Y-109981250D03*
%TD*%
D12*
%TO.C,TP20*%
X243890000Y-76090000D03*
%TD*%
D16*
%TO.C,C5*%
X200110000Y-117681250D03*
X198560000Y-117681250D03*
%TD*%
D34*
%TO.C,D2*%
X229502500Y-113676250D03*
X225502500Y-113676250D03*
%TD*%
D18*
%TO.C,D8*%
X201727500Y-101240000D03*
X203302500Y-101240000D03*
%TD*%
D22*
%TO.C,R13*%
X202775000Y-94800000D03*
X204425000Y-94800000D03*
%TD*%
D15*
%TO.C,REF\u002A\u002A*%
X195800000Y-107250000D03*
X196650000Y-107250000D03*
X197500000Y-107250000D03*
X198350000Y-107250000D03*
X199200000Y-107250000D03*
%TD*%
D29*
%TO.C,R2*%
X231675000Y-93400000D03*
X230025000Y-93400000D03*
%TD*%
D34*
%TO.C,D3*%
X214853750Y-114612500D03*
X210853750Y-114612500D03*
%TD*%
D10*
%TO.C,TP30*%
X199905000Y-109981250D03*
%TD*%
D12*
%TO.C,TP19*%
X193650000Y-87338000D03*
%TD*%
D18*
%TO.C,D5*%
X207282500Y-82590000D03*
X208857500Y-82590000D03*
%TD*%
D35*
%TO.C,J4*%
X235500000Y-75150000D03*
D36*
X235500000Y-77690000D03*
X235500000Y-80230000D03*
X235500000Y-82770000D03*
X235500000Y-85310000D03*
X235500000Y-87850000D03*
%TD*%
D32*
%TO.C,Q4*%
X237395000Y-114273750D03*
X235495000Y-114273750D03*
X236445000Y-116148750D03*
%TD*%
D22*
%TO.C,R10*%
X205700000Y-101200000D03*
X207350000Y-101200000D03*
%TD*%
D16*
%TO.C,C3*%
X204755000Y-80950000D03*
X203205000Y-80950000D03*
%TD*%
D38*
%TO.C,U2*%
X198602500Y-75832500D03*
X198602500Y-88532500D03*
X198602500Y-73292500D03*
X198602500Y-85992500D03*
X198602500Y-83452500D03*
X198602500Y-91072500D03*
X198602500Y-78372500D03*
X198602500Y-80912500D03*
%TD*%
M02*
