%TF.GenerationSoftware,KiCad,Pcbnew,9.0.6*%
%TF.CreationDate,2025-11-30T21:08:30+05:30*%
%TF.ProjectId,Mini_Drone,4d696e69-5f44-4726-9f6e-652e6b696361,rev?*%
%TF.SameCoordinates,Original*%
%TF.FileFunction,Copper,L4,Bot*%
%TF.FilePolarity,Positive*%
%FSLAX46Y46*%
G04 Gerber Fmt 4.6, Leading zero omitted, Abs format (unit mm)*
G04 Created by KiCad (PCBNEW 9.0.6) date 2025-11-30 21:08:30*
%MOMM*%
%LPD*%
G01*
G04 APERTURE LIST*
G04 Aperture macros list*
%AMRoundRect*
0 Rectangle with rounded corners*
0 $1 Rounding radius*
0 $2 $3 $4 $5 $6 $7 $8 $9 X,Y pos of 4 corners*
0 Add a 4 corners polygon primitive as box body*
4,1,4,$2,$3,$4,$5,$6,$7,$8,$9,$2,$3,0*
0 Add four circle primitives for the rounded corners*
1,1,$1+$1,$2,$3*
1,1,$1+$1,$4,$5*
1,1,$1+$1,$6,$7*
1,1,$1+$1,$8,$9*
0 Add four rect primitives between the rounded corners*
20,1,$1+$1,$2,$3,$4,$5,0*
20,1,$1+$1,$4,$5,$6,$7,0*
20,1,$1+$1,$6,$7,$8,$9,0*
20,1,$1+$1,$8,$9,$2,$3,0*%
G04 Aperture macros list end*
%TA.AperFunction,ComponentPad*%
%ADD10R,2.000000X2.000000*%
%TD*%
%TA.AperFunction,ComponentPad*%
%ADD11R,1.508000X1.508000*%
%TD*%
%TA.AperFunction,ComponentPad*%
%ADD12C,1.508000*%
%TD*%
%TA.AperFunction,ComponentPad*%
%ADD13RoundRect,0.250000X-0.750000X0.600000X-0.750000X-0.600000X0.750000X-0.600000X0.750000X0.600000X0*%
%TD*%
%TA.AperFunction,ComponentPad*%
%ADD14O,2.000000X1.700000*%
%TD*%
%TA.AperFunction,HeatsinkPad*%
%ADD15C,0.600000*%
%TD*%
%TA.AperFunction,ComponentPad*%
%ADD16R,2.775000X2.775000*%
%TD*%
%TA.AperFunction,ComponentPad*%
%ADD17C,2.775000*%
%TD*%
%TA.AperFunction,ComponentPad*%
%ADD18R,1.700000X1.700000*%
%TD*%
%TA.AperFunction,ComponentPad*%
%ADD19C,1.700000*%
%TD*%
%TA.AperFunction,ViaPad*%
%ADD20C,0.600000*%
%TD*%
%TA.AperFunction,Conductor*%
%ADD21C,0.200000*%
%TD*%
G04 APERTURE END LIST*
D10*
%TO.P,TP18,1,1*%
%TO.N,/M1*%
X193880000Y-75750000D03*
%TD*%
%TO.P,TP27,1,1*%
%TO.N,GND*%
X243890000Y-83278000D03*
%TD*%
%TO.P,TP21,1,1*%
%TO.N,/M4*%
X243890000Y-86872000D03*
%TD*%
%TO.P,TP25,1,1*%
%TO.N,/BAT+*%
X243890000Y-90466000D03*
%TD*%
D11*
%TO.P,S1,1*%
%TO.N,/IO0*%
X236450000Y-98450000D03*
D12*
%TO.P,S1,2*%
X229950000Y-98450000D03*
%TO.P,S1,3*%
%TO.N,GND*%
X236450000Y-102950000D03*
%TO.P,S1,4*%
X229950000Y-102950000D03*
%TD*%
D10*
%TO.P,TP29,1,1*%
%TO.N,GND*%
X243890000Y-94060000D03*
%TD*%
%TO.P,TP22,1,1*%
%TO.N,/BAT+*%
X193570000Y-79420000D03*
%TD*%
D13*
%TO.P,J3,1,Pin_1*%
%TO.N,/BAT+*%
X204300000Y-86500000D03*
D14*
%TO.P,J3,2,Pin_2*%
%TO.N,GND*%
X204300000Y-89000000D03*
%TD*%
D15*
%TO.P,U1,41,GND*%
%TO.N,GND*%
X218100000Y-80260000D03*
X218100000Y-81660000D03*
X218800000Y-79560000D03*
X218800000Y-80960000D03*
X218800000Y-82360000D03*
X219500000Y-80260000D03*
X219500000Y-81660000D03*
X220200000Y-79560000D03*
X220200000Y-80960000D03*
X220200000Y-82360000D03*
X220900000Y-80260000D03*
X220900000Y-81660000D03*
%TD*%
D16*
%TO.P,S2,1*%
%TO.N,Net-(U3-EN)*%
X210300000Y-103000000D03*
D17*
%TO.P,S2,2*%
%TO.N,/BAT+*%
X215000000Y-103000000D03*
%TO.P,S2,3*%
%TO.N,unconnected-(S2-Pad3)*%
X219700000Y-103000000D03*
%TD*%
D10*
%TO.P,TP23,1,1*%
%TO.N,/BAT+*%
X243890000Y-79684000D03*
%TD*%
%TO.P,TP28,1,1*%
%TO.N,GND*%
X193650000Y-91264000D03*
%TD*%
%TO.P,TP24,1,1*%
%TO.N,/BAT+*%
X193650000Y-95190000D03*
%TD*%
D18*
%TO.P,J8,1,Pin_1*%
%TO.N,/LED1*%
X201760000Y-97590000D03*
D19*
%TO.P,J8,2,Pin_2*%
%TO.N,/LED2*%
X204300000Y-97590000D03*
%TO.P,J8,3,Pin_3*%
%TO.N,/LED3*%
X206840000Y-97590000D03*
%TO.P,J8,4,Pin_4*%
%TO.N,/IO8*%
X209380000Y-97590000D03*
%TO.P,J8,5,Pin_5*%
%TO.N,/USB_D-*%
X211920000Y-97590000D03*
%TO.P,J8,6,Pin_6*%
%TO.N,/USB_D+*%
X214460000Y-97590000D03*
%TO.P,J8,7,Pin_7*%
%TO.N,/IO10*%
X217000000Y-97590000D03*
%TO.P,J8,8,Pin_8*%
%TO.N,/IO11*%
X219540000Y-97590000D03*
%TO.P,J8,9,Pin_9*%
%TO.N,/IO12*%
X222080000Y-97590000D03*
%TO.P,J8,10,Pin_10*%
%TO.N,/IO13*%
X224620000Y-97590000D03*
%TO.P,J8,11,Pin_11*%
%TO.N,/IO42*%
X227160000Y-97590000D03*
%TD*%
D10*
%TO.P,TP26,1,1*%
%TO.N,GND*%
X193670000Y-83250000D03*
%TD*%
D18*
%TO.P,J7,1,Pin_1*%
%TO.N,/IO14*%
X239650000Y-100470000D03*
D19*
%TO.P,J7,2,Pin_2*%
%TO.N,/IO21*%
X239650000Y-97930000D03*
%TO.P,J7,3,Pin_3*%
%TO.N,/IO47*%
X239650000Y-95390000D03*
%TO.P,J7,4,Pin_4*%
%TO.N,/IO48*%
X239650000Y-92850000D03*
%TO.P,J7,5,Pin_5*%
%TO.N,/IO35*%
X239650000Y-90310000D03*
%TO.P,J7,6,Pin_6*%
%TO.N,/IO36*%
X239650000Y-87770000D03*
%TO.P,J7,7,Pin_7*%
%TO.N,/IO37*%
X239650000Y-85230000D03*
%TO.P,J7,8,Pin_8*%
%TO.N,/IO38*%
X239650000Y-82690000D03*
%TO.P,J7,9,Pin_9*%
%TO.N,/IO39*%
X239650000Y-80150000D03*
%TO.P,J7,10,Pin_10*%
%TO.N,/IO49*%
X239650000Y-77610000D03*
%TO.P,J7,11,Pin_11*%
%TO.N,/IO41*%
X239650000Y-75070000D03*
%TD*%
D11*
%TO.P,S3,1*%
%TO.N,/EN*%
X198850000Y-97750000D03*
D12*
%TO.P,S3,2*%
X192350000Y-97750000D03*
%TO.P,S3,3*%
%TO.N,GND*%
X198850000Y-102250000D03*
%TO.P,S3,4*%
X192350000Y-102250000D03*
%TD*%
D18*
%TO.P,J1,1,Pin_1*%
%TO.N,/RX1*%
X235590000Y-94200000D03*
D19*
%TO.P,J1,2,Pin_2*%
%TO.N,/TX1*%
X235590000Y-91660000D03*
%TD*%
D10*
%TO.P,TP20,1,1*%
%TO.N,/M2*%
X243890000Y-76090000D03*
%TD*%
%TO.P,TP19,1,1*%
%TO.N,/M3*%
X193650000Y-87338000D03*
%TD*%
D18*
%TO.P,J4,1,Pin_1*%
%TO.N,+3V3*%
X235500000Y-75150000D03*
D19*
%TO.P,J4,2,Pin_2*%
%TO.N,/EN*%
X235500000Y-77690000D03*
%TO.P,J4,3,Pin_3*%
%TO.N,/IO0*%
X235500000Y-80230000D03*
%TO.P,J4,4,Pin_4*%
%TO.N,/TX0*%
X235500000Y-82770000D03*
%TO.P,J4,5,Pin_5*%
%TO.N,/RX0*%
X235500000Y-85310000D03*
%TO.P,J4,6,Pin_6*%
%TO.N,GND*%
X235500000Y-87850000D03*
%TD*%
%TO.P,U2,ADO,ADO*%
%TO.N,unconnected-(U2-PadADO)*%
X198602500Y-75832500D03*
%TO.P,U2,GND,GND*%
%TO.N,GND*%
X198602500Y-88532500D03*
%TO.P,U2,INT,INT*%
%TO.N,unconnected-(U2-PadINT)*%
X198602500Y-73292500D03*
%TO.P,U2,SCL,SCL*%
%TO.N,/SCL*%
X198602500Y-85992500D03*
%TO.P,U2,SDA,SDA*%
%TO.N,/SDA*%
X198602500Y-83452500D03*
%TO.P,U2,VCC,VCC*%
%TO.N,+3V3*%
X198602500Y-91072500D03*
%TO.P,U2,XCL,XCL*%
%TO.N,unconnected-(U2-PadXCL)*%
X198602500Y-78372500D03*
%TO.P,U2,XDA,XDA*%
%TO.N,unconnected-(U2-PadXDA)*%
X198602500Y-80912500D03*
%TD*%
D20*
%TO.N,+3V3*%
X209110000Y-75380000D03*
%TO.N,GND*%
X213850000Y-95960000D03*
X204700000Y-77940000D03*
X205001000Y-82000000D03*
X207600000Y-93350000D03*
X229250000Y-94400000D03*
X206210000Y-73320000D03*
%TO.N,/SCL*%
X210500000Y-79070000D03*
%TO.N,/SDA*%
X210200000Y-77850000D03*
%TO.N,/EN*%
X209407500Y-76917500D03*
%TO.N,/TX1*%
X210540000Y-85950000D03*
%TO.N,/RX1*%
X210530000Y-87180000D03*
%TO.N,/LED1*%
X209586251Y-81386251D03*
X201900000Y-86500000D03*
%TO.N,/M1*%
X210670000Y-84710000D03*
%TO.N,/M3*%
X212870000Y-93950000D03*
%TO.N,/IO39*%
X232755000Y-81995000D03*
%TO.N,/IO38*%
X232920000Y-83921000D03*
%TO.N,/IO21*%
X225120000Y-94900000D03*
%TO.N,/IO49*%
X232295000Y-81205000D03*
%TO.N,/IO37*%
X231500000Y-86000000D03*
%TO.N,/IO48*%
X226715000Y-92630000D03*
%TO.N,/IO14*%
X238185735Y-97314265D03*
X230000000Y-97000000D03*
%TO.N,/IO47*%
X226390000Y-95000000D03*
%TO.N,/IO36*%
X231500000Y-87250000D03*
%TO.N,/IO42*%
X231430000Y-79850000D03*
X232860000Y-96140000D03*
X233453584Y-91140000D03*
%TO.N,/IO35*%
X231500000Y-88500000D03*
%TO.N,/IO41*%
X232200735Y-79310000D03*
%TO.N,Net-(U3-EN)*%
X200400000Y-92300000D03*
X202848765Y-82594765D03*
%TD*%
D21*
%TO.N,/SCL*%
X210500000Y-79070000D02*
X205525000Y-79070000D01*
X205525000Y-79070000D02*
X198602500Y-85992500D01*
%TO.N,/SDA*%
X203415000Y-78640000D02*
X198602500Y-83452500D01*
X210200000Y-77850000D02*
X209410000Y-78640000D01*
X209410000Y-78640000D02*
X203415000Y-78640000D01*
%TO.N,/EN*%
X241500000Y-78320000D02*
X240880000Y-78940000D01*
X210620000Y-75705000D02*
X210620000Y-72910000D01*
X210620000Y-72910000D02*
X211180000Y-72350000D01*
X209407500Y-76917500D02*
X210620000Y-75705000D01*
X240880000Y-78940000D02*
X238520000Y-78940000D01*
X237270000Y-77690000D02*
X235500000Y-77690000D01*
X211180000Y-72350000D02*
X239370000Y-72350000D01*
X239370000Y-72350000D02*
X241500000Y-74480000D01*
X241500000Y-74480000D02*
X241500000Y-78320000D01*
X238520000Y-78940000D02*
X237270000Y-77690000D01*
%TO.N,/TX1*%
X235510000Y-91740000D02*
X235590000Y-91660000D01*
X217320000Y-91740000D02*
X235510000Y-91740000D01*
X210540000Y-85950000D02*
X211530000Y-85950000D01*
X211530000Y-85950000D02*
X217320000Y-91740000D01*
%TO.N,/RX1*%
X210530000Y-87590000D02*
X216680000Y-93740000D01*
X226360057Y-93740000D02*
X226371057Y-93751000D01*
X216680000Y-93740000D02*
X226360057Y-93740000D01*
X226868943Y-93751000D02*
X226879943Y-93740000D01*
X226371057Y-93751000D02*
X226868943Y-93751000D01*
X210530000Y-87180000D02*
X210530000Y-87590000D01*
X235130000Y-93740000D02*
X235590000Y-94200000D01*
X226879943Y-93740000D02*
X235130000Y-93740000D01*
%TO.N,/LED1*%
X208651502Y-82321000D02*
X209586251Y-81386251D01*
X206079000Y-82321000D02*
X208651502Y-82321000D01*
X201900000Y-86500000D02*
X206079000Y-82321000D01*
%TO.N,/M1*%
X196210000Y-78080000D02*
X196210000Y-90350000D01*
X196210000Y-90732900D02*
X198713550Y-93236450D01*
X202143550Y-93236450D02*
X210670000Y-84710000D01*
X196210000Y-90350000D02*
X196210000Y-90732900D01*
X193880000Y-75750000D02*
X196210000Y-78080000D01*
X198713550Y-93236450D02*
X202143550Y-93236450D01*
%TO.N,/M3*%
X198860000Y-93950000D02*
X212870000Y-93950000D01*
X193650000Y-88740000D02*
X198860000Y-93950000D01*
X193650000Y-87338000D02*
X193650000Y-88740000D01*
%TO.N,/IO39*%
X232755000Y-81995000D02*
X233281000Y-81469000D01*
X238331000Y-81469000D02*
X239650000Y-80150000D01*
X233281000Y-81469000D02*
X238331000Y-81469000D01*
%TO.N,/IO38*%
X238419000Y-83921000D02*
X239650000Y-82690000D01*
X232920000Y-83921000D02*
X238419000Y-83921000D01*
%TO.N,/IO21*%
X232520057Y-95630000D02*
X232611057Y-95539000D01*
X238240000Y-96520000D02*
X239650000Y-97930000D01*
X233108943Y-95539000D02*
X234089943Y-96520000D01*
X232611057Y-95539000D02*
X233108943Y-95539000D01*
X225120000Y-94900000D02*
X225850000Y-95630000D01*
X225850000Y-95630000D02*
X232520057Y-95630000D01*
X234089943Y-96520000D02*
X238240000Y-96520000D01*
%TO.N,/IO49*%
X238540000Y-76500000D02*
X239650000Y-77610000D01*
X232295000Y-81205000D02*
X233250000Y-80250000D01*
X233250000Y-80250000D02*
X233250000Y-76500000D01*
X233250000Y-76500000D02*
X238540000Y-76500000D01*
%TO.N,/IO37*%
X231961000Y-86461000D02*
X238419000Y-86461000D01*
X231500000Y-86000000D02*
X231961000Y-86461000D01*
X238419000Y-86461000D02*
X239650000Y-85230000D01*
%TO.N,/IO48*%
X226715000Y-92630000D02*
X226780000Y-92630000D01*
X236120000Y-92810000D02*
X236160000Y-92850000D01*
X236160000Y-92850000D02*
X239650000Y-92850000D01*
X226960000Y-92810000D02*
X236120000Y-92810000D01*
X226780000Y-92630000D02*
X226960000Y-92810000D01*
%TO.N,/IO14*%
X237871470Y-97000000D02*
X238185735Y-97314265D01*
X230000000Y-97000000D02*
X237871470Y-97000000D01*
%TO.N,/IO47*%
X233527043Y-95390000D02*
X233137043Y-95000000D01*
X233137043Y-95000000D02*
X226390000Y-95000000D01*
X239650000Y-95390000D02*
X233527043Y-95390000D01*
%TO.N,/IO36*%
X231500000Y-87250000D02*
X233251000Y-89001000D01*
X238419000Y-89001000D02*
X239650000Y-87770000D01*
X233251000Y-89001000D02*
X238419000Y-89001000D01*
%TO.N,/IO42*%
X233290057Y-91140000D02*
X230850000Y-88699943D01*
X230850000Y-88699943D02*
X230850000Y-81760000D01*
X227500000Y-97590000D02*
X228950000Y-96140000D01*
X230850000Y-80430000D02*
X231430000Y-79850000D01*
X228950000Y-96140000D02*
X232860000Y-96140000D01*
X230850000Y-81760000D02*
X230850000Y-80430000D01*
X233453584Y-91140000D02*
X233290057Y-91140000D01*
%TO.N,/IO35*%
X238940000Y-89600000D02*
X239650000Y-90310000D01*
X231500000Y-88500000D02*
X232600000Y-89600000D01*
X232600000Y-89600000D02*
X238940000Y-89600000D01*
%TO.N,/IO41*%
X238080000Y-73500000D02*
X239650000Y-75070000D01*
X232200735Y-75549265D02*
X234250000Y-73500000D01*
X234250000Y-73500000D02*
X238080000Y-73500000D01*
X232200735Y-79310000D02*
X232200735Y-75549265D01*
%TO.N,Net-(U3-EN)*%
X200400000Y-86700000D02*
X200400000Y-92300000D01*
X202848765Y-82594765D02*
X202848765Y-84251235D01*
X202848765Y-84251235D02*
X200400000Y-86700000D01*
%TD*%
%TA.AperFunction,Conductor*%
%TO.N,GND*%
G36*
X198108230Y-71820185D02*
G01*
X198153985Y-71872989D01*
X198163929Y-71942147D01*
X198134904Y-72005703D01*
X198087738Y-72037047D01*
X198088581Y-72039082D01*
X198084089Y-72040941D01*
X197894679Y-72137451D01*
X197722713Y-72262390D01*
X197572390Y-72412713D01*
X197447451Y-72584679D01*
X197350944Y-72774085D01*
X197285253Y-72976260D01*
X197265519Y-73100858D01*
X197252000Y-73186213D01*
X197252000Y-73398787D01*
X197285254Y-73608743D01*
X197344139Y-73789973D01*
X197350944Y-73810914D01*
X197447451Y-74000320D01*
X197572390Y-74172286D01*
X197722713Y-74322609D01*
X197894682Y-74447550D01*
X197903446Y-74452016D01*
X197954242Y-74499991D01*
X197971036Y-74567812D01*
X197948498Y-74633947D01*
X197903446Y-74672984D01*
X197894682Y-74677449D01*
X197722713Y-74802390D01*
X197572390Y-74952713D01*
X197447451Y-75124679D01*
X197350944Y-75314085D01*
X197285253Y-75516260D01*
X197267504Y-75628325D01*
X197252000Y-75726213D01*
X197252000Y-75938787D01*
X197254829Y-75956649D01*
X197281895Y-76127539D01*
X197285254Y-76148743D01*
X197347397Y-76340000D01*
X197350944Y-76350914D01*
X197447451Y-76540320D01*
X197572390Y-76712286D01*
X197722713Y-76862609D01*
X197894682Y-76987550D01*
X197903446Y-76992016D01*
X197954242Y-77039991D01*
X197971036Y-77107812D01*
X197948498Y-77173947D01*
X197903446Y-77212984D01*
X197894682Y-77217449D01*
X197722713Y-77342390D01*
X197572390Y-77492713D01*
X197447451Y-77664679D01*
X197350944Y-77854085D01*
X197285253Y-78056260D01*
X197252000Y-78266213D01*
X197252000Y-78478786D01*
X197285249Y-78688716D01*
X197285254Y-78688743D01*
X197350177Y-78888556D01*
X197350944Y-78890914D01*
X197447451Y-79080320D01*
X197572390Y-79252286D01*
X197722713Y-79402609D01*
X197894682Y-79527550D01*
X197903446Y-79532016D01*
X197954242Y-79579991D01*
X197971036Y-79647812D01*
X197948498Y-79713947D01*
X197903446Y-79752984D01*
X197894682Y-79757449D01*
X197722713Y-79882390D01*
X197572390Y-80032713D01*
X197447451Y-80204679D01*
X197350944Y-80394085D01*
X197285253Y-80596260D01*
X197263774Y-80731873D01*
X197252000Y-80806213D01*
X197252000Y-81018787D01*
X197253742Y-81029786D01*
X197278246Y-81184500D01*
X197285254Y-81228743D01*
X197347397Y-81420000D01*
X197350944Y-81430914D01*
X197447451Y-81620320D01*
X197572390Y-81792286D01*
X197722713Y-81942609D01*
X197894682Y-82067550D01*
X197903446Y-82072016D01*
X197954242Y-82119991D01*
X197971036Y-82187812D01*
X197948498Y-82253947D01*
X197903446Y-82292984D01*
X197894682Y-82297449D01*
X197722713Y-82422390D01*
X197572390Y-82572713D01*
X197447451Y-82744679D01*
X197350944Y-82934085D01*
X197285253Y-83136260D01*
X197259190Y-83300815D01*
X197252000Y-83346213D01*
X197252000Y-83558787D01*
X197285254Y-83768743D01*
X197347397Y-83960000D01*
X197350944Y-83970914D01*
X197447451Y-84160320D01*
X197572390Y-84332286D01*
X197722713Y-84482609D01*
X197894682Y-84607550D01*
X197903446Y-84612016D01*
X197954242Y-84659991D01*
X197971036Y-84727812D01*
X197948498Y-84793947D01*
X197903446Y-84832984D01*
X197894682Y-84837449D01*
X197722713Y-84962390D01*
X197572390Y-85112713D01*
X197447451Y-85284679D01*
X197350944Y-85474085D01*
X197285253Y-85676260D01*
X197258700Y-85843909D01*
X197252000Y-85886213D01*
X197252000Y-86098787D01*
X197262034Y-86162144D01*
X197282306Y-86290135D01*
X197285254Y-86308743D01*
X197350361Y-86509122D01*
X197350944Y-86510914D01*
X197447451Y-86700320D01*
X197572390Y-86872286D01*
X197722713Y-87022609D01*
X197894679Y-87147548D01*
X197894681Y-87147549D01*
X197894684Y-87147551D01*
X198084088Y-87244057D01*
X198286257Y-87309746D01*
X198496213Y-87343000D01*
X198496214Y-87343000D01*
X198708786Y-87343000D01*
X198708787Y-87343000D01*
X198918743Y-87309746D01*
X199120912Y-87244057D01*
X199310316Y-87147551D01*
X199394714Y-87086233D01*
X199482286Y-87022609D01*
X199482288Y-87022606D01*
X199482292Y-87022604D01*
X199587819Y-86917077D01*
X199649142Y-86883592D01*
X199718834Y-86888576D01*
X199774767Y-86930448D01*
X199799184Y-86995912D01*
X199799500Y-87004758D01*
X199799500Y-90060242D01*
X199779815Y-90127281D01*
X199727011Y-90173036D01*
X199657853Y-90182980D01*
X199594297Y-90153955D01*
X199587819Y-90147923D01*
X199482286Y-90042390D01*
X199310320Y-89917451D01*
X199120914Y-89820944D01*
X199120913Y-89820943D01*
X199120912Y-89820943D01*
X198918743Y-89755254D01*
X198918741Y-89755253D01*
X198918740Y-89755253D01*
X198757457Y-89729708D01*
X198708787Y-89722000D01*
X198496213Y-89722000D01*
X198447542Y-89729708D01*
X198286260Y-89755253D01*
X198084085Y-89820944D01*
X197894679Y-89917451D01*
X197722713Y-90042390D01*
X197572390Y-90192713D01*
X197447451Y-90364679D01*
X197350944Y-90554083D01*
X197298083Y-90716774D01*
X197258645Y-90774449D01*
X197194286Y-90801647D01*
X197125440Y-90789732D01*
X197092471Y-90766136D01*
X196846819Y-90520484D01*
X196813334Y-90459161D01*
X196810500Y-90432803D01*
X196810500Y-78169060D01*
X196810501Y-78169047D01*
X196810501Y-78000944D01*
X196810501Y-78000943D01*
X196769577Y-77848216D01*
X196742638Y-77801556D01*
X196690524Y-77711290D01*
X196690518Y-77711282D01*
X195416818Y-76437582D01*
X195383333Y-76376259D01*
X195380499Y-76349901D01*
X195380499Y-74702129D01*
X195380498Y-74702123D01*
X195380497Y-74702116D01*
X195374091Y-74642517D01*
X195362061Y-74610264D01*
X195323797Y-74507671D01*
X195323793Y-74507664D01*
X195237547Y-74392455D01*
X195237544Y-74392452D01*
X195122335Y-74306206D01*
X195122328Y-74306202D01*
X194987482Y-74255908D01*
X194987483Y-74255908D01*
X194927883Y-74249501D01*
X194927881Y-74249500D01*
X194927873Y-74249500D01*
X194927864Y-74249500D01*
X192832129Y-74249500D01*
X192832123Y-74249501D01*
X192772516Y-74255908D01*
X192637671Y-74306202D01*
X192637664Y-74306206D01*
X192522455Y-74392452D01*
X192522452Y-74392455D01*
X192436206Y-74507664D01*
X192436202Y-74507671D01*
X192385908Y-74642517D01*
X192379501Y-74702116D01*
X192379501Y-74702123D01*
X192379500Y-74702135D01*
X192379500Y-76797870D01*
X192379501Y-76797876D01*
X192385908Y-76857483D01*
X192436202Y-76992328D01*
X192436206Y-76992335D01*
X192522452Y-77107544D01*
X192522455Y-77107547D01*
X192637664Y-77193793D01*
X192637671Y-77193797D01*
X192772517Y-77244091D01*
X192772516Y-77244091D01*
X192779444Y-77244835D01*
X192832127Y-77250500D01*
X194479901Y-77250499D01*
X194546940Y-77270184D01*
X194567582Y-77286818D01*
X195573181Y-78292416D01*
X195606666Y-78353739D01*
X195609500Y-78380097D01*
X195609500Y-89550902D01*
X195589815Y-89617941D01*
X195537011Y-89663696D01*
X195467853Y-89673640D01*
X195404297Y-89644615D01*
X195397819Y-89638583D01*
X194772898Y-89013663D01*
X194739413Y-88952340D01*
X194744397Y-88882649D01*
X194786268Y-88826715D01*
X194817241Y-88809802D01*
X194892331Y-88781796D01*
X195007546Y-88695546D01*
X195093796Y-88580331D01*
X195144091Y-88445483D01*
X195150500Y-88385873D01*
X195150499Y-86290128D01*
X195144091Y-86230517D01*
X195139974Y-86219480D01*
X195093797Y-86095671D01*
X195093793Y-86095664D01*
X195007547Y-85980455D01*
X195007544Y-85980452D01*
X194892335Y-85894206D01*
X194892328Y-85894202D01*
X194757482Y-85843908D01*
X194757483Y-85843908D01*
X194697883Y-85837501D01*
X194697881Y-85837500D01*
X194697873Y-85837500D01*
X194697864Y-85837500D01*
X192602129Y-85837500D01*
X192602123Y-85837501D01*
X192542516Y-85843908D01*
X192407671Y-85894202D01*
X192407664Y-85894206D01*
X192292455Y-85980452D01*
X192292452Y-85980455D01*
X192206206Y-86095664D01*
X192206202Y-86095671D01*
X192155908Y-86230517D01*
X192152727Y-86260109D01*
X192149501Y-86290123D01*
X192149500Y-86290135D01*
X192149500Y-88385870D01*
X192149501Y-88385876D01*
X192155908Y-88445483D01*
X192206202Y-88580328D01*
X192206206Y-88580335D01*
X192292452Y-88695544D01*
X192292455Y-88695547D01*
X192407664Y-88781793D01*
X192407671Y-88781797D01*
X192452618Y-88798561D01*
X192542517Y-88832091D01*
X192602127Y-88838500D01*
X192959560Y-88838499D01*
X192979020Y-88844212D01*
X192999283Y-88845034D01*
X193011858Y-88853854D01*
X193026599Y-88858183D01*
X193039880Y-88873510D01*
X193056484Y-88885157D01*
X193065580Y-88903170D01*
X193072354Y-88910987D01*
X193074348Y-88915597D01*
X193077308Y-88922842D01*
X193090423Y-88971785D01*
X193109759Y-89005276D01*
X193113971Y-89012572D01*
X193113973Y-89012576D01*
X193140455Y-89058443D01*
X193169329Y-89108455D01*
X193169481Y-89108717D01*
X193288349Y-89227585D01*
X193288354Y-89227589D01*
X198491284Y-94430520D01*
X198491286Y-94430521D01*
X198491290Y-94430524D01*
X198558557Y-94469360D01*
X198628216Y-94509577D01*
X198780943Y-94550501D01*
X198780945Y-94550501D01*
X198946654Y-94550501D01*
X198946670Y-94550500D01*
X212290234Y-94550500D01*
X212357273Y-94570185D01*
X212359125Y-94571398D01*
X212490814Y-94659390D01*
X212490827Y-94659397D01*
X212629922Y-94717011D01*
X212636503Y-94719737D01*
X212791153Y-94750499D01*
X212791156Y-94750500D01*
X212791158Y-94750500D01*
X212948844Y-94750500D01*
X212948845Y-94750499D01*
X213103497Y-94719737D01*
X213249179Y-94659394D01*
X213380289Y-94571789D01*
X213491789Y-94460289D01*
X213579394Y-94329179D01*
X213639737Y-94183497D01*
X213670500Y-94028842D01*
X213670500Y-93871158D01*
X213670500Y-93871155D01*
X213670499Y-93871153D01*
X213645645Y-93746204D01*
X213639737Y-93716503D01*
X213631206Y-93695908D01*
X213579397Y-93570827D01*
X213579390Y-93570814D01*
X213491789Y-93439711D01*
X213491786Y-93439707D01*
X213380292Y-93328213D01*
X213380288Y-93328210D01*
X213249185Y-93240609D01*
X213249172Y-93240602D01*
X213103501Y-93180264D01*
X213103489Y-93180261D01*
X212948845Y-93149500D01*
X212948842Y-93149500D01*
X212791158Y-93149500D01*
X212791155Y-93149500D01*
X212636510Y-93180261D01*
X212636498Y-93180264D01*
X212490827Y-93240602D01*
X212490814Y-93240609D01*
X212359125Y-93328602D01*
X212292447Y-93349480D01*
X212290234Y-93349500D01*
X203179097Y-93349500D01*
X203112058Y-93329815D01*
X203066303Y-93277011D01*
X203056359Y-93207853D01*
X203085384Y-93144297D01*
X203091416Y-93137819D01*
X204720679Y-91508556D01*
X209720113Y-86509120D01*
X209781434Y-86475637D01*
X209851126Y-86480621D01*
X209907059Y-86522493D01*
X209931476Y-86587957D01*
X209916624Y-86656230D01*
X209910894Y-86665694D01*
X209820609Y-86800814D01*
X209820602Y-86800827D01*
X209760264Y-86946498D01*
X209760261Y-86946510D01*
X209729500Y-87101153D01*
X209729500Y-87258846D01*
X209760261Y-87413489D01*
X209760264Y-87413501D01*
X209820602Y-87559172D01*
X209820609Y-87559185D01*
X209908210Y-87690288D01*
X209908213Y-87690292D01*
X209921567Y-87703646D01*
X209927265Y-87712474D01*
X209932866Y-87716634D01*
X209941920Y-87735182D01*
X209949900Y-87747546D01*
X209952072Y-87753303D01*
X209970423Y-87821785D01*
X209987001Y-87850499D01*
X209992056Y-87859254D01*
X209992057Y-87859257D01*
X210020829Y-87909091D01*
X210027053Y-87919872D01*
X210049481Y-87958717D01*
X210168349Y-88077585D01*
X210168355Y-88077590D01*
X216195139Y-94104374D01*
X216195149Y-94104385D01*
X216199479Y-94108715D01*
X216199480Y-94108716D01*
X216311284Y-94220520D01*
X216311286Y-94220521D01*
X216311290Y-94220524D01*
X216336279Y-94234951D01*
X216448216Y-94299577D01*
X216537629Y-94323535D01*
X216600942Y-94340500D01*
X216600943Y-94340500D01*
X224300108Y-94340500D01*
X224367147Y-94360185D01*
X224412902Y-94412989D01*
X224422846Y-94482147D01*
X224412121Y-94514854D01*
X224412937Y-94515192D01*
X224350264Y-94666498D01*
X224350261Y-94666510D01*
X224319500Y-94821153D01*
X224319500Y-94978846D01*
X224350261Y-95133489D01*
X224350264Y-95133501D01*
X224410602Y-95279172D01*
X224410609Y-95279185D01*
X224498210Y-95410288D01*
X224498213Y-95410292D01*
X224609707Y-95521786D01*
X224609711Y-95521789D01*
X224740814Y-95609390D01*
X224740827Y-95609397D01*
X224886498Y-95669735D01*
X224886503Y-95669737D01*
X224951147Y-95682595D01*
X225041849Y-95700638D01*
X225103760Y-95733023D01*
X225105339Y-95734574D01*
X225365139Y-95994374D01*
X225365149Y-95994385D01*
X225369479Y-95998715D01*
X225369480Y-95998716D01*
X225481284Y-96110520D01*
X225568095Y-96160639D01*
X225568097Y-96160641D01*
X225606151Y-96182611D01*
X225618215Y-96189577D01*
X225770943Y-96230501D01*
X225770946Y-96230501D01*
X225936653Y-96230501D01*
X225936669Y-96230500D01*
X226351950Y-96230500D01*
X226418989Y-96250185D01*
X226464744Y-96302989D01*
X226474688Y-96372147D01*
X226445663Y-96435703D01*
X226424835Y-96454818D01*
X226280214Y-96559890D01*
X226280209Y-96559894D01*
X226129890Y-96710213D01*
X226004949Y-96882182D01*
X226000484Y-96890946D01*
X225952509Y-96941742D01*
X225884688Y-96958536D01*
X225818553Y-96935998D01*
X225779516Y-96890946D01*
X225775050Y-96882182D01*
X225650109Y-96710213D01*
X225499786Y-96559890D01*
X225327820Y-96434951D01*
X225138414Y-96338444D01*
X225138413Y-96338443D01*
X225138412Y-96338443D01*
X224936243Y-96272754D01*
X224936241Y-96272753D01*
X224936240Y-96272753D01*
X224774957Y-96247208D01*
X224726287Y-96239500D01*
X224513713Y-96239500D01*
X224465042Y-96247208D01*
X224303760Y-96272753D01*
X224101585Y-96338444D01*
X223912179Y-96434951D01*
X223740213Y-96559890D01*
X223589890Y-96710213D01*
X223464949Y-96882182D01*
X223460484Y-96890946D01*
X223412509Y-96941742D01*
X223344688Y-96958536D01*
X223278553Y-96935998D01*
X223239516Y-96890946D01*
X223235050Y-96882182D01*
X223110109Y-96710213D01*
X222959786Y-96559890D01*
X222787820Y-96434951D01*
X222598414Y-96338444D01*
X222598413Y-96338443D01*
X222598412Y-96338443D01*
X222396243Y-96272754D01*
X222396241Y-96272753D01*
X222396240Y-96272753D01*
X222234957Y-96247208D01*
X222186287Y-96239500D01*
X221973713Y-96239500D01*
X221925042Y-96247208D01*
X221763760Y-96272753D01*
X221561585Y-96338444D01*
X221372179Y-96434951D01*
X221200213Y-96559890D01*
X221049890Y-96710213D01*
X220924949Y-96882182D01*
X220920484Y-96890946D01*
X220872509Y-96941742D01*
X220804688Y-96958536D01*
X220738553Y-96935998D01*
X220699516Y-96890946D01*
X220695050Y-96882182D01*
X220570109Y-96710213D01*
X220419786Y-96559890D01*
X220247820Y-96434951D01*
X220058414Y-96338444D01*
X220058413Y-96338443D01*
X220058412Y-96338443D01*
X219856243Y-96272754D01*
X219856241Y-96272753D01*
X219856240Y-96272753D01*
X219694957Y-96247208D01*
X219646287Y-96239500D01*
X219433713Y-96239500D01*
X219385042Y-96247208D01*
X219223760Y-96272753D01*
X219021585Y-96338444D01*
X218832179Y-96434951D01*
X218660213Y-96559890D01*
X218509890Y-96710213D01*
X218384949Y-96882182D01*
X218380484Y-96890946D01*
X218332509Y-96941742D01*
X218264688Y-96958536D01*
X218198553Y-96935998D01*
X218159516Y-96890946D01*
X218155050Y-96882182D01*
X218030109Y-96710213D01*
X217879786Y-96559890D01*
X217707820Y-96434951D01*
X217518414Y-96338444D01*
X217518413Y-96338443D01*
X217518412Y-96338443D01*
X217316243Y-96272754D01*
X217316241Y-96272753D01*
X217316240Y-96272753D01*
X217154957Y-96247208D01*
X217106287Y-96239500D01*
X216893713Y-96239500D01*
X216845042Y-96247208D01*
X216683760Y-96272753D01*
X216481585Y-96338444D01*
X216292179Y-96434951D01*
X216120213Y-96559890D01*
X215969890Y-96710213D01*
X215844949Y-96882182D01*
X215840484Y-96890946D01*
X215792509Y-96941742D01*
X215724688Y-96958536D01*
X215658553Y-96935998D01*
X215619516Y-96890946D01*
X215615050Y-96882182D01*
X215490109Y-96710213D01*
X215339786Y-96559890D01*
X215167820Y-96434951D01*
X214978414Y-96338444D01*
X214978413Y-96338443D01*
X214978412Y-96338443D01*
X214776243Y-96272754D01*
X214776241Y-96272753D01*
X214776240Y-96272753D01*
X214614957Y-96247208D01*
X214566287Y-96239500D01*
X214353713Y-96239500D01*
X214305042Y-96247208D01*
X214143760Y-96272753D01*
X213941585Y-96338444D01*
X213752179Y-96434951D01*
X213580213Y-96559890D01*
X213429890Y-96710213D01*
X213304949Y-96882182D01*
X213300484Y-96890946D01*
X213252509Y-96941742D01*
X213184688Y-96958536D01*
X213118553Y-96935998D01*
X213079516Y-96890946D01*
X213075050Y-96882182D01*
X212950109Y-96710213D01*
X212799786Y-96559890D01*
X212627820Y-96434951D01*
X212438414Y-96338444D01*
X212438413Y-96338443D01*
X212438412Y-96338443D01*
X212236243Y-96272754D01*
X212236241Y-96272753D01*
X212236240Y-96272753D01*
X212074957Y-96247208D01*
X212026287Y-96239500D01*
X211813713Y-96239500D01*
X211765042Y-96247208D01*
X211603760Y-96272753D01*
X211401585Y-96338444D01*
X211212179Y-96434951D01*
X211040213Y-96559890D01*
X210889890Y-96710213D01*
X210764949Y-96882182D01*
X210760484Y-96890946D01*
X210712509Y-96941742D01*
X210644688Y-96958536D01*
X210578553Y-96935998D01*
X210539516Y-96890946D01*
X210535050Y-96882182D01*
X210410109Y-96710213D01*
X210259786Y-96559890D01*
X210087820Y-96434951D01*
X209898414Y-96338444D01*
X209898413Y-96338443D01*
X209898412Y-96338443D01*
X209696243Y-96272754D01*
X209696241Y-96272753D01*
X209696240Y-96272753D01*
X209534957Y-96247208D01*
X209486287Y-96239500D01*
X209273713Y-96239500D01*
X209225042Y-96247208D01*
X209063760Y-96272753D01*
X208861585Y-96338444D01*
X208672179Y-96434951D01*
X208500213Y-96559890D01*
X208349890Y-96710213D01*
X208224949Y-96882182D01*
X208220484Y-96890946D01*
X208172509Y-96941742D01*
X208104688Y-96958536D01*
X208038553Y-96935998D01*
X207999516Y-96890946D01*
X207995050Y-96882182D01*
X207870109Y-96710213D01*
X207719786Y-96559890D01*
X207547820Y-96434951D01*
X207358414Y-96338444D01*
X207358413Y-96338443D01*
X207358412Y-96338443D01*
X207156243Y-96272754D01*
X207156241Y-96272753D01*
X207156240Y-96272753D01*
X206994957Y-96247208D01*
X206946287Y-96239500D01*
X206733713Y-96239500D01*
X206685042Y-96247208D01*
X206523760Y-96272753D01*
X206321585Y-96338444D01*
X206132179Y-96434951D01*
X205960213Y-96559890D01*
X205809890Y-96710213D01*
X205684949Y-96882182D01*
X205680484Y-96890946D01*
X205632509Y-96941742D01*
X205564688Y-96958536D01*
X205498553Y-96935998D01*
X205459516Y-96890946D01*
X205455050Y-96882182D01*
X205330109Y-96710213D01*
X205179786Y-96559890D01*
X205007820Y-96434951D01*
X204818414Y-96338444D01*
X204818413Y-96338443D01*
X204818412Y-96338443D01*
X204616243Y-96272754D01*
X204616241Y-96272753D01*
X204616240Y-96272753D01*
X204454957Y-96247208D01*
X204406287Y-96239500D01*
X204193713Y-96239500D01*
X204145042Y-96247208D01*
X203983760Y-96272753D01*
X203781585Y-96338444D01*
X203592179Y-96434951D01*
X203420215Y-96559889D01*
X203306673Y-96673431D01*
X203245350Y-96706915D01*
X203175658Y-96701931D01*
X203119725Y-96660059D01*
X203102810Y-96629082D01*
X203053797Y-96497671D01*
X203053793Y-96497664D01*
X202967547Y-96382455D01*
X202967544Y-96382452D01*
X202852335Y-96296206D01*
X202852328Y-96296202D01*
X202717482Y-96245908D01*
X202717483Y-96245908D01*
X202657883Y-96239501D01*
X202657881Y-96239500D01*
X202657873Y-96239500D01*
X202657864Y-96239500D01*
X200862129Y-96239500D01*
X200862123Y-96239501D01*
X200802516Y-96245908D01*
X200667671Y-96296202D01*
X200667664Y-96296206D01*
X200552455Y-96382452D01*
X200552452Y-96382455D01*
X200466206Y-96497664D01*
X200466202Y-96497671D01*
X200415908Y-96632517D01*
X200409501Y-96692116D01*
X200409500Y-96692135D01*
X200409500Y-98487870D01*
X200409501Y-98487876D01*
X200415908Y-98547483D01*
X200466202Y-98682328D01*
X200466206Y-98682335D01*
X200552452Y-98797544D01*
X200552455Y-98797547D01*
X200667664Y-98883793D01*
X200667671Y-98883797D01*
X200802517Y-98934091D01*
X200802516Y-98934091D01*
X200809444Y-98934835D01*
X200862127Y-98940500D01*
X202657872Y-98940499D01*
X202717483Y-98934091D01*
X202852331Y-98883796D01*
X202967546Y-98797546D01*
X203053796Y-98682331D01*
X203102810Y-98550916D01*
X203144681Y-98494984D01*
X203210145Y-98470566D01*
X203278418Y-98485417D01*
X203306673Y-98506569D01*
X203420213Y-98620109D01*
X203592179Y-98745048D01*
X203592181Y-98745049D01*
X203592184Y-98745051D01*
X203781588Y-98841557D01*
X203983757Y-98907246D01*
X204193713Y-98940500D01*
X204193714Y-98940500D01*
X204406286Y-98940500D01*
X204406287Y-98940500D01*
X204616243Y-98907246D01*
X204818412Y-98841557D01*
X205007816Y-98745051D01*
X205094138Y-98682335D01*
X205179786Y-98620109D01*
X205179788Y-98620106D01*
X205179792Y-98620104D01*
X205330104Y-98469792D01*
X205330106Y-98469788D01*
X205330109Y-98469786D01*
X205455048Y-98297820D01*
X205455047Y-98297820D01*
X205455051Y-98297816D01*
X205459514Y-98289054D01*
X205507488Y-98238259D01*
X205575308Y-98221463D01*
X205641444Y-98243999D01*
X205680486Y-98289056D01*
X205684951Y-98297820D01*
X205809890Y-98469786D01*
X205960213Y-98620109D01*
X206132179Y-98745048D01*
X206132181Y-98745049D01*
X206132184Y-98745051D01*
X206321588Y-98841557D01*
X206523757Y-98907246D01*
X206733713Y-98940500D01*
X206733714Y-98940500D01*
X206946286Y-98940500D01*
X206946287Y-98940500D01*
X207156243Y-98907246D01*
X207358412Y-98841557D01*
X207547816Y-98745051D01*
X207634138Y-98682335D01*
X207719786Y-98620109D01*
X207719788Y-98620106D01*
X207719792Y-98620104D01*
X207870104Y-98469792D01*
X207870106Y-98469788D01*
X207870109Y-98469786D01*
X207995048Y-98297820D01*
X207995047Y-98297820D01*
X207995051Y-98297816D01*
X207999514Y-98289054D01*
X208047488Y-98238259D01*
X208115308Y-98221463D01*
X208181444Y-98243999D01*
X208220486Y-98289056D01*
X208224951Y-98297820D01*
X208349890Y-98469786D01*
X208500213Y-98620109D01*
X208672179Y-98745048D01*
X208672181Y-98745049D01*
X208672184Y-98745051D01*
X208861588Y-98841557D01*
X209063757Y-98907246D01*
X209273713Y-98940500D01*
X209273714Y-98940500D01*
X209486286Y-98940500D01*
X209486287Y-98940500D01*
X209696243Y-98907246D01*
X209898412Y-98841557D01*
X210087816Y-98745051D01*
X210174138Y-98682335D01*
X210259786Y-98620109D01*
X210259788Y-98620106D01*
X210259792Y-98620104D01*
X210410104Y-98469792D01*
X210410106Y-98469788D01*
X210410109Y-98469786D01*
X210535048Y-98297820D01*
X210535047Y-98297820D01*
X210535051Y-98297816D01*
X210539514Y-98289054D01*
X210587488Y-98238259D01*
X210655308Y-98221463D01*
X210721444Y-98243999D01*
X210760486Y-98289056D01*
X210764951Y-98297820D01*
X210889890Y-98469786D01*
X211040213Y-98620109D01*
X211212179Y-98745048D01*
X211212181Y-98745049D01*
X211212184Y-98745051D01*
X211401588Y-98841557D01*
X211603757Y-98907246D01*
X211813713Y-98940500D01*
X211813714Y-98940500D01*
X212026286Y-98940500D01*
X212026287Y-98940500D01*
X212236243Y-98907246D01*
X212438412Y-98841557D01*
X212627816Y-98745051D01*
X212714138Y-98682335D01*
X212799786Y-98620109D01*
X212799788Y-98620106D01*
X212799792Y-98620104D01*
X212950104Y-98469792D01*
X212950106Y-98469788D01*
X212950109Y-98469786D01*
X213075048Y-98297820D01*
X213075047Y-98297820D01*
X213075051Y-98297816D01*
X213079514Y-98289054D01*
X213127488Y-98238259D01*
X213195308Y-98221463D01*
X213261444Y-98243999D01*
X213300486Y-98289056D01*
X213304951Y-98297820D01*
X213429890Y-98469786D01*
X213580213Y-98620109D01*
X213752179Y-98745048D01*
X213752181Y-98745049D01*
X213752184Y-98745051D01*
X213941588Y-98841557D01*
X214143757Y-98907246D01*
X214353713Y-98940500D01*
X214353714Y-98940500D01*
X214566286Y-98940500D01*
X214566287Y-98940500D01*
X214776243Y-98907246D01*
X214978412Y-98841557D01*
X215167816Y-98745051D01*
X215254138Y-98682335D01*
X215339786Y-98620109D01*
X215339788Y-98620106D01*
X215339792Y-98620104D01*
X215490104Y-98469792D01*
X215490106Y-98469788D01*
X215490109Y-98469786D01*
X215615048Y-98297820D01*
X215615047Y-98297820D01*
X215615051Y-98297816D01*
X215619514Y-98289054D01*
X215667488Y-98238259D01*
X215735308Y-98221463D01*
X215801444Y-98243999D01*
X215840486Y-98289056D01*
X215844951Y-98297820D01*
X215969890Y-98469786D01*
X216120213Y-98620109D01*
X216292179Y-98745048D01*
X216292181Y-98745049D01*
X216292184Y-98745051D01*
X216481588Y-98841557D01*
X216683757Y-98907246D01*
X216893713Y-98940500D01*
X216893714Y-98940500D01*
X217106286Y-98940500D01*
X217106287Y-98940500D01*
X217316243Y-98907246D01*
X217518412Y-98841557D01*
X217707816Y-98745051D01*
X217794138Y-98682335D01*
X217879786Y-98620109D01*
X217879788Y-98620106D01*
X217879792Y-98620104D01*
X218030104Y-98469792D01*
X218030106Y-98469788D01*
X218030109Y-98469786D01*
X218155048Y-98297820D01*
X218155047Y-98297820D01*
X218155051Y-98297816D01*
X218159514Y-98289054D01*
X218207488Y-98238259D01*
X218275308Y-98221463D01*
X218341444Y-98243999D01*
X218380486Y-98289056D01*
X218384951Y-98297820D01*
X218509890Y-98469786D01*
X218660213Y-98620109D01*
X218832179Y-98745048D01*
X218832181Y-98745049D01*
X218832184Y-98745051D01*
X219021588Y-98841557D01*
X219223757Y-98907246D01*
X219433713Y-98940500D01*
X219433714Y-98940500D01*
X219646286Y-98940500D01*
X219646287Y-98940500D01*
X219856243Y-98907246D01*
X220058412Y-98841557D01*
X220247816Y-98745051D01*
X220334138Y-98682335D01*
X220419786Y-98620109D01*
X220419788Y-98620106D01*
X220419792Y-98620104D01*
X220570104Y-98469792D01*
X220570106Y-98469788D01*
X220570109Y-98469786D01*
X220695048Y-98297820D01*
X220695047Y-98297820D01*
X220695051Y-98297816D01*
X220699514Y-98289054D01*
X220747488Y-98238259D01*
X220815308Y-98221463D01*
X220881444Y-98243999D01*
X220920486Y-98289056D01*
X220924951Y-98297820D01*
X221049890Y-98469786D01*
X221200213Y-98620109D01*
X221372179Y-98745048D01*
X221372181Y-98745049D01*
X221372184Y-98745051D01*
X221561588Y-98841557D01*
X221763757Y-98907246D01*
X221973713Y-98940500D01*
X221973714Y-98940500D01*
X222186286Y-98940500D01*
X222186287Y-98940500D01*
X222396243Y-98907246D01*
X222598412Y-98841557D01*
X222787816Y-98745051D01*
X222874138Y-98682335D01*
X222959786Y-98620109D01*
X222959788Y-98620106D01*
X222959792Y-98620104D01*
X223110104Y-98469792D01*
X223110106Y-98469788D01*
X223110109Y-98469786D01*
X223235048Y-98297820D01*
X223235047Y-98297820D01*
X223235051Y-98297816D01*
X223239514Y-98289054D01*
X223287488Y-98238259D01*
X223355308Y-98221463D01*
X223421444Y-98243999D01*
X223460486Y-98289056D01*
X223464951Y-98297820D01*
X223589890Y-98469786D01*
X223740213Y-98620109D01*
X223912179Y-98745048D01*
X223912181Y-98745049D01*
X223912184Y-98745051D01*
X224101588Y-98841557D01*
X224303757Y-98907246D01*
X224513713Y-98940500D01*
X224513714Y-98940500D01*
X224726286Y-98940500D01*
X224726287Y-98940500D01*
X224936243Y-98907246D01*
X225138412Y-98841557D01*
X225327816Y-98745051D01*
X225414138Y-98682335D01*
X225499786Y-98620109D01*
X225499788Y-98620106D01*
X225499792Y-98620104D01*
X225650104Y-98469792D01*
X225650106Y-98469788D01*
X225650109Y-98469786D01*
X225775048Y-98297820D01*
X225775047Y-98297820D01*
X225775051Y-98297816D01*
X225779514Y-98289054D01*
X225827488Y-98238259D01*
X225895308Y-98221463D01*
X225961444Y-98243999D01*
X226000486Y-98289056D01*
X226004951Y-98297820D01*
X226129890Y-98469786D01*
X226280213Y-98620109D01*
X226452179Y-98745048D01*
X226452181Y-98745049D01*
X226452184Y-98745051D01*
X226641588Y-98841557D01*
X226843757Y-98907246D01*
X227053713Y-98940500D01*
X227053714Y-98940500D01*
X227266286Y-98940500D01*
X227266287Y-98940500D01*
X227476243Y-98907246D01*
X227678412Y-98841557D01*
X227867816Y-98745051D01*
X227954138Y-98682335D01*
X228039786Y-98620109D01*
X228039788Y-98620106D01*
X228039792Y-98620104D01*
X228190104Y-98469792D01*
X228190106Y-98469788D01*
X228190109Y-98469786D01*
X228315048Y-98297820D01*
X228315047Y-98297820D01*
X228315051Y-98297816D01*
X228411557Y-98108412D01*
X228477246Y-97906243D01*
X228510500Y-97696287D01*
X228510500Y-97483713D01*
X228510500Y-97480096D01*
X228530185Y-97413057D01*
X228546819Y-97392415D01*
X228670795Y-97268439D01*
X228987819Y-96951415D01*
X229049142Y-96917931D01*
X229118834Y-96922915D01*
X229174767Y-96964787D01*
X229199184Y-97030251D01*
X229199500Y-97039097D01*
X229199500Y-97078846D01*
X229230260Y-97233488D01*
X229230263Y-97233498D01*
X229252959Y-97288291D01*
X229260428Y-97357761D01*
X229229152Y-97420240D01*
X229211284Y-97436061D01*
X229132746Y-97493122D01*
X228993115Y-97632753D01*
X228877058Y-97792495D01*
X228787408Y-97968441D01*
X228726389Y-98156236D01*
X228695500Y-98351263D01*
X228695500Y-98548736D01*
X228726389Y-98743763D01*
X228781245Y-98912591D01*
X228787409Y-98931561D01*
X228877056Y-99107501D01*
X228877058Y-99107504D01*
X228993115Y-99267246D01*
X229132753Y-99406884D01*
X229278146Y-99512516D01*
X229292499Y-99522944D01*
X229468439Y-99612591D01*
X229593637Y-99653270D01*
X229656236Y-99673610D01*
X229851264Y-99704500D01*
X229851269Y-99704500D01*
X230048736Y-99704500D01*
X230243763Y-99673610D01*
X230431561Y-99612591D01*
X230607501Y-99522944D01*
X230712955Y-99446328D01*
X230767246Y-99406884D01*
X230767248Y-99406881D01*
X230767252Y-99406879D01*
X230906879Y-99267252D01*
X230906881Y-99267248D01*
X230906884Y-99267246D01*
X230973030Y-99176202D01*
X231022944Y-99107501D01*
X231112591Y-98931561D01*
X231173610Y-98743763D01*
X231183340Y-98682331D01*
X231204500Y-98548736D01*
X231204500Y-98351263D01*
X231173610Y-98156236D01*
X231150140Y-98084003D01*
X231112591Y-97968439D01*
X231022944Y-97792499D01*
X231022941Y-97792495D01*
X231020977Y-97789289D01*
X231002733Y-97721843D01*
X231023850Y-97655241D01*
X231077622Y-97610628D01*
X231126705Y-97600500D01*
X235071500Y-97600500D01*
X235138539Y-97620185D01*
X235184294Y-97672989D01*
X235195500Y-97724500D01*
X235195500Y-99251870D01*
X235195501Y-99251876D01*
X235201908Y-99311483D01*
X235252202Y-99446328D01*
X235252206Y-99446335D01*
X235338452Y-99561544D01*
X235338455Y-99561547D01*
X235453664Y-99647793D01*
X235453671Y-99647797D01*
X235588517Y-99698091D01*
X235588516Y-99698091D01*
X235595444Y-99698835D01*
X235648127Y-99704500D01*
X237251872Y-99704499D01*
X237311483Y-99698091D01*
X237446331Y-99647796D01*
X237561546Y-99561546D01*
X237647796Y-99446331D01*
X237698091Y-99311483D01*
X237704500Y-99251873D01*
X237704499Y-98166963D01*
X237724184Y-98099925D01*
X237776987Y-98054170D01*
X237846146Y-98044226D01*
X237875948Y-98052401D01*
X237952238Y-98084002D01*
X238060984Y-98105633D01*
X238106888Y-98114764D01*
X238106891Y-98114765D01*
X238206024Y-98114765D01*
X238273063Y-98134450D01*
X238318818Y-98187254D01*
X238328497Y-98219367D01*
X238332398Y-98243999D01*
X238332754Y-98246243D01*
X238366879Y-98351269D01*
X238398444Y-98448414D01*
X238494951Y-98637820D01*
X238619890Y-98809786D01*
X238733430Y-98923326D01*
X238766915Y-98984649D01*
X238761931Y-99054341D01*
X238720059Y-99110274D01*
X238689083Y-99127189D01*
X238557669Y-99176203D01*
X238557664Y-99176206D01*
X238442455Y-99262452D01*
X238442452Y-99262455D01*
X238356206Y-99377664D01*
X238356202Y-99377671D01*
X238305908Y-99512517D01*
X238299501Y-99572116D01*
X238299501Y-99572123D01*
X238299500Y-99572135D01*
X238299500Y-101367870D01*
X238299501Y-101367876D01*
X238305908Y-101427483D01*
X238356202Y-101562328D01*
X238356206Y-101562335D01*
X238442452Y-101677544D01*
X238442455Y-101677547D01*
X238557664Y-101763793D01*
X238557671Y-101763797D01*
X238692517Y-101814091D01*
X238692516Y-101814091D01*
X238699444Y-101814835D01*
X238752127Y-101820500D01*
X240547872Y-101820499D01*
X240607483Y-101814091D01*
X240742331Y-101763796D01*
X240857546Y-101677546D01*
X240943796Y-101562331D01*
X240994091Y-101427483D01*
X241000500Y-101367873D01*
X241000499Y-99572128D01*
X240994091Y-99512517D01*
X240969405Y-99446331D01*
X240943797Y-99377671D01*
X240943793Y-99377664D01*
X240857547Y-99262455D01*
X240857544Y-99262452D01*
X240742335Y-99176206D01*
X240742328Y-99176202D01*
X240610917Y-99127189D01*
X240554983Y-99085318D01*
X240530566Y-99019853D01*
X240545418Y-98951580D01*
X240566563Y-98923332D01*
X240680104Y-98809792D01*
X240689001Y-98797547D01*
X240805048Y-98637820D01*
X240805047Y-98637820D01*
X240805051Y-98637816D01*
X240901557Y-98448412D01*
X240967246Y-98246243D01*
X241000500Y-98036287D01*
X241000500Y-97823713D01*
X240967246Y-97613757D01*
X240901557Y-97411588D01*
X240805051Y-97222184D01*
X240805049Y-97222181D01*
X240805048Y-97222179D01*
X240680109Y-97050213D01*
X240529786Y-96899890D01*
X240357820Y-96774951D01*
X240350389Y-96771165D01*
X240349054Y-96770485D01*
X240298259Y-96722512D01*
X240281463Y-96654692D01*
X240303999Y-96588556D01*
X240349054Y-96549515D01*
X240357816Y-96545051D01*
X240390738Y-96521132D01*
X240529786Y-96420109D01*
X240529788Y-96420106D01*
X240529792Y-96420104D01*
X240680104Y-96269792D01*
X240680106Y-96269788D01*
X240680109Y-96269786D01*
X240805048Y-96097820D01*
X240805047Y-96097820D01*
X240805051Y-96097816D01*
X240901557Y-95908412D01*
X240967246Y-95706243D01*
X241000500Y-95496287D01*
X241000500Y-95283713D01*
X240967246Y-95073757D01*
X240901557Y-94871588D01*
X240805051Y-94682184D01*
X240805049Y-94682181D01*
X240805048Y-94682179D01*
X240680109Y-94510213D01*
X240529786Y-94359890D01*
X240357820Y-94234951D01*
X240357115Y-94234591D01*
X240349054Y-94230485D01*
X240298259Y-94182512D01*
X240281463Y-94114692D01*
X240303999Y-94048556D01*
X240349054Y-94009515D01*
X240357816Y-94005051D01*
X240379789Y-93989086D01*
X240529786Y-93880109D01*
X240529788Y-93880106D01*
X240529792Y-93880104D01*
X240680104Y-93729792D01*
X240680106Y-93729788D01*
X240680109Y-93729786D01*
X240805048Y-93557820D01*
X240805047Y-93557820D01*
X240805051Y-93557816D01*
X240901557Y-93368412D01*
X240967246Y-93166243D01*
X241000500Y-92956287D01*
X241000500Y-92743713D01*
X240967246Y-92533757D01*
X240901557Y-92331588D01*
X240805051Y-92142184D01*
X240805049Y-92142181D01*
X240805048Y-92142179D01*
X240680109Y-91970213D01*
X240529786Y-91819890D01*
X240357820Y-91694951D01*
X240357115Y-91694591D01*
X240349054Y-91690485D01*
X240298259Y-91642512D01*
X240281463Y-91574692D01*
X240303999Y-91508556D01*
X240349054Y-91469515D01*
X240357816Y-91465051D01*
X240379789Y-91449086D01*
X240529786Y-91340109D01*
X240529788Y-91340106D01*
X240529792Y-91340104D01*
X240680104Y-91189792D01*
X240680106Y-91189788D01*
X240680109Y-91189786D01*
X240805048Y-91017820D01*
X240805047Y-91017820D01*
X240805051Y-91017816D01*
X240901557Y-90828412D01*
X240967246Y-90626243D01*
X241000500Y-90416287D01*
X241000500Y-90203713D01*
X240967246Y-89993757D01*
X240901557Y-89791588D01*
X240805051Y-89602184D01*
X240805049Y-89602181D01*
X240805048Y-89602179D01*
X240680109Y-89430213D01*
X240529786Y-89279890D01*
X240357820Y-89154951D01*
X240357115Y-89154591D01*
X240349054Y-89150485D01*
X240298259Y-89102512D01*
X240281463Y-89034692D01*
X240303999Y-88968556D01*
X240349054Y-88929515D01*
X240357816Y-88925051D01*
X240467951Y-88845034D01*
X240529786Y-88800109D01*
X240529788Y-88800106D01*
X240529792Y-88800104D01*
X240680104Y-88649792D01*
X240680106Y-88649788D01*
X240680109Y-88649786D01*
X240805048Y-88477820D01*
X240805047Y-88477820D01*
X240805051Y-88477816D01*
X240901557Y-88288412D01*
X240967246Y-88086243D01*
X241000500Y-87876287D01*
X241000500Y-87663713D01*
X240967246Y-87453757D01*
X240901557Y-87251588D01*
X240805051Y-87062184D01*
X240805049Y-87062181D01*
X240805048Y-87062179D01*
X240680109Y-86890213D01*
X240529786Y-86739890D01*
X240357820Y-86614951D01*
X240357115Y-86614591D01*
X240349054Y-86610485D01*
X240298259Y-86562512D01*
X240281463Y-86494692D01*
X240303999Y-86428556D01*
X240349054Y-86389515D01*
X240357816Y-86385051D01*
X240393335Y-86359245D01*
X240529786Y-86260109D01*
X240529788Y-86260106D01*
X240529792Y-86260104D01*
X240680104Y-86109792D01*
X240680106Y-86109788D01*
X240680109Y-86109786D01*
X240805048Y-85937820D01*
X240805047Y-85937820D01*
X240805051Y-85937816D01*
X240901557Y-85748412D01*
X240967246Y-85546243D01*
X241000500Y-85336287D01*
X241000500Y-85123713D01*
X240967246Y-84913757D01*
X240901557Y-84711588D01*
X240805051Y-84522184D01*
X240805049Y-84522181D01*
X240805048Y-84522179D01*
X240680109Y-84350213D01*
X240529786Y-84199890D01*
X240357820Y-84074951D01*
X240357115Y-84074591D01*
X240349054Y-84070485D01*
X240298259Y-84022512D01*
X240281463Y-83954692D01*
X240303999Y-83888556D01*
X240349054Y-83849515D01*
X240357816Y-83845051D01*
X240404707Y-83810983D01*
X240529786Y-83720109D01*
X240529788Y-83720106D01*
X240529792Y-83720104D01*
X240680104Y-83569792D01*
X240680106Y-83569788D01*
X240680109Y-83569786D01*
X240805048Y-83397820D01*
X240805047Y-83397820D01*
X240805051Y-83397816D01*
X240901557Y-83208412D01*
X240967246Y-83006243D01*
X241000500Y-82796287D01*
X241000500Y-82583713D01*
X240967246Y-82373757D01*
X240901557Y-82171588D01*
X240805051Y-81982184D01*
X240805049Y-81982181D01*
X240805048Y-81982179D01*
X240680109Y-81810213D01*
X240529786Y-81659890D01*
X240357820Y-81534951D01*
X240357115Y-81534591D01*
X240349054Y-81530485D01*
X240298259Y-81482512D01*
X240281463Y-81414692D01*
X240303999Y-81348556D01*
X240349054Y-81309515D01*
X240357816Y-81305051D01*
X240462846Y-81228743D01*
X240529786Y-81180109D01*
X240529788Y-81180106D01*
X240529792Y-81180104D01*
X240680104Y-81029792D01*
X240680106Y-81029788D01*
X240680109Y-81029786D01*
X240805048Y-80857820D01*
X240805047Y-80857820D01*
X240805051Y-80857816D01*
X240901557Y-80668412D01*
X240967246Y-80466243D01*
X241000500Y-80256287D01*
X241000500Y-80043713D01*
X240967246Y-79833757D01*
X240919313Y-79686237D01*
X240919179Y-79681529D01*
X240916813Y-79677454D01*
X240918191Y-79646935D01*
X240917319Y-79616402D01*
X240919752Y-79612366D01*
X240919965Y-79607656D01*
X240937628Y-79582721D01*
X240953399Y-79556569D01*
X240958383Y-79553423D01*
X240960354Y-79550642D01*
X240972285Y-79544650D01*
X240990876Y-79532920D01*
X240997863Y-79530102D01*
X241111785Y-79499577D01*
X241192699Y-79452861D01*
X241248716Y-79420520D01*
X241360520Y-79308716D01*
X241360520Y-79308714D01*
X241370724Y-79298511D01*
X241370728Y-79298506D01*
X241858506Y-78810728D01*
X241858511Y-78810724D01*
X241868714Y-78800520D01*
X241868716Y-78800520D01*
X241980520Y-78688716D01*
X242059577Y-78551784D01*
X242100500Y-78399057D01*
X242100500Y-74569059D01*
X242100501Y-74569046D01*
X242100501Y-74400945D01*
X242100501Y-74400943D01*
X242059577Y-74248215D01*
X242022137Y-74183368D01*
X242022137Y-74183366D01*
X241980524Y-74111290D01*
X241980521Y-74111286D01*
X241980520Y-74111284D01*
X241868716Y-73999480D01*
X241868715Y-73999479D01*
X241864385Y-73995149D01*
X241864374Y-73995139D01*
X239881416Y-72012181D01*
X239847931Y-71950858D01*
X239852915Y-71881166D01*
X239894787Y-71825233D01*
X239960251Y-71800816D01*
X239969097Y-71800500D01*
X245280489Y-71800500D01*
X245347528Y-71820185D01*
X245393283Y-71872989D01*
X245404488Y-71924501D01*
X245404487Y-72012181D01*
X245404442Y-74602186D01*
X245384756Y-74669225D01*
X245331951Y-74714979D01*
X245262793Y-74724922D01*
X245206131Y-74701451D01*
X245174071Y-74677451D01*
X245164928Y-74670606D01*
X245132330Y-74646203D01*
X245132328Y-74646202D01*
X244997482Y-74595908D01*
X244997483Y-74595908D01*
X244937883Y-74589501D01*
X244937881Y-74589500D01*
X244937873Y-74589500D01*
X244937864Y-74589500D01*
X242842129Y-74589500D01*
X242842123Y-74589501D01*
X242782516Y-74595908D01*
X242647671Y-74646202D01*
X242647664Y-74646206D01*
X242532455Y-74732452D01*
X242532452Y-74732455D01*
X242446206Y-74847664D01*
X242446202Y-74847671D01*
X242395908Y-74982517D01*
X242389501Y-75042116D01*
X242389500Y-75042135D01*
X242389500Y-77137870D01*
X242389501Y-77137876D01*
X242395908Y-77197483D01*
X242446202Y-77332328D01*
X242446206Y-77332335D01*
X242532452Y-77447544D01*
X242532455Y-77447547D01*
X242647664Y-77533793D01*
X242647671Y-77533797D01*
X242782517Y-77584091D01*
X242782516Y-77584091D01*
X242789444Y-77584835D01*
X242842127Y-77590500D01*
X244937872Y-77590499D01*
X244997483Y-77584091D01*
X245132331Y-77533796D01*
X245206082Y-77478585D01*
X245271543Y-77454169D01*
X245339816Y-77469020D01*
X245389222Y-77518424D01*
X245404391Y-77577855D01*
X245404381Y-78196140D01*
X245384695Y-78263179D01*
X245331891Y-78308933D01*
X245262732Y-78318876D01*
X245206070Y-78295405D01*
X245185423Y-78279949D01*
X245132331Y-78240204D01*
X245132329Y-78240203D01*
X245132328Y-78240202D01*
X244997482Y-78189908D01*
X244997483Y-78189908D01*
X244937883Y-78183501D01*
X244937881Y-78183500D01*
X244937873Y-78183500D01*
X244937864Y-78183500D01*
X242842129Y-78183500D01*
X242842123Y-78183501D01*
X242782516Y-78189908D01*
X242647671Y-78240202D01*
X242647664Y-78240206D01*
X242532455Y-78326452D01*
X242532452Y-78326455D01*
X242446206Y-78441664D01*
X242446202Y-78441671D01*
X242395908Y-78576517D01*
X242389501Y-78636116D01*
X242389500Y-78636135D01*
X242389500Y-80731870D01*
X242389501Y-80731876D01*
X242395908Y-80791483D01*
X242446202Y-80926328D01*
X242446206Y-80926335D01*
X242532452Y-81041544D01*
X242532455Y-81041547D01*
X242647664Y-81127793D01*
X242647671Y-81127797D01*
X242782517Y-81178091D01*
X242782516Y-81178091D01*
X242789444Y-81178835D01*
X242842127Y-81184500D01*
X244937872Y-81184499D01*
X244997483Y-81178091D01*
X245132331Y-81127796D01*
X245206021Y-81072631D01*
X245271480Y-81048215D01*
X245339754Y-81063066D01*
X245389160Y-81112470D01*
X245404329Y-81171901D01*
X245404257Y-85384048D01*
X245384571Y-85451087D01*
X245331767Y-85496841D01*
X245262608Y-85506784D01*
X245205946Y-85483312D01*
X245132331Y-85428204D01*
X245132328Y-85428202D01*
X244997482Y-85377908D01*
X244997483Y-85377908D01*
X244937883Y-85371501D01*
X244937881Y-85371500D01*
X244937873Y-85371500D01*
X244937864Y-85371500D01*
X242842129Y-85371500D01*
X242842123Y-85371501D01*
X242782516Y-85377908D01*
X242647671Y-85428202D01*
X242647664Y-85428206D01*
X242532455Y-85514452D01*
X242532452Y-85514455D01*
X242446206Y-85629664D01*
X242446202Y-85629671D01*
X242395908Y-85764517D01*
X242389501Y-85824116D01*
X242389500Y-85824135D01*
X242389500Y-87919870D01*
X242389501Y-87919876D01*
X242395908Y-87979483D01*
X242446202Y-88114328D01*
X242446206Y-88114335D01*
X242532452Y-88229544D01*
X242532455Y-88229547D01*
X242647664Y-88315793D01*
X242647671Y-88315797D01*
X242782517Y-88366091D01*
X242782516Y-88366091D01*
X242789444Y-88366835D01*
X242842127Y-88372500D01*
X244937872Y-88372499D01*
X244997483Y-88366091D01*
X245132331Y-88315796D01*
X245205895Y-88260725D01*
X245271358Y-88236308D01*
X245339631Y-88251159D01*
X245389037Y-88300564D01*
X245404206Y-88359994D01*
X245404195Y-88978001D01*
X245384509Y-89045040D01*
X245331704Y-89090794D01*
X245262546Y-89100737D01*
X245205884Y-89077266D01*
X245132330Y-89022203D01*
X245132328Y-89022202D01*
X244997482Y-88971908D01*
X244997483Y-88971908D01*
X244937883Y-88965501D01*
X244937881Y-88965500D01*
X244937873Y-88965500D01*
X244937864Y-88965500D01*
X242842129Y-88965500D01*
X242842123Y-88965501D01*
X242782516Y-88971908D01*
X242647671Y-89022202D01*
X242647664Y-89022206D01*
X242532455Y-89108452D01*
X242532452Y-89108455D01*
X242446206Y-89223664D01*
X242446202Y-89223671D01*
X242395908Y-89358517D01*
X242389501Y-89418116D01*
X242389500Y-89418135D01*
X242389500Y-91513870D01*
X242389501Y-91513876D01*
X242395908Y-91573483D01*
X242446202Y-91708328D01*
X242446206Y-91708335D01*
X242532452Y-91823544D01*
X242532455Y-91823547D01*
X242647664Y-91909793D01*
X242647671Y-91909797D01*
X242782517Y-91960091D01*
X242782516Y-91960091D01*
X242789444Y-91960835D01*
X242842127Y-91966500D01*
X244937872Y-91966499D01*
X244997483Y-91960091D01*
X245132331Y-91909796D01*
X245205834Y-91854770D01*
X245271296Y-91830354D01*
X245339569Y-91845205D01*
X245388975Y-91894609D01*
X245404144Y-91954040D01*
X245403914Y-105375502D01*
X245384228Y-105442541D01*
X245331424Y-105488295D01*
X245279914Y-105499500D01*
X240834108Y-105499500D01*
X240706812Y-105533608D01*
X240592686Y-105599500D01*
X240592683Y-105599502D01*
X240499502Y-105692683D01*
X240499500Y-105692686D01*
X240433608Y-105806812D01*
X240399500Y-105934108D01*
X240399500Y-106107317D01*
X240430044Y-106319764D01*
X240430047Y-106319774D01*
X240460924Y-106424931D01*
X240460924Y-106494801D01*
X240423150Y-106553579D01*
X240359594Y-106582604D01*
X240342839Y-106583863D01*
X239457073Y-106590235D01*
X239389894Y-106571033D01*
X239343760Y-106518560D01*
X239333319Y-106449474D01*
X239337201Y-106431312D01*
X239369954Y-106319769D01*
X239371745Y-106307316D01*
X239382924Y-106229560D01*
X239400500Y-106107318D01*
X239400500Y-106000000D01*
X239400500Y-105934108D01*
X239366392Y-105806814D01*
X239300500Y-105692686D01*
X239207314Y-105599500D01*
X239150250Y-105566554D01*
X239093187Y-105533608D01*
X239029539Y-105516554D01*
X238965892Y-105499500D01*
X226565892Y-105499500D01*
X226434108Y-105499500D01*
X226306812Y-105533608D01*
X226192686Y-105599500D01*
X226192683Y-105599502D01*
X226099502Y-105692683D01*
X226099500Y-105692686D01*
X226033608Y-105806812D01*
X225999500Y-105934108D01*
X225999500Y-106107317D01*
X226030044Y-106319764D01*
X226030047Y-106319774D01*
X226091279Y-106528310D01*
X226091279Y-106598180D01*
X226053505Y-106656958D01*
X225989949Y-106685983D01*
X225973194Y-106687242D01*
X225026179Y-106694054D01*
X224959000Y-106674852D01*
X224912866Y-106622378D01*
X224902425Y-106553293D01*
X224908288Y-106529974D01*
X224908236Y-106529959D01*
X224908626Y-106528629D01*
X224909107Y-106526718D01*
X224909473Y-106525733D01*
X224909484Y-106525710D01*
X224969954Y-106319769D01*
X224971745Y-106307316D01*
X224982924Y-106229560D01*
X225000500Y-106107318D01*
X225000500Y-106000000D01*
X225000500Y-105934108D01*
X224966392Y-105806814D01*
X224900500Y-105692686D01*
X224807314Y-105599500D01*
X224750250Y-105566554D01*
X224693187Y-105533608D01*
X224629539Y-105516554D01*
X224565892Y-105499500D01*
X211965892Y-105499500D01*
X211834108Y-105499500D01*
X211706812Y-105533608D01*
X211592686Y-105599500D01*
X211592683Y-105599502D01*
X211499502Y-105692683D01*
X211499500Y-105692686D01*
X211433608Y-105806812D01*
X211399500Y-105934108D01*
X211399500Y-106107317D01*
X211430044Y-106319764D01*
X211430047Y-106319774D01*
X211447942Y-106380718D01*
X211490516Y-106525710D01*
X211525220Y-106601701D01*
X211531948Y-106616433D01*
X211541891Y-106685591D01*
X211512866Y-106749147D01*
X211454087Y-106786921D01*
X211420045Y-106791941D01*
X211143668Y-106793929D01*
X211101062Y-106785614D01*
X211101036Y-106785712D01*
X211099633Y-106785336D01*
X211095333Y-106784497D01*
X211093190Y-106783609D01*
X211066291Y-106776401D01*
X210965892Y-106749500D01*
X210834108Y-106749500D01*
X210706814Y-106783607D01*
X210699305Y-106786718D01*
X210698370Y-106784460D01*
X210650451Y-106797477D01*
X210378315Y-106799435D01*
X210311136Y-106780233D01*
X210265002Y-106727760D01*
X210254561Y-106658674D01*
X210264625Y-106623935D01*
X210309484Y-106525710D01*
X210369954Y-106319769D01*
X210371745Y-106307316D01*
X210382924Y-106229560D01*
X210400500Y-106107318D01*
X210400500Y-106000000D01*
X210400500Y-105934108D01*
X210366392Y-105806814D01*
X210300500Y-105692686D01*
X210207314Y-105599500D01*
X210150250Y-105566554D01*
X210093187Y-105533608D01*
X210029539Y-105516554D01*
X209965892Y-105499500D01*
X198565892Y-105499500D01*
X198434108Y-105499500D01*
X198306812Y-105533608D01*
X198192686Y-105599500D01*
X198192683Y-105599502D01*
X198099502Y-105692683D01*
X198099500Y-105692686D01*
X198033608Y-105806812D01*
X197999500Y-105934108D01*
X197999500Y-106107317D01*
X198030044Y-106319764D01*
X198030047Y-106319774D01*
X198047942Y-106380718D01*
X198090516Y-106525710D01*
X198103325Y-106553758D01*
X198150725Y-106657551D01*
X198155669Y-106691944D01*
X198160745Y-106726166D01*
X198160627Y-106726426D01*
X198160668Y-106726710D01*
X198146270Y-106758235D01*
X198132001Y-106789849D01*
X198131728Y-106790074D01*
X198131642Y-106790265D01*
X198105430Y-106813080D01*
X198102710Y-106814844D01*
X198042686Y-106849500D01*
X198030448Y-106861737D01*
X198019493Y-106868847D01*
X197998011Y-106875257D01*
X197978337Y-106885998D01*
X197952886Y-106888826D01*
X197899284Y-106889212D01*
X197832104Y-106870010D01*
X197810710Y-106852896D01*
X197807316Y-106849502D01*
X197807314Y-106849500D01*
X197733380Y-106806814D01*
X197693187Y-106783608D01*
X197612457Y-106761977D01*
X197565892Y-106749500D01*
X197434108Y-106749500D01*
X197306814Y-106783608D01*
X197306813Y-106783608D01*
X197306811Y-106783609D01*
X197306810Y-106783609D01*
X197192683Y-106849500D01*
X197183511Y-106858673D01*
X197156955Y-106873172D01*
X197131621Y-106889712D01*
X197124765Y-106890748D01*
X197122187Y-106892156D01*
X197096723Y-106894986D01*
X197055352Y-106895283D01*
X196988173Y-106876080D01*
X196966781Y-106858967D01*
X196957316Y-106849502D01*
X196957314Y-106849500D01*
X196957311Y-106849498D01*
X196957307Y-106849495D01*
X196900067Y-106816447D01*
X196851852Y-106765880D01*
X196838630Y-106697273D01*
X196849272Y-106657555D01*
X196909484Y-106525710D01*
X196969954Y-106319769D01*
X196971745Y-106307316D01*
X196982924Y-106229560D01*
X197000500Y-106107318D01*
X197000500Y-106000783D01*
X197000718Y-105935786D01*
X197000500Y-105934961D01*
X197000500Y-105934108D01*
X196983630Y-105871149D01*
X196967036Y-105808378D01*
X196966617Y-105807648D01*
X196966397Y-105806824D01*
X196966392Y-105806816D01*
X196966392Y-105806814D01*
X196933771Y-105750314D01*
X196901527Y-105694030D01*
X196900928Y-105693427D01*
X196900500Y-105692685D01*
X196854715Y-105646901D01*
X196854421Y-105646606D01*
X196808654Y-105600531D01*
X196808102Y-105600105D01*
X196807810Y-105599880D01*
X196807331Y-105599510D01*
X196807314Y-105599500D01*
X196751118Y-105567055D01*
X196750871Y-105566912D01*
X196694741Y-105534254D01*
X196693965Y-105533929D01*
X196693714Y-105533825D01*
X196693212Y-105533614D01*
X196630400Y-105516784D01*
X196630400Y-105516783D01*
X196629805Y-105516623D01*
X196567568Y-105499724D01*
X196566717Y-105499721D01*
X196565892Y-105499500D01*
X196565888Y-105499500D01*
X196500846Y-105499500D01*
X196500430Y-105499499D01*
X191530791Y-105482844D01*
X191463818Y-105462935D01*
X191418241Y-105409978D01*
X191407207Y-105358505D01*
X191408496Y-104887998D01*
X191417599Y-101564635D01*
X208412000Y-101564635D01*
X208412000Y-104435370D01*
X208412001Y-104435376D01*
X208418408Y-104494983D01*
X208468702Y-104629828D01*
X208468706Y-104629835D01*
X208554952Y-104745044D01*
X208554955Y-104745047D01*
X208670164Y-104831293D01*
X208670171Y-104831297D01*
X208805017Y-104881591D01*
X208805016Y-104881591D01*
X208811944Y-104882335D01*
X208864627Y-104888000D01*
X211735372Y-104887999D01*
X211794983Y-104881591D01*
X211929831Y-104831296D01*
X212045046Y-104745046D01*
X212131296Y-104629831D01*
X212181591Y-104494983D01*
X212188000Y-104435373D01*
X212187999Y-102876260D01*
X213112000Y-102876260D01*
X213112000Y-103123739D01*
X213112001Y-103123756D01*
X213144303Y-103369117D01*
X213208361Y-103608184D01*
X213303069Y-103836829D01*
X213303074Y-103836840D01*
X213426812Y-104051159D01*
X213426823Y-104051175D01*
X213577479Y-104247514D01*
X213577485Y-104247521D01*
X213752478Y-104422514D01*
X213752485Y-104422520D01*
X213846921Y-104494983D01*
X213948833Y-104573183D01*
X213948840Y-104573187D01*
X214163159Y-104696925D01*
X214163164Y-104696927D01*
X214163167Y-104696929D01*
X214391820Y-104791640D01*
X214630879Y-104855696D01*
X214876254Y-104888000D01*
X214876261Y-104888000D01*
X215123739Y-104888000D01*
X215123746Y-104888000D01*
X215369121Y-104855696D01*
X215608180Y-104791640D01*
X215836833Y-104696929D01*
X216051167Y-104573183D01*
X216247516Y-104422519D01*
X216422519Y-104247516D01*
X216573183Y-104051167D01*
X216696929Y-103836833D01*
X216791640Y-103608180D01*
X216855696Y-103369121D01*
X216888000Y-103123746D01*
X216888000Y-102876260D01*
X217812000Y-102876260D01*
X217812000Y-103123739D01*
X217812001Y-103123756D01*
X217844303Y-103369117D01*
X217908361Y-103608184D01*
X218003069Y-103836829D01*
X218003074Y-103836840D01*
X218126812Y-104051159D01*
X218126823Y-104051175D01*
X218277479Y-104247514D01*
X218277485Y-104247521D01*
X218452478Y-104422514D01*
X218452485Y-104422520D01*
X218546921Y-104494983D01*
X218648833Y-104573183D01*
X218648840Y-104573187D01*
X218863159Y-104696925D01*
X218863164Y-104696927D01*
X218863167Y-104696929D01*
X219091820Y-104791640D01*
X219330879Y-104855696D01*
X219576254Y-104888000D01*
X219576261Y-104888000D01*
X219823739Y-104888000D01*
X219823746Y-104888000D01*
X220069121Y-104855696D01*
X220308180Y-104791640D01*
X220536833Y-104696929D01*
X220751167Y-104573183D01*
X220947516Y-104422519D01*
X221122519Y-104247516D01*
X221273183Y-104051167D01*
X221396929Y-103836833D01*
X221491640Y-103608180D01*
X221555696Y-103369121D01*
X221588000Y-103123746D01*
X221588000Y-102876254D01*
X221555696Y-102630879D01*
X221491640Y-102391820D01*
X221396929Y-102163167D01*
X221396927Y-102163164D01*
X221396925Y-102163159D01*
X221273187Y-101948840D01*
X221273183Y-101948833D01*
X221122519Y-101752484D01*
X221122514Y-101752478D01*
X220947521Y-101577485D01*
X220947514Y-101577479D01*
X220751175Y-101426823D01*
X220751173Y-101426821D01*
X220751167Y-101426817D01*
X220751162Y-101426814D01*
X220751159Y-101426812D01*
X220536840Y-101303074D01*
X220536829Y-101303069D01*
X220308184Y-101208361D01*
X220069117Y-101144303D01*
X219823756Y-101112001D01*
X219823751Y-101112000D01*
X219823746Y-101112000D01*
X219576254Y-101112000D01*
X219576248Y-101112000D01*
X219576243Y-101112001D01*
X219330882Y-101144303D01*
X219091815Y-101208361D01*
X218863170Y-101303069D01*
X218863159Y-101303074D01*
X218648840Y-101426812D01*
X218648824Y-101426823D01*
X218452485Y-101577479D01*
X218452478Y-101577485D01*
X218277485Y-101752478D01*
X218277479Y-101752485D01*
X218126823Y-101948824D01*
X218126812Y-101948840D01*
X218003074Y-102163159D01*
X218003069Y-102163170D01*
X217908361Y-102391815D01*
X217844303Y-102630882D01*
X217812001Y-102876243D01*
X217812000Y-102876260D01*
X216888000Y-102876260D01*
X216888000Y-102876254D01*
X216855696Y-102630879D01*
X216791640Y-102391820D01*
X216696929Y-102163167D01*
X216696927Y-102163164D01*
X216696925Y-102163159D01*
X216573187Y-101948840D01*
X216573183Y-101948833D01*
X216422519Y-101752484D01*
X216422514Y-101752478D01*
X216247521Y-101577485D01*
X216247514Y-101577479D01*
X216051175Y-101426823D01*
X216051173Y-101426821D01*
X216051167Y-101426817D01*
X216051162Y-101426814D01*
X216051159Y-101426812D01*
X215836840Y-101303074D01*
X215836829Y-101303069D01*
X215608184Y-101208361D01*
X215369117Y-101144303D01*
X215123756Y-101112001D01*
X215123751Y-101112000D01*
X215123746Y-101112000D01*
X214876254Y-101112000D01*
X214876248Y-101112000D01*
X214876243Y-101112001D01*
X214630882Y-101144303D01*
X214391815Y-101208361D01*
X214163170Y-101303069D01*
X214163159Y-101303074D01*
X213948840Y-101426812D01*
X213948824Y-101426823D01*
X213752485Y-101577479D01*
X213752478Y-101577485D01*
X213577485Y-101752478D01*
X213577479Y-101752485D01*
X213426823Y-101948824D01*
X213426812Y-101948840D01*
X213303074Y-102163159D01*
X213303069Y-102163170D01*
X213208361Y-102391815D01*
X213144303Y-102630882D01*
X213112001Y-102876243D01*
X213112000Y-102876260D01*
X212187999Y-102876260D01*
X212187999Y-101564628D01*
X212181591Y-101505017D01*
X212152672Y-101427482D01*
X212131297Y-101370171D01*
X212131293Y-101370164D01*
X212045047Y-101254955D01*
X212045044Y-101254952D01*
X211929835Y-101168706D01*
X211929828Y-101168702D01*
X211794982Y-101118408D01*
X211794983Y-101118408D01*
X211735383Y-101112001D01*
X211735381Y-101112000D01*
X211735373Y-101112000D01*
X211735364Y-101112000D01*
X208864629Y-101112000D01*
X208864623Y-101112001D01*
X208805016Y-101118408D01*
X208670171Y-101168702D01*
X208670164Y-101168706D01*
X208554955Y-101254952D01*
X208554952Y-101254955D01*
X208468706Y-101370164D01*
X208468702Y-101370171D01*
X208418408Y-101505017D01*
X208412247Y-101562328D01*
X208412001Y-101564623D01*
X208412000Y-101564635D01*
X191417599Y-101564635D01*
X191424976Y-98871599D01*
X191444845Y-98804617D01*
X191497774Y-98759007D01*
X191566959Y-98749253D01*
X191621861Y-98771623D01*
X191692499Y-98822944D01*
X191868439Y-98912591D01*
X191988435Y-98951580D01*
X192056236Y-98973610D01*
X192251264Y-99004500D01*
X192251269Y-99004500D01*
X192448736Y-99004500D01*
X192643763Y-98973610D01*
X192685330Y-98960104D01*
X192831561Y-98912591D01*
X193007501Y-98822944D01*
X193112955Y-98746328D01*
X193167246Y-98706884D01*
X193167248Y-98706881D01*
X193167252Y-98706879D01*
X193306879Y-98567252D01*
X193306881Y-98567248D01*
X193306884Y-98567246D01*
X193364551Y-98487873D01*
X193422944Y-98407501D01*
X193512591Y-98231561D01*
X193573610Y-98043763D01*
X193587595Y-97955466D01*
X193604500Y-97848736D01*
X193604500Y-97651263D01*
X193573610Y-97456236D01*
X193519041Y-97288291D01*
X193512591Y-97268439D01*
X193422944Y-97092499D01*
X193413022Y-97078842D01*
X193370403Y-97020181D01*
X193370395Y-97020172D01*
X193318058Y-96948135D01*
X197595500Y-96948135D01*
X197595500Y-98551870D01*
X197595501Y-98551876D01*
X197601908Y-98611483D01*
X197652202Y-98746328D01*
X197652206Y-98746335D01*
X197738452Y-98861544D01*
X197738455Y-98861547D01*
X197853664Y-98947793D01*
X197853671Y-98947797D01*
X197988517Y-98998091D01*
X197988516Y-98998091D01*
X197995444Y-98998835D01*
X198048127Y-99004500D01*
X199651872Y-99004499D01*
X199711483Y-98998091D01*
X199846331Y-98947796D01*
X199961546Y-98861546D01*
X200047796Y-98746331D01*
X200098091Y-98611483D01*
X200104500Y-98551873D01*
X200104499Y-96948128D01*
X200098091Y-96888517D01*
X200095728Y-96882182D01*
X200047797Y-96753671D01*
X200047793Y-96753664D01*
X199961547Y-96638455D01*
X199961544Y-96638452D01*
X199846335Y-96552206D01*
X199846328Y-96552202D01*
X199711482Y-96501908D01*
X199711483Y-96501908D01*
X199651883Y-96495501D01*
X199651881Y-96495500D01*
X199651873Y-96495500D01*
X199651864Y-96495500D01*
X198048129Y-96495500D01*
X198048123Y-96495501D01*
X197988516Y-96501908D01*
X197853671Y-96552202D01*
X197853664Y-96552206D01*
X197738455Y-96638452D01*
X197738452Y-96638455D01*
X197652206Y-96753664D01*
X197652202Y-96753671D01*
X197601908Y-96888517D01*
X197597153Y-96932748D01*
X197595501Y-96948123D01*
X197595500Y-96948135D01*
X193318058Y-96948135D01*
X193306879Y-96932748D01*
X193271591Y-96897460D01*
X193267409Y-96892266D01*
X193256500Y-96865899D01*
X193242826Y-96840857D01*
X193243314Y-96834029D01*
X193240697Y-96827703D01*
X193245774Y-96799626D01*
X193247810Y-96771165D01*
X193251912Y-96765684D01*
X193253131Y-96758949D01*
X193272583Y-96738072D01*
X193289682Y-96715232D01*
X193296094Y-96712840D01*
X193300762Y-96707831D01*
X193328414Y-96700785D01*
X193355146Y-96690815D01*
X193363992Y-96690499D01*
X194697871Y-96690499D01*
X194697872Y-96690499D01*
X194757483Y-96684091D01*
X194892331Y-96633796D01*
X195007546Y-96547546D01*
X195093796Y-96432331D01*
X195144091Y-96297483D01*
X195150500Y-96237873D01*
X195150499Y-94142128D01*
X195144091Y-94082517D01*
X195131424Y-94048556D01*
X195093797Y-93947671D01*
X195093793Y-93947664D01*
X195007547Y-93832455D01*
X195007544Y-93832452D01*
X194892335Y-93746206D01*
X194892328Y-93746202D01*
X194757482Y-93695908D01*
X194757483Y-93695908D01*
X194697883Y-93689501D01*
X194697881Y-93689500D01*
X194697873Y-93689500D01*
X194697864Y-93689500D01*
X192602129Y-93689500D01*
X192602123Y-93689501D01*
X192542516Y-93695908D01*
X192407671Y-93746202D01*
X192407664Y-93746206D01*
X192292455Y-93832452D01*
X192292452Y-93832455D01*
X192206206Y-93947664D01*
X192206202Y-93947671D01*
X192155908Y-94082517D01*
X192149896Y-94138443D01*
X192149501Y-94142123D01*
X192149500Y-94142135D01*
X192149500Y-96237870D01*
X192149501Y-96237876D01*
X192155909Y-96297485D01*
X192177969Y-96356633D01*
X192182953Y-96426325D01*
X192149467Y-96487648D01*
X192088143Y-96521132D01*
X192081187Y-96522438D01*
X192056234Y-96526390D01*
X191868441Y-96587408D01*
X191692496Y-96677057D01*
X191628019Y-96723902D01*
X191562213Y-96747381D01*
X191494159Y-96731555D01*
X191445465Y-96681449D01*
X191431135Y-96623245D01*
X191481129Y-78372135D01*
X192069500Y-78372135D01*
X192069500Y-80467870D01*
X192069501Y-80467876D01*
X192075908Y-80527483D01*
X192126202Y-80662328D01*
X192126206Y-80662335D01*
X192212452Y-80777544D01*
X192212455Y-80777547D01*
X192327664Y-80863793D01*
X192327671Y-80863797D01*
X192462517Y-80914091D01*
X192462516Y-80914091D01*
X192469444Y-80914835D01*
X192522127Y-80920500D01*
X194617872Y-80920499D01*
X194677483Y-80914091D01*
X194812331Y-80863796D01*
X194927546Y-80777546D01*
X195013796Y-80662331D01*
X195064091Y-80527483D01*
X195070500Y-80467873D01*
X195070499Y-78372128D01*
X195064091Y-78312517D01*
X195063221Y-78310185D01*
X195013797Y-78177671D01*
X195013793Y-78177664D01*
X194927547Y-78062455D01*
X194927544Y-78062452D01*
X194812335Y-77976206D01*
X194812328Y-77976202D01*
X194677482Y-77925908D01*
X194677483Y-77925908D01*
X194617883Y-77919501D01*
X194617881Y-77919500D01*
X194617873Y-77919500D01*
X194617864Y-77919500D01*
X192522129Y-77919500D01*
X192522123Y-77919501D01*
X192462516Y-77925908D01*
X192327671Y-77976202D01*
X192327664Y-77976206D01*
X192212455Y-78062452D01*
X192212452Y-78062455D01*
X192126206Y-78177664D01*
X192126202Y-78177671D01*
X192075908Y-78312517D01*
X192069501Y-78372116D01*
X192069501Y-78372123D01*
X192069500Y-78372135D01*
X191481129Y-78372135D01*
X191498792Y-71924159D01*
X191518661Y-71857175D01*
X191571590Y-71811565D01*
X191622792Y-71800500D01*
X198041191Y-71800500D01*
X198108230Y-71820185D01*
G37*
%TD.AperFunction*%
%TA.AperFunction,Conductor*%
G36*
X233717941Y-72970185D02*
G01*
X233763696Y-73022989D01*
X233773640Y-73092147D01*
X233744615Y-73155703D01*
X233738583Y-73162181D01*
X231725092Y-75175671D01*
X231725090Y-75175673D01*
X231720215Y-75180549D01*
X231680960Y-75248541D01*
X231680332Y-75249629D01*
X231650582Y-75301158D01*
X231641158Y-75317480D01*
X231600234Y-75470208D01*
X231600234Y-75470210D01*
X231600234Y-75638311D01*
X231600235Y-75638324D01*
X231600235Y-78730234D01*
X231595783Y-78746335D01*
X231596261Y-78761376D01*
X231584167Y-78788350D01*
X231582625Y-78793930D01*
X231579489Y-78799167D01*
X231578946Y-78799711D01*
X231491341Y-78930821D01*
X231470400Y-78981377D01*
X231465719Y-78989196D01*
X231446483Y-79006962D01*
X231430051Y-79027355D01*
X231421224Y-79030292D01*
X231414393Y-79036603D01*
X231388605Y-79041150D01*
X231363757Y-79049421D01*
X231359329Y-79049500D01*
X231351155Y-79049500D01*
X231196510Y-79080261D01*
X231196498Y-79080264D01*
X231050827Y-79140602D01*
X231050814Y-79140609D01*
X230919711Y-79228210D01*
X230919707Y-79228213D01*
X230808213Y-79339707D01*
X230808210Y-79339711D01*
X230720609Y-79470814D01*
X230720602Y-79470827D01*
X230660264Y-79616498D01*
X230660261Y-79616508D01*
X230629362Y-79771848D01*
X230620596Y-79788605D01*
X230616577Y-79807082D01*
X230597832Y-79832123D01*
X230596977Y-79833759D01*
X230595427Y-79835337D01*
X230548374Y-79882390D01*
X230481286Y-79949478D01*
X230481285Y-79949478D01*
X230481284Y-79949479D01*
X230369481Y-80061282D01*
X230369479Y-80061285D01*
X230338765Y-80114485D01*
X230338764Y-80114487D01*
X230290423Y-80198214D01*
X230282126Y-80229179D01*
X230249499Y-80350943D01*
X230249499Y-80350945D01*
X230249499Y-80519046D01*
X230249500Y-80519059D01*
X230249500Y-88613273D01*
X230249499Y-88613291D01*
X230249499Y-88778997D01*
X230249498Y-88778997D01*
X230290424Y-88931732D01*
X230290425Y-88931733D01*
X230309921Y-88965500D01*
X230309922Y-88965502D01*
X230369475Y-89068652D01*
X230369481Y-89068660D01*
X230488349Y-89187528D01*
X230488355Y-89187533D01*
X232228640Y-90927819D01*
X232262125Y-90989142D01*
X232257141Y-91058834D01*
X232215269Y-91114767D01*
X232149805Y-91139184D01*
X232140959Y-91139500D01*
X217620098Y-91139500D01*
X217553059Y-91119815D01*
X217532417Y-91103181D01*
X212017590Y-85588355D01*
X212017588Y-85588352D01*
X211898717Y-85469481D01*
X211898709Y-85469475D01*
X211793167Y-85408541D01*
X211793164Y-85408540D01*
X211761787Y-85390424D01*
X211761786Y-85390423D01*
X211761785Y-85390423D01*
X211609057Y-85349499D01*
X211450943Y-85349499D01*
X211443347Y-85349499D01*
X211443331Y-85349500D01*
X211437441Y-85349500D01*
X211370402Y-85329815D01*
X211324647Y-85277011D01*
X211314703Y-85207853D01*
X211334339Y-85156609D01*
X211379390Y-85089185D01*
X211379390Y-85089184D01*
X211379394Y-85089179D01*
X211439737Y-84943497D01*
X211470500Y-84788842D01*
X211470500Y-84631158D01*
X211470500Y-84631155D01*
X211470499Y-84631153D01*
X211464737Y-84602184D01*
X211439737Y-84476503D01*
X211421009Y-84431289D01*
X211379397Y-84330827D01*
X211379390Y-84330814D01*
X211291789Y-84199711D01*
X211291786Y-84199707D01*
X211180292Y-84088213D01*
X211180288Y-84088210D01*
X211049185Y-84000609D01*
X211049172Y-84000602D01*
X210903501Y-83940264D01*
X210903489Y-83940261D01*
X210748845Y-83909500D01*
X210748842Y-83909500D01*
X210591158Y-83909500D01*
X210591155Y-83909500D01*
X210436510Y-83940261D01*
X210436498Y-83940264D01*
X210290827Y-84000602D01*
X210290814Y-84000609D01*
X210159711Y-84088210D01*
X210159707Y-84088213D01*
X210048213Y-84199707D01*
X210048210Y-84199711D01*
X209960609Y-84330814D01*
X209960602Y-84330827D01*
X209900264Y-84476498D01*
X209900261Y-84476508D01*
X209869361Y-84631850D01*
X209836976Y-84693761D01*
X209835425Y-84695339D01*
X201931134Y-92599631D01*
X201869811Y-92633116D01*
X201843453Y-92635950D01*
X201300452Y-92635950D01*
X201233413Y-92616265D01*
X201187658Y-92563461D01*
X201177714Y-92494303D01*
X201178835Y-92487758D01*
X201200500Y-92378844D01*
X201200500Y-92221155D01*
X201200499Y-92221153D01*
X201191997Y-92178412D01*
X201169737Y-92066503D01*
X201169735Y-92066498D01*
X201109397Y-91920827D01*
X201109390Y-91920814D01*
X201021398Y-91789125D01*
X201000520Y-91722447D01*
X201000500Y-91720234D01*
X201000500Y-87003438D01*
X201020185Y-86936399D01*
X201072989Y-86890644D01*
X201142147Y-86880700D01*
X201205703Y-86909725D01*
X201227600Y-86934545D01*
X201237082Y-86948735D01*
X201278212Y-87010291D01*
X201389707Y-87121786D01*
X201389711Y-87121789D01*
X201520814Y-87209390D01*
X201520827Y-87209397D01*
X201666498Y-87269735D01*
X201666503Y-87269737D01*
X201821153Y-87300499D01*
X201821156Y-87300500D01*
X201821158Y-87300500D01*
X201978844Y-87300500D01*
X201978845Y-87300499D01*
X202133497Y-87269737D01*
X202246166Y-87223067D01*
X202279172Y-87209397D01*
X202279172Y-87209396D01*
X202279179Y-87209394D01*
X202410289Y-87121789D01*
X202521789Y-87010289D01*
X202572399Y-86934544D01*
X202626009Y-86889742D01*
X202695334Y-86881033D01*
X202758362Y-86911188D01*
X202795081Y-86970630D01*
X202799500Y-87003436D01*
X202799500Y-87150000D01*
X202799501Y-87150019D01*
X202810000Y-87252796D01*
X202810001Y-87252799D01*
X202825808Y-87300500D01*
X202865186Y-87419334D01*
X202957288Y-87568656D01*
X203081344Y-87692712D01*
X203230666Y-87784814D01*
X203397203Y-87839999D01*
X203499991Y-87850500D01*
X205100008Y-87850499D01*
X205202797Y-87839999D01*
X205369334Y-87784814D01*
X205518656Y-87692712D01*
X205642712Y-87568656D01*
X205734814Y-87419334D01*
X205789999Y-87252797D01*
X205800500Y-87150009D01*
X205800499Y-85849992D01*
X205789999Y-85747203D01*
X205734814Y-85580666D01*
X205642712Y-85431344D01*
X205518656Y-85307288D01*
X205425888Y-85250069D01*
X205369336Y-85215187D01*
X205369331Y-85215185D01*
X205367862Y-85214698D01*
X205202797Y-85160001D01*
X205202795Y-85160000D01*
X205100016Y-85149500D01*
X205100009Y-85149500D01*
X204399096Y-85149500D01*
X204332057Y-85129815D01*
X204286302Y-85077011D01*
X204276358Y-85007853D01*
X204305383Y-84944297D01*
X204311415Y-84937819D01*
X205226723Y-84022512D01*
X206291416Y-82957819D01*
X206352739Y-82924334D01*
X206379097Y-82921500D01*
X208564833Y-82921500D01*
X208564849Y-82921501D01*
X208572445Y-82921501D01*
X208730556Y-82921501D01*
X208730559Y-82921501D01*
X208883287Y-82880577D01*
X208933406Y-82851639D01*
X209020218Y-82801520D01*
X209132022Y-82689716D01*
X209132022Y-82689714D01*
X209142230Y-82679507D01*
X209142231Y-82679504D01*
X209600916Y-82220821D01*
X209662235Y-82187339D01*
X209664402Y-82186888D01*
X209665091Y-82186751D01*
X209665093Y-82186751D01*
X209819748Y-82155988D01*
X209965430Y-82095645D01*
X210096540Y-82008040D01*
X210208040Y-81896540D01*
X210295645Y-81765430D01*
X210297304Y-81761426D01*
X210331993Y-81677678D01*
X210355988Y-81619748D01*
X210386751Y-81465093D01*
X210386751Y-81307409D01*
X210386751Y-81307406D01*
X210386750Y-81307404D01*
X210371102Y-81228739D01*
X210355988Y-81152754D01*
X210321538Y-81069583D01*
X210295648Y-81007078D01*
X210295641Y-81007065D01*
X210208040Y-80875962D01*
X210208037Y-80875958D01*
X210096543Y-80764464D01*
X210096539Y-80764461D01*
X209965436Y-80676860D01*
X209965423Y-80676853D01*
X209819752Y-80616515D01*
X209819740Y-80616512D01*
X209665096Y-80585751D01*
X209665093Y-80585751D01*
X209507409Y-80585751D01*
X209507406Y-80585751D01*
X209352761Y-80616512D01*
X209352749Y-80616515D01*
X209207078Y-80676853D01*
X209207065Y-80676860D01*
X209075962Y-80764461D01*
X209075958Y-80764464D01*
X208964464Y-80875958D01*
X208964461Y-80875962D01*
X208876860Y-81007065D01*
X208876853Y-81007078D01*
X208816515Y-81152749D01*
X208816512Y-81152759D01*
X208785613Y-81308100D01*
X208753228Y-81370010D01*
X208751677Y-81371589D01*
X208439086Y-81684181D01*
X208377763Y-81717666D01*
X208351405Y-81720500D01*
X205999939Y-81720500D01*
X205972141Y-81727948D01*
X205972142Y-81727949D01*
X205847214Y-81761423D01*
X205847209Y-81761426D01*
X205710290Y-81840475D01*
X205710282Y-81840481D01*
X203660946Y-83889818D01*
X203599623Y-83923303D01*
X203529931Y-83918319D01*
X203473998Y-83876447D01*
X203449581Y-83810983D01*
X203449265Y-83802137D01*
X203449265Y-83174530D01*
X203468950Y-83107491D01*
X203470163Y-83105639D01*
X203498163Y-83063735D01*
X203558159Y-82973944D01*
X203618502Y-82828262D01*
X203649265Y-82673607D01*
X203649265Y-82515923D01*
X203649265Y-82515920D01*
X203649264Y-82515918D01*
X203621070Y-82374179D01*
X203618502Y-82361268D01*
X203574049Y-82253947D01*
X203558162Y-82215592D01*
X203558160Y-82215588D01*
X203558159Y-82215586D01*
X203482711Y-82102671D01*
X203461834Y-82035995D01*
X203480318Y-81968615D01*
X203498129Y-81946104D01*
X205737416Y-79706819D01*
X205798739Y-79673334D01*
X205825097Y-79670500D01*
X209920234Y-79670500D01*
X209987273Y-79690185D01*
X209989125Y-79691398D01*
X210120814Y-79779390D01*
X210120827Y-79779397D01*
X210255880Y-79835337D01*
X210266503Y-79839737D01*
X210421153Y-79870499D01*
X210421156Y-79870500D01*
X210421158Y-79870500D01*
X210578844Y-79870500D01*
X210578845Y-79870499D01*
X210733497Y-79839737D01*
X210879179Y-79779394D01*
X211010289Y-79691789D01*
X211121789Y-79580289D01*
X211209394Y-79449179D01*
X211209677Y-79448497D01*
X211269369Y-79304385D01*
X211269737Y-79303497D01*
X211300500Y-79148842D01*
X211300500Y-78991158D01*
X211300500Y-78991155D01*
X211300499Y-78991153D01*
X211280560Y-78890914D01*
X211269737Y-78836503D01*
X211269735Y-78836498D01*
X211209397Y-78690827D01*
X211209390Y-78690814D01*
X211121789Y-78559711D01*
X211121786Y-78559707D01*
X211010292Y-78448213D01*
X211010288Y-78448210D01*
X210942458Y-78402887D01*
X210897653Y-78349275D01*
X210888946Y-78279949D01*
X210906761Y-78234672D01*
X210906525Y-78234546D01*
X210907611Y-78232513D01*
X210908249Y-78230891D01*
X210909394Y-78229179D01*
X210969737Y-78083497D01*
X211000500Y-77928842D01*
X211000500Y-77771158D01*
X211000500Y-77771155D01*
X211000499Y-77771153D01*
X210995419Y-77745615D01*
X210969737Y-77616503D01*
X210958966Y-77590499D01*
X210909397Y-77470827D01*
X210909390Y-77470814D01*
X210821789Y-77339711D01*
X210821786Y-77339707D01*
X210710292Y-77228213D01*
X210710288Y-77228210D01*
X210579185Y-77140609D01*
X210579172Y-77140602D01*
X210433501Y-77080264D01*
X210433489Y-77080261D01*
X210377832Y-77069190D01*
X210315921Y-77036805D01*
X210281347Y-76976090D01*
X210285086Y-76906320D01*
X210314340Y-76859894D01*
X210978506Y-76195727D01*
X210978511Y-76195724D01*
X210988714Y-76185520D01*
X210988716Y-76185520D01*
X211100520Y-76073716D01*
X211168118Y-75956632D01*
X211179577Y-75936785D01*
X211220501Y-75784057D01*
X211220501Y-75625943D01*
X211220501Y-75618348D01*
X211220500Y-75618330D01*
X211220500Y-73210097D01*
X211229144Y-73180656D01*
X211235668Y-73150670D01*
X211239422Y-73145654D01*
X211240185Y-73143058D01*
X211256814Y-73122421D01*
X211392418Y-72986817D01*
X211453740Y-72953334D01*
X211480098Y-72950500D01*
X233650902Y-72950500D01*
X233717941Y-72970185D01*
G37*
%TD.AperFunction*%
%TA.AperFunction,Conductor*%
G36*
X238295589Y-87062275D02*
G01*
X238298261Y-87061614D01*
X238328919Y-87072062D01*
X238359987Y-87081185D01*
X238361788Y-87083264D01*
X238364396Y-87084153D01*
X238384545Y-87109526D01*
X238405742Y-87133989D01*
X238406133Y-87136712D01*
X238407846Y-87138869D01*
X238411077Y-87171095D01*
X238415686Y-87203147D01*
X238414626Y-87206489D01*
X238414817Y-87208390D01*
X238403432Y-87241797D01*
X238398443Y-87251586D01*
X238332753Y-87453760D01*
X238299500Y-87663713D01*
X238299500Y-87876286D01*
X238332754Y-88086244D01*
X238332754Y-88086247D01*
X238346491Y-88128523D01*
X238346925Y-88143735D01*
X238352244Y-88157994D01*
X238347902Y-88177950D01*
X238348486Y-88198364D01*
X238340398Y-88212448D01*
X238337393Y-88226267D01*
X238316242Y-88254521D01*
X238206585Y-88364180D01*
X238145262Y-88397666D01*
X238118903Y-88400500D01*
X233551097Y-88400500D01*
X233484058Y-88380815D01*
X233463416Y-88364181D01*
X232372416Y-87273181D01*
X232338931Y-87211858D01*
X232343915Y-87142166D01*
X232385787Y-87086233D01*
X232451251Y-87061816D01*
X232460097Y-87061500D01*
X238292948Y-87061500D01*
X238295589Y-87062275D01*
G37*
%TD.AperFunction*%
%TA.AperFunction,Conductor*%
G36*
X210647941Y-71820185D02*
G01*
X210693696Y-71872989D01*
X210703640Y-71942147D01*
X210674615Y-72005703D01*
X210668583Y-72012181D01*
X210244217Y-72436546D01*
X210244214Y-72436548D01*
X210244215Y-72436549D01*
X210139478Y-72541286D01*
X210089361Y-72628094D01*
X210089359Y-72628096D01*
X210060425Y-72678209D01*
X210060424Y-72678210D01*
X210060423Y-72678215D01*
X210019499Y-72830943D01*
X210019499Y-72830945D01*
X210019499Y-72999046D01*
X210019500Y-72999059D01*
X210019500Y-74891526D01*
X209999815Y-74958565D01*
X209947011Y-75004320D01*
X209877853Y-75014264D01*
X209814297Y-74985239D01*
X209792398Y-74960417D01*
X209731789Y-74869711D01*
X209731786Y-74869707D01*
X209620292Y-74758213D01*
X209620288Y-74758210D01*
X209489185Y-74670609D01*
X209489172Y-74670602D01*
X209343501Y-74610264D01*
X209343489Y-74610261D01*
X209188845Y-74579500D01*
X209188842Y-74579500D01*
X209031158Y-74579500D01*
X209031155Y-74579500D01*
X208876510Y-74610261D01*
X208876498Y-74610264D01*
X208730827Y-74670602D01*
X208730814Y-74670609D01*
X208599711Y-74758210D01*
X208599707Y-74758213D01*
X208488213Y-74869707D01*
X208488210Y-74869711D01*
X208400609Y-75000814D01*
X208400602Y-75000827D01*
X208340264Y-75146498D01*
X208340261Y-75146510D01*
X208309500Y-75301153D01*
X208309500Y-75458846D01*
X208340261Y-75613489D01*
X208340264Y-75613501D01*
X208400602Y-75759172D01*
X208400609Y-75759185D01*
X208488210Y-75890288D01*
X208488213Y-75890292D01*
X208599707Y-76001786D01*
X208599711Y-76001789D01*
X208730814Y-76089390D01*
X208730823Y-76089395D01*
X208822911Y-76127539D01*
X208877314Y-76171380D01*
X208899379Y-76237674D01*
X208882100Y-76305373D01*
X208863140Y-76329781D01*
X208785710Y-76407211D01*
X208698109Y-76538314D01*
X208698102Y-76538327D01*
X208637764Y-76683998D01*
X208637761Y-76684010D01*
X208607000Y-76838653D01*
X208607000Y-76996346D01*
X208637761Y-77150989D01*
X208637764Y-77151001D01*
X208698102Y-77296672D01*
X208698109Y-77296685D01*
X208785710Y-77427788D01*
X208785713Y-77427792D01*
X208897207Y-77539286D01*
X208897211Y-77539289D01*
X209028314Y-77626890D01*
X209028327Y-77626897D01*
X209173998Y-77687235D01*
X209174003Y-77687237D01*
X209229667Y-77698309D01*
X209238671Y-77703019D01*
X209248807Y-77703744D01*
X209269105Y-77718938D01*
X209291576Y-77730693D01*
X209296605Y-77739524D01*
X209304741Y-77745615D01*
X209313602Y-77769372D01*
X209326151Y-77791408D01*
X209325607Y-77801556D01*
X209329159Y-77811079D01*
X209323768Y-77835858D01*
X209322412Y-77861178D01*
X209316072Y-77871238D01*
X209314308Y-77879352D01*
X209293157Y-77907606D01*
X209197585Y-78003180D01*
X209136262Y-78036666D01*
X209109903Y-78039500D01*
X203501670Y-78039500D01*
X203501654Y-78039499D01*
X203494058Y-78039499D01*
X203335943Y-78039499D01*
X203273403Y-78056257D01*
X203183214Y-78080423D01*
X203183209Y-78080426D01*
X203046290Y-78159475D01*
X203046282Y-78159481D01*
X200164681Y-81041082D01*
X200103358Y-81074567D01*
X200033666Y-81069583D01*
X199977733Y-81027711D01*
X199953316Y-80962247D01*
X199953000Y-80953401D01*
X199953000Y-80806213D01*
X199948460Y-80777547D01*
X199919746Y-80596257D01*
X199854057Y-80394088D01*
X199757551Y-80204684D01*
X199757549Y-80204681D01*
X199757548Y-80204679D01*
X199632609Y-80032713D01*
X199482286Y-79882390D01*
X199310320Y-79757451D01*
X199309615Y-79757091D01*
X199301554Y-79752985D01*
X199250759Y-79705012D01*
X199233963Y-79637192D01*
X199256499Y-79571056D01*
X199301554Y-79532015D01*
X199310316Y-79527551D01*
X199348819Y-79499577D01*
X199482286Y-79402609D01*
X199482288Y-79402606D01*
X199482292Y-79402604D01*
X199632604Y-79252292D01*
X199632606Y-79252288D01*
X199632609Y-79252286D01*
X199757548Y-79080320D01*
X199757547Y-79080320D01*
X199757551Y-79080316D01*
X199854057Y-78890912D01*
X199919746Y-78688743D01*
X199953000Y-78478787D01*
X199953000Y-78266213D01*
X199919746Y-78056257D01*
X199854057Y-77854088D01*
X199757551Y-77664684D01*
X199757549Y-77664681D01*
X199757548Y-77664679D01*
X199632609Y-77492713D01*
X199482286Y-77342390D01*
X199310320Y-77217451D01*
X199309615Y-77217091D01*
X199301554Y-77212985D01*
X199250759Y-77165012D01*
X199233963Y-77097192D01*
X199256499Y-77031056D01*
X199301554Y-76992015D01*
X199310316Y-76987551D01*
X199422122Y-76906320D01*
X199482286Y-76862609D01*
X199482288Y-76862606D01*
X199482292Y-76862604D01*
X199632604Y-76712292D01*
X199632606Y-76712288D01*
X199632609Y-76712286D01*
X199757548Y-76540320D01*
X199757547Y-76540320D01*
X199757551Y-76540316D01*
X199854057Y-76350912D01*
X199919746Y-76148743D01*
X199953000Y-75938787D01*
X199953000Y-75726213D01*
X199919746Y-75516257D01*
X199854057Y-75314088D01*
X199757551Y-75124684D01*
X199757549Y-75124681D01*
X199757548Y-75124679D01*
X199632609Y-74952713D01*
X199482286Y-74802390D01*
X199310320Y-74677451D01*
X199309615Y-74677091D01*
X199301554Y-74672985D01*
X199250759Y-74625012D01*
X199233963Y-74557192D01*
X199256499Y-74491056D01*
X199301554Y-74452015D01*
X199310316Y-74447551D01*
X199386154Y-74392452D01*
X199482286Y-74322609D01*
X199482288Y-74322606D01*
X199482292Y-74322604D01*
X199632604Y-74172292D01*
X199632606Y-74172288D01*
X199632609Y-74172286D01*
X199757548Y-74000320D01*
X199757547Y-74000320D01*
X199757551Y-74000316D01*
X199854057Y-73810912D01*
X199919746Y-73608743D01*
X199953000Y-73398787D01*
X199953000Y-73186213D01*
X199919746Y-72976257D01*
X199854057Y-72774088D01*
X199757551Y-72584684D01*
X199757549Y-72584681D01*
X199757548Y-72584679D01*
X199632609Y-72412713D01*
X199482286Y-72262390D01*
X199310320Y-72137451D01*
X199120910Y-72040941D01*
X199116419Y-72039082D01*
X199117319Y-72036908D01*
X199067649Y-72002789D01*
X199040587Y-71938373D01*
X199052648Y-71869552D01*
X199100002Y-71818177D01*
X199163809Y-71800500D01*
X210580902Y-71800500D01*
X210647941Y-71820185D01*
G37*
%TD.AperFunction*%
%TD*%
M02*
