%TF.GenerationSoftware,KiCad,Pcbnew,9.0.6*%
%TF.CreationDate,2025-11-30T21:08:30+05:30*%
%TF.ProjectId,Mini_Drone,4d696e69-5f44-4726-9f6e-652e6b696361,rev?*%
%TF.SameCoordinates,Original*%
%TF.FileFunction,Legend,Bot*%
%TF.FilePolarity,Positive*%
%FSLAX46Y46*%
G04 Gerber Fmt 4.6, Leading zero omitted, Abs format (unit mm)*
G04 Created by KiCad (PCBNEW 9.0.6) date 2025-11-30 21:08:30*
%MOMM*%
%LPD*%
G01*
G04 APERTURE LIST*
%ADD10C,0.100000*%
%ADD11C,0.150000*%
%ADD12C,0.127000*%
G04 APERTURE END LIST*
D10*
X200812419Y-77568646D02*
X200145752Y-78092455D01*
X200145752Y-77568646D02*
X200812419Y-78092455D01*
X200764800Y-78901979D02*
X200812419Y-78806741D01*
X200812419Y-78806741D02*
X200812419Y-78616265D01*
X200812419Y-78616265D02*
X200764800Y-78521027D01*
X200764800Y-78521027D02*
X200717180Y-78473408D01*
X200717180Y-78473408D02*
X200621942Y-78425789D01*
X200621942Y-78425789D02*
X200336228Y-78425789D01*
X200336228Y-78425789D02*
X200240990Y-78473408D01*
X200240990Y-78473408D02*
X200193371Y-78521027D01*
X200193371Y-78521027D02*
X200145752Y-78616265D01*
X200145752Y-78616265D02*
X200145752Y-78806741D01*
X200145752Y-78806741D02*
X200193371Y-78901979D01*
X200812419Y-79473408D02*
X200764800Y-79378170D01*
X200764800Y-79378170D02*
X200669561Y-79330551D01*
X200669561Y-79330551D02*
X199812419Y-79330551D01*
X197352419Y-75322455D02*
X196828609Y-75322455D01*
X196828609Y-75322455D02*
X196733371Y-75274836D01*
X196733371Y-75274836D02*
X196685752Y-75179598D01*
X196685752Y-75179598D02*
X196685752Y-74989122D01*
X196685752Y-74989122D02*
X196733371Y-74893884D01*
X197304800Y-75322455D02*
X197352419Y-75227217D01*
X197352419Y-75227217D02*
X197352419Y-74989122D01*
X197352419Y-74989122D02*
X197304800Y-74893884D01*
X197304800Y-74893884D02*
X197209561Y-74846265D01*
X197209561Y-74846265D02*
X197114323Y-74846265D01*
X197114323Y-74846265D02*
X197019085Y-74893884D01*
X197019085Y-74893884D02*
X196971466Y-74989122D01*
X196971466Y-74989122D02*
X196971466Y-75227217D01*
X196971466Y-75227217D02*
X196923847Y-75322455D01*
X197352419Y-76227217D02*
X196352419Y-76227217D01*
X197304800Y-76227217D02*
X197352419Y-76131979D01*
X197352419Y-76131979D02*
X197352419Y-75941503D01*
X197352419Y-75941503D02*
X197304800Y-75846265D01*
X197304800Y-75846265D02*
X197257180Y-75798646D01*
X197257180Y-75798646D02*
X197161942Y-75751027D01*
X197161942Y-75751027D02*
X196876228Y-75751027D01*
X196876228Y-75751027D02*
X196780990Y-75798646D01*
X196780990Y-75798646D02*
X196733371Y-75846265D01*
X196733371Y-75846265D02*
X196685752Y-75941503D01*
X196685752Y-75941503D02*
X196685752Y-76131979D01*
X196685752Y-76131979D02*
X196733371Y-76227217D01*
X196352419Y-76893884D02*
X196352419Y-76989122D01*
X196352419Y-76989122D02*
X196400038Y-77084360D01*
X196400038Y-77084360D02*
X196447657Y-77131979D01*
X196447657Y-77131979D02*
X196542895Y-77179598D01*
X196542895Y-77179598D02*
X196733371Y-77227217D01*
X196733371Y-77227217D02*
X196971466Y-77227217D01*
X196971466Y-77227217D02*
X197161942Y-77179598D01*
X197161942Y-77179598D02*
X197257180Y-77131979D01*
X197257180Y-77131979D02*
X197304800Y-77084360D01*
X197304800Y-77084360D02*
X197352419Y-76989122D01*
X197352419Y-76989122D02*
X197352419Y-76893884D01*
X197352419Y-76893884D02*
X197304800Y-76798646D01*
X197304800Y-76798646D02*
X197257180Y-76751027D01*
X197257180Y-76751027D02*
X197161942Y-76703408D01*
X197161942Y-76703408D02*
X196971466Y-76655789D01*
X196971466Y-76655789D02*
X196733371Y-76655789D01*
X196733371Y-76655789D02*
X196542895Y-76703408D01*
X196542895Y-76703408D02*
X196447657Y-76751027D01*
X196447657Y-76751027D02*
X196400038Y-76798646D01*
X196400038Y-76798646D02*
X196352419Y-76893884D01*
X200862419Y-72633884D02*
X200195752Y-72633884D01*
X199862419Y-72633884D02*
X199910038Y-72586265D01*
X199910038Y-72586265D02*
X199957657Y-72633884D01*
X199957657Y-72633884D02*
X199910038Y-72681503D01*
X199910038Y-72681503D02*
X199862419Y-72633884D01*
X199862419Y-72633884D02*
X199957657Y-72633884D01*
X200195752Y-73110074D02*
X200862419Y-73110074D01*
X200290990Y-73110074D02*
X200243371Y-73157693D01*
X200243371Y-73157693D02*
X200195752Y-73252931D01*
X200195752Y-73252931D02*
X200195752Y-73395788D01*
X200195752Y-73395788D02*
X200243371Y-73491026D01*
X200243371Y-73491026D02*
X200338609Y-73538645D01*
X200338609Y-73538645D02*
X200862419Y-73538645D01*
X200195752Y-73871979D02*
X200195752Y-74252931D01*
X199862419Y-74014836D02*
X200719561Y-74014836D01*
X200719561Y-74014836D02*
X200814800Y-74062455D01*
X200814800Y-74062455D02*
X200862419Y-74157693D01*
X200862419Y-74157693D02*
X200862419Y-74252931D01*
X200994856Y-82436265D02*
X201042475Y-82531503D01*
X201042475Y-82531503D02*
X201042475Y-82721979D01*
X201042475Y-82721979D02*
X200994856Y-82817217D01*
X200994856Y-82817217D02*
X200899617Y-82864836D01*
X200899617Y-82864836D02*
X200851998Y-82864836D01*
X200851998Y-82864836D02*
X200756760Y-82817217D01*
X200756760Y-82817217D02*
X200709141Y-82721979D01*
X200709141Y-82721979D02*
X200709141Y-82579122D01*
X200709141Y-82579122D02*
X200661522Y-82483884D01*
X200661522Y-82483884D02*
X200566284Y-82436265D01*
X200566284Y-82436265D02*
X200518665Y-82436265D01*
X200518665Y-82436265D02*
X200423427Y-82483884D01*
X200423427Y-82483884D02*
X200375808Y-82579122D01*
X200375808Y-82579122D02*
X200375808Y-82721979D01*
X200375808Y-82721979D02*
X200423427Y-82817217D01*
X201042475Y-83721979D02*
X200042475Y-83721979D01*
X200994856Y-83721979D02*
X201042475Y-83626741D01*
X201042475Y-83626741D02*
X201042475Y-83436265D01*
X201042475Y-83436265D02*
X200994856Y-83341027D01*
X200994856Y-83341027D02*
X200947236Y-83293408D01*
X200947236Y-83293408D02*
X200851998Y-83245789D01*
X200851998Y-83245789D02*
X200566284Y-83245789D01*
X200566284Y-83245789D02*
X200471046Y-83293408D01*
X200471046Y-83293408D02*
X200423427Y-83341027D01*
X200423427Y-83341027D02*
X200375808Y-83436265D01*
X200375808Y-83436265D02*
X200375808Y-83626741D01*
X200375808Y-83626741D02*
X200423427Y-83721979D01*
X201042475Y-84626741D02*
X200518665Y-84626741D01*
X200518665Y-84626741D02*
X200423427Y-84579122D01*
X200423427Y-84579122D02*
X200375808Y-84483884D01*
X200375808Y-84483884D02*
X200375808Y-84293408D01*
X200375808Y-84293408D02*
X200423427Y-84198170D01*
X200994856Y-84626741D02*
X201042475Y-84531503D01*
X201042475Y-84531503D02*
X201042475Y-84293408D01*
X201042475Y-84293408D02*
X200994856Y-84198170D01*
X200994856Y-84198170D02*
X200899617Y-84150551D01*
X200899617Y-84150551D02*
X200804379Y-84150551D01*
X200804379Y-84150551D02*
X200709141Y-84198170D01*
X200709141Y-84198170D02*
X200661522Y-84293408D01*
X200661522Y-84293408D02*
X200661522Y-84531503D01*
X200661522Y-84531503D02*
X200613903Y-84626741D01*
X197374800Y-85226265D02*
X197422419Y-85321503D01*
X197422419Y-85321503D02*
X197422419Y-85511979D01*
X197422419Y-85511979D02*
X197374800Y-85607217D01*
X197374800Y-85607217D02*
X197279561Y-85654836D01*
X197279561Y-85654836D02*
X197231942Y-85654836D01*
X197231942Y-85654836D02*
X197136704Y-85607217D01*
X197136704Y-85607217D02*
X197089085Y-85511979D01*
X197089085Y-85511979D02*
X197089085Y-85369122D01*
X197089085Y-85369122D02*
X197041466Y-85273884D01*
X197041466Y-85273884D02*
X196946228Y-85226265D01*
X196946228Y-85226265D02*
X196898609Y-85226265D01*
X196898609Y-85226265D02*
X196803371Y-85273884D01*
X196803371Y-85273884D02*
X196755752Y-85369122D01*
X196755752Y-85369122D02*
X196755752Y-85511979D01*
X196755752Y-85511979D02*
X196803371Y-85607217D01*
X197374800Y-86511979D02*
X197422419Y-86416741D01*
X197422419Y-86416741D02*
X197422419Y-86226265D01*
X197422419Y-86226265D02*
X197374800Y-86131027D01*
X197374800Y-86131027D02*
X197327180Y-86083408D01*
X197327180Y-86083408D02*
X197231942Y-86035789D01*
X197231942Y-86035789D02*
X196946228Y-86035789D01*
X196946228Y-86035789D02*
X196850990Y-86083408D01*
X196850990Y-86083408D02*
X196803371Y-86131027D01*
X196803371Y-86131027D02*
X196755752Y-86226265D01*
X196755752Y-86226265D02*
X196755752Y-86416741D01*
X196755752Y-86416741D02*
X196803371Y-86511979D01*
X197422419Y-87083408D02*
X197374800Y-86988170D01*
X197374800Y-86988170D02*
X197279561Y-86940551D01*
X197279561Y-86940551D02*
X196422419Y-86940551D01*
X197372419Y-79868646D02*
X196705752Y-80392455D01*
X196705752Y-79868646D02*
X197372419Y-80392455D01*
X197372419Y-81201979D02*
X196372419Y-81201979D01*
X197324800Y-81201979D02*
X197372419Y-81106741D01*
X197372419Y-81106741D02*
X197372419Y-80916265D01*
X197372419Y-80916265D02*
X197324800Y-80821027D01*
X197324800Y-80821027D02*
X197277180Y-80773408D01*
X197277180Y-80773408D02*
X197181942Y-80725789D01*
X197181942Y-80725789D02*
X196896228Y-80725789D01*
X196896228Y-80725789D02*
X196800990Y-80773408D01*
X196800990Y-80773408D02*
X196753371Y-80821027D01*
X196753371Y-80821027D02*
X196705752Y-80916265D01*
X196705752Y-80916265D02*
X196705752Y-81106741D01*
X196705752Y-81106741D02*
X196753371Y-81201979D01*
X197372419Y-82106741D02*
X196848609Y-82106741D01*
X196848609Y-82106741D02*
X196753371Y-82059122D01*
X196753371Y-82059122D02*
X196705752Y-81963884D01*
X196705752Y-81963884D02*
X196705752Y-81773408D01*
X196705752Y-81773408D02*
X196753371Y-81678170D01*
X197324800Y-82106741D02*
X197372419Y-82011503D01*
X197372419Y-82011503D02*
X197372419Y-81773408D01*
X197372419Y-81773408D02*
X197324800Y-81678170D01*
X197324800Y-81678170D02*
X197229561Y-81630551D01*
X197229561Y-81630551D02*
X197134323Y-81630551D01*
X197134323Y-81630551D02*
X197039085Y-81678170D01*
X197039085Y-81678170D02*
X196991466Y-81773408D01*
X196991466Y-81773408D02*
X196991466Y-82011503D01*
X196991466Y-82011503D02*
X196943847Y-82106741D01*
X196405752Y-90328646D02*
X197072419Y-90566741D01*
X197072419Y-90566741D02*
X196405752Y-90804836D01*
X197024800Y-91614360D02*
X197072419Y-91519122D01*
X197072419Y-91519122D02*
X197072419Y-91328646D01*
X197072419Y-91328646D02*
X197024800Y-91233408D01*
X197024800Y-91233408D02*
X196977180Y-91185789D01*
X196977180Y-91185789D02*
X196881942Y-91138170D01*
X196881942Y-91138170D02*
X196596228Y-91138170D01*
X196596228Y-91138170D02*
X196500990Y-91185789D01*
X196500990Y-91185789D02*
X196453371Y-91233408D01*
X196453371Y-91233408D02*
X196405752Y-91328646D01*
X196405752Y-91328646D02*
X196405752Y-91519122D01*
X196405752Y-91519122D02*
X196453371Y-91614360D01*
X197024800Y-92471503D02*
X197072419Y-92376265D01*
X197072419Y-92376265D02*
X197072419Y-92185789D01*
X197072419Y-92185789D02*
X197024800Y-92090551D01*
X197024800Y-92090551D02*
X196977180Y-92042932D01*
X196977180Y-92042932D02*
X196881942Y-91995313D01*
X196881942Y-91995313D02*
X196596228Y-91995313D01*
X196596228Y-91995313D02*
X196500990Y-92042932D01*
X196500990Y-92042932D02*
X196453371Y-92090551D01*
X196453371Y-92090551D02*
X196405752Y-92185789D01*
X196405752Y-92185789D02*
X196405752Y-92376265D01*
X196405752Y-92376265D02*
X196453371Y-92471503D01*
X200335752Y-88012455D02*
X201145276Y-88012455D01*
X201145276Y-88012455D02*
X201240514Y-87964836D01*
X201240514Y-87964836D02*
X201288133Y-87917217D01*
X201288133Y-87917217D02*
X201335752Y-87821979D01*
X201335752Y-87821979D02*
X201335752Y-87679122D01*
X201335752Y-87679122D02*
X201288133Y-87583884D01*
X200954800Y-88012455D02*
X201002419Y-87917217D01*
X201002419Y-87917217D02*
X201002419Y-87726741D01*
X201002419Y-87726741D02*
X200954800Y-87631503D01*
X200954800Y-87631503D02*
X200907180Y-87583884D01*
X200907180Y-87583884D02*
X200811942Y-87536265D01*
X200811942Y-87536265D02*
X200526228Y-87536265D01*
X200526228Y-87536265D02*
X200430990Y-87583884D01*
X200430990Y-87583884D02*
X200383371Y-87631503D01*
X200383371Y-87631503D02*
X200335752Y-87726741D01*
X200335752Y-87726741D02*
X200335752Y-87917217D01*
X200335752Y-87917217D02*
X200383371Y-88012455D01*
X200335752Y-88488646D02*
X201002419Y-88488646D01*
X200430990Y-88488646D02*
X200383371Y-88536265D01*
X200383371Y-88536265D02*
X200335752Y-88631503D01*
X200335752Y-88631503D02*
X200335752Y-88774360D01*
X200335752Y-88774360D02*
X200383371Y-88869598D01*
X200383371Y-88869598D02*
X200478609Y-88917217D01*
X200478609Y-88917217D02*
X201002419Y-88917217D01*
X201002419Y-89821979D02*
X200002419Y-89821979D01*
X200954800Y-89821979D02*
X201002419Y-89726741D01*
X201002419Y-89726741D02*
X201002419Y-89536265D01*
X201002419Y-89536265D02*
X200954800Y-89441027D01*
X200954800Y-89441027D02*
X200907180Y-89393408D01*
X200907180Y-89393408D02*
X200811942Y-89345789D01*
X200811942Y-89345789D02*
X200526228Y-89345789D01*
X200526228Y-89345789D02*
X200430990Y-89393408D01*
X200430990Y-89393408D02*
X200383371Y-89441027D01*
X200383371Y-89441027D02*
X200335752Y-89536265D01*
X200335752Y-89536265D02*
X200335752Y-89726741D01*
X200335752Y-89726741D02*
X200383371Y-89821979D01*
D11*
X208189925Y-82072295D02*
X208189925Y-82719914D01*
X208189925Y-82719914D02*
X208152430Y-82796104D01*
X208152430Y-82796104D02*
X208114934Y-82834200D01*
X208114934Y-82834200D02*
X208039944Y-82872295D01*
X208039944Y-82872295D02*
X207889962Y-82872295D01*
X207889962Y-82872295D02*
X207814972Y-82834200D01*
X207814972Y-82834200D02*
X207777476Y-82796104D01*
X207777476Y-82796104D02*
X207739981Y-82719914D01*
X207739981Y-82719914D02*
X207739981Y-82072295D01*
X207402523Y-82148485D02*
X207365028Y-82110390D01*
X207365028Y-82110390D02*
X207290037Y-82072295D01*
X207290037Y-82072295D02*
X207102561Y-82072295D01*
X207102561Y-82072295D02*
X207027570Y-82110390D01*
X207027570Y-82110390D02*
X206990075Y-82148485D01*
X206990075Y-82148485D02*
X206952579Y-82224676D01*
X206952579Y-82224676D02*
X206952579Y-82300866D01*
X206952579Y-82300866D02*
X206990075Y-82415152D01*
X206990075Y-82415152D02*
X207440019Y-82872295D01*
X207440019Y-82872295D02*
X206952579Y-82872295D01*
X209659404Y-73747319D02*
X209135595Y-73080652D01*
X209659404Y-73080652D02*
X209135595Y-73747319D01*
X206460594Y-76890652D02*
X206222499Y-77557319D01*
X205984404Y-76890652D02*
X206222499Y-77557319D01*
X206222499Y-77557319D02*
X206317737Y-77795414D01*
X206317737Y-77795414D02*
X206365356Y-77843033D01*
X206365356Y-77843033D02*
X206460594Y-77890652D01*
X214302499Y-81367319D02*
X214302499Y-80367319D01*
X213969166Y-80367319D02*
X213397738Y-80367319D01*
X213683452Y-81367319D02*
X213683452Y-80367319D01*
X212540595Y-80414938D02*
X212635833Y-80367319D01*
X212635833Y-80367319D02*
X212778690Y-80367319D01*
X212778690Y-80367319D02*
X212921547Y-80414938D01*
X212921547Y-80414938D02*
X213016785Y-80510176D01*
X213016785Y-80510176D02*
X213064404Y-80605414D01*
X213064404Y-80605414D02*
X213112023Y-80795890D01*
X213112023Y-80795890D02*
X213112023Y-80938747D01*
X213112023Y-80938747D02*
X213064404Y-81129223D01*
X213064404Y-81129223D02*
X213016785Y-81224461D01*
X213016785Y-81224461D02*
X212921547Y-81319700D01*
X212921547Y-81319700D02*
X212778690Y-81367319D01*
X212778690Y-81367319D02*
X212683452Y-81367319D01*
X212683452Y-81367319D02*
X212540595Y-81319700D01*
X212540595Y-81319700D02*
X212492976Y-81272080D01*
X212492976Y-81272080D02*
X212492976Y-80938747D01*
X212492976Y-80938747D02*
X212683452Y-80938747D01*
X211350119Y-80319700D02*
X212207261Y-81605414D01*
X211016785Y-81367319D02*
X211016785Y-80367319D01*
X211016785Y-80367319D02*
X210683452Y-81081604D01*
X210683452Y-81081604D02*
X210350119Y-80367319D01*
X210350119Y-80367319D02*
X210350119Y-81367319D01*
X209873928Y-81367319D02*
X209873928Y-80367319D01*
X209873928Y-80367319D02*
X209492976Y-80367319D01*
X209492976Y-80367319D02*
X209397738Y-80414938D01*
X209397738Y-80414938D02*
X209350119Y-80462557D01*
X209350119Y-80462557D02*
X209302500Y-80557795D01*
X209302500Y-80557795D02*
X209302500Y-80700652D01*
X209302500Y-80700652D02*
X209350119Y-80795890D01*
X209350119Y-80795890D02*
X209397738Y-80843509D01*
X209397738Y-80843509D02*
X209492976Y-80891128D01*
X209492976Y-80891128D02*
X209873928Y-80891128D01*
X208873928Y-80367319D02*
X208873928Y-81176842D01*
X208873928Y-81176842D02*
X208826309Y-81272080D01*
X208826309Y-81272080D02*
X208778690Y-81319700D01*
X208778690Y-81319700D02*
X208683452Y-81367319D01*
X208683452Y-81367319D02*
X208492976Y-81367319D01*
X208492976Y-81367319D02*
X208397738Y-81319700D01*
X208397738Y-81319700D02*
X208350119Y-81272080D01*
X208350119Y-81272080D02*
X208302500Y-81176842D01*
X208302500Y-81176842D02*
X208302500Y-80367319D01*
D12*
%TO.C,U2*%
X196062500Y-72022500D02*
X196062500Y-92977500D01*
X196062500Y-92977500D02*
X211937500Y-92977500D01*
X204952500Y-73292500D02*
X204952500Y-77102500D01*
X204952500Y-73292500D02*
X208762500Y-73292500D01*
X204952500Y-77102500D02*
X204317500Y-76467500D01*
X204952500Y-77102500D02*
X205587500Y-76467500D01*
X208762500Y-73292500D02*
X208127500Y-72657500D01*
X208762500Y-73292500D02*
X208127500Y-73927500D01*
X211937500Y-72022500D02*
X196062500Y-72022500D01*
X211937500Y-92977500D02*
X211937500Y-72022500D01*
%TD*%
M02*
